<?xml version="1.0" standalone="no"?>
<!DOCTYPE svg PUBLIC "-//W3C//DTD SVG 1.1//EN" "http://www.w3.org/Graphics/SVG/1.1/DTD/svg11.dtd" >
<svg xmlns="http://www.w3.org/2000/svg">
<metadata>
Created by FontPrep 20130207 at Sun Nov 15 21:21:35 2015
 By Pathum Egodawatta
Copyright (c) 1996-2015 Pushpananda Ekanayake (pushpanandae@gmail.com) Copyright (c) 2015 Sol Matas (sol@sonnenshine.com.ar) Copyright (c) 2015 Mooniak (hello@mooniak.com)
</metadata>
<defs>
<font id="6b1ad60c44ef407415e9b237dd784990" horiz-adv-x='1024' >
  <font-face 
    font-family="AbhayaLibre-Regular"
    font-weight="400"
    font-stretch="normal"
    units-per-em="2048"
    panose-1="2 0 5 0 0 0 0 0 0 0"
    ascent="1536"
    descent="-512"
    x-height="870"
    cap-height="1229"
    bbox="-1198 -697.028 3348 1753"
    underline-thickness="102"
    underline-position="-102"
    unicode-range="U+0020-FB02"
  />
<missing-glyph horiz-adv-x="1257" 
 />
    <glyph glyph-name="fi" unicode="fi" horiz-adv-x="1187" 
d="M485 53q31 0 40 -10t10 -43h-474v53q156 0 156 107v657h-145v53h145v33q0 329 281 415q78 24 170 23q158 0 242 -57t83 -125q-1 -35 -25 -59t-66 -23q-72 0 -108 75l-32 64q-40 76 -153 75q-114 -1 -176 -90t-62 -318v-13h606v-817h110q31 0 40 -10t10 -43h-465v53
q76 0 114 23t37 84v657h-452v-764h114z" />
    <glyph glyph-name="fl" unicode="fl" horiz-adv-x="1189" 
d="M1139 0h-465v53q88 0 119 22t30 89v1083q-111 41 -231 41t-171 -89q-50 -89 -50 -316v-13h225v-53h-225v-764h114q31 0 40 -10t10 -43h-474v53q156 0 156 107v657h-145v53h145v33q0 217 98 328t260 110q66 0 164 -10h238v-1278h113q31 0 40 -10t9 -43z" />
    <glyph glyph-name=".notdef" horiz-adv-x="1257" 
 />
    <glyph glyph-name=".null" horiz-adv-x="0" 
 />
    <glyph glyph-name="nonmarkingreturn" horiz-adv-x="681" 
 />
    <glyph glyph-name="space" unicode=" " horiz-adv-x="399" 
 />
    <glyph glyph-name="exclam" unicode="!" horiz-adv-x="571" 
d="M283 201q43 0 73 -31t31 -75q0 -44 -31 -75q-32 -30 -74 -30t-73 30t-31 75q0 44 31 75t74 31zM315 342h-61q0 254 -38 487t-38 285q0 135 108 135t107 -131q0 -52 -39 -290t-39 -486z" />
    <glyph glyph-name="quotedbl" unicode="&#x22;" horiz-adv-x="626" 
d="M354 1260q0 34 22 58t63 23q40 1 63 -23q22 -24 22 -57t-26 -147t-31 -192h-55q-4 82 -31 194q-27 110 -27 144zM188 1341q39 1 62 -23q22 -24 22 -57t-26 -147t-31 -192h-55q-4 82 -31 194t-27 144q0 34 24 58t62 23z" />
    <glyph glyph-name="numbersign" unicode="#" horiz-adv-x="1185" 
d="M727 492l35 266h-295l-35 -266h295zM123 399v93h248l35 266h-256v92h268l49 379h61l-49 -379h295l49 379h62l-49 -379h227v-92h-240l-35 -266h248v-93h-260l-55 -419h-62l56 419h-295l-55 -419h-62l55 419h-235z" />
    <glyph glyph-name="dollar" unicode="$" horiz-adv-x="1101" 
d="M588 -186h-60v168h-4q-172 0 -297 64t-125 171q0 53 29 87t85 34t83 -31t34 -76t16 -89t50 -74t121 -31h8v520q-78 35 -112 50t-98 55q-66 40 -94 72t-52 85q-25 53 -25 117q0 137 111 217t270 94v185h60v-183h2q158 0 272 -61t115 -168q0 -107 -96 -107q-66 0 -93 41
q-28 42 -30 92t-42 95t-128 51v-475q6 -2 56 -25t101 -45t67 -35q17 -14 52 -37t46 -39t35 -41q54 -58 54 -173q-1 -154 -119 -239t-292 -99v-170zM825 267q0 93 -61 151t-176 112v-489q115 13 176 73t61 153zM315 990q-1 -85 55 -141t158 -106v447q-98 -8 -156 -62
t-57 -138z" />
    <glyph glyph-name="percent" unicode="%" horiz-adv-x="1630" 
d="M1192 20q145 0 145 310q1 164 -35 230t-114 67q-78 0 -112 -70q-34 -69 -34 -233t35 -234t115 -70zM1194 668q137 0 220 -90t83 -251t-85 -254t-222 -93t-221 93t-84 253t86 251t223 91zM377 -59l-62 39l897 1310l60 -41zM430 608q145 0 145 310q1 164 -35 230t-114 66
t-112 -70t-34 -234q0 -166 36 -234q34 -68 114 -68zM432 1255q137 0 220 -90t83 -251t-85 -254t-222 -93t-221 93q-84 94 -84 254t86 250t223 91z" />
    <glyph glyph-name="ampersand" unicode="&#x26;" horiz-adv-x="1212" 
d="M1182 53q29 0 40 -10t11 -43h-289q-61 66 -90 100q-143 -120 -351 -120t-320 112q-111 112 -111 263t88 253t239 144q-73 154 -73 257t76 172q77 69 208 68q88 0 150 -54q62 -55 63 -145t-71 -172t-195 -114q121 -217 365 -504q98 170 98 397h-113v54h295q0 -35 -12 -45
t-45 -11l-64 -2l-120 -438q98 -111 145 -162h76zM549 41q156 0 272 98q-262 311 -399 568q-80 -25 -128 -104t-48 -189q0 -164 73 -269q74 -104 230 -104zM616 1198q-68 0 -110 -43t-43 -125q0 -82 69 -221q111 31 173 99q61 70 61 138t-41 110t-109 42z" />
    <glyph glyph-name="quotesingle" unicode="'" horiz-adv-x="387" 
d="M195 1341q43 1 67 -23t23 -57q0 -33 -30 -147t-34 -192h-55q-4 82 -34 194t-30 144q0 34 25 58t68 23z" />
    <glyph glyph-name="parenleft" unicode="(" horiz-adv-x="688" 
d="M639 1331l18 -51q-182 -68 -286 -287q-105 -219 -105 -484t102 -482t285 -283l-20 -51q-172 47 -295 173q-234 240 -236 638q0 291 140 524t397 303z" />
    <glyph glyph-name="parenright" unicode=")" horiz-adv-x="692" 
d="M590 504q0 -398 -236 -638q-123 -126 -295 -173l-20 51q182 66 285 283q102 217 102 482t-104 484t-287 287l18 51q257 -70 397 -303t140 -524z" />
    <glyph glyph-name="asterisk" unicode="*" horiz-adv-x="681" 
d="M268 1268q0 27 20 45t55 18q34 0 52 -18q19 -18 19 -44t-24 -107t-30 -132q33 25 76 72t74 75q65 58 111 1q20 -27 20 -57q1 -30 -27 -46q-28 -15 -108 -35t-127 -41q49 -20 128 -38t97 -29q35 -18 35 -52q-1 -34 -21 -60q-44 -52 -109 6q-34 30 -77 76t-74 69
q6 -53 31 -132t25 -106t-20 -45t-55 -18q-34 0 -52 18q-19 18 -19 44t24 107t30 132q-33 -25 -76 -72t-74 -75q-65 -58 -111 -1q-20 27 -20 57q-1 30 27 46t108 36t127 39q-49 21 -128 39t-97 29q-35 18 -35 52t20 59q43 54 107 -2q31 -27 74 -73t78 -73q-6 53 -30 131
t-24 105z" />
    <glyph glyph-name="plus" unicode="+" horiz-adv-x="960" 
d="M868 442h-342v-364h-92v364h-342v74h342v365h92v-365h342v-74z" />
    <glyph glyph-name="comma" unicode="," horiz-adv-x="395" 
d="M313 76q0 -141 -129 -275l-43 31q90 94 90 148q0 24 -40 32q-41 8 -65 34t-24 66t29 70t76 29q47 0 77 -38t29 -97z" />
    <glyph glyph-name="hyphen" unicode="-" horiz-adv-x="778" 
d="M102 410v82h574v-82h-574z" />
    <glyph glyph-name="period" unicode="." horiz-adv-x="413" 
d="M207 201q43 0 73 -31t31 -75q-1 -44 -31 -75q-30 -30 -73 -30t-74 30t-31 75q0 44 31 75t74 31z" />
    <glyph glyph-name="slash" unicode="/" horiz-adv-x="841" 
d="M123 -317h-123l698 1771h123z" />
    <glyph glyph-name="zero" unicode="0" horiz-adv-x="1071" 
d="M272 542q0 -276 68 -392t199 -117q131 0 195 123q64 124 65 400t-63 386t-197 111q-133 0 -200 -117q-67 -118 -67 -394zM543 1106q193 0 315 -144t121 -412q0 -268 -126 -420q-125 -150 -319 -150t-318 150t-124 416q0 268 129 414t322 146z" />
    <glyph glyph-name="one" unicode="1" horiz-adv-x="856" 
d="M561 1085v-1013l211 -17q31 -4 42 -15t11 -40h-708v53l280 19v886l-319 -204l-37 59l412 272h108z" />
    <glyph glyph-name="two" unicode="2" horiz-adv-x="958" 
d="M164 143h463q69 1 99 17t48 73l33 111h39l-4 -344h-781v41q0 84 43 154q42 69 106 113t140 96t139 102t107 130q43 80 43 184t-55 168t-168 65q-72 0 -107 -33t-42 -80t-11 -94q-10 -113 -104 -113q-41 0 -65 31t-24 78q0 124 112 194q111 70 267 70t264 -75t107 -218
q0 -98 -67 -189q-66 -91 -162 -156t-192 -120t-162 -108q-66 -54 -66 -97z" />
    <glyph glyph-name="three" unicode="3" horiz-adv-x="1019" 
d="M559 569q164 0 256 -102t92 -248q0 -147 -121 -265t-325 -118q-162 0 -271 72t-108 184q0 45 26 73t74 28t72 -32q25 -32 29 -77t11 -89t40 -76t98 -32q305 0 305 314q0 135 -66 221q-67 86 -175 86q-72 0 -146 -31l-45 37l371 428l-367 2q-49 -4 -75 -19t-41 -63
l-37 -114h-47l4 337h761v-41l-454 -491q76 16 139 16z" />
    <glyph glyph-name="four" unicode="4" horiz-adv-x="1015" 
d="M934 -143h-563v55h219v266l-557 2l-13 62q164 135 276 276q112 140 155 240t72 183q30 83 59 124t80 41q92 0 92 -96q0 -240 -643 -768l479 -2v237h12q39 1 54 17t28 67l21 78h40v-401h189v-62h-189v-264h140q31 0 40 -10t9 -45z" />
    <glyph glyph-name="five" unicode="5" horiz-adv-x="974" 
d="M903 233q0 -159 -118 -278t-330 -119q-162 0 -262 78t-101 178q0 100 96 101q95 0 105 -109q4 -45 10 -89t39 -76t98 -32q145 -1 219 93t74 237t-66 235q-67 91 -198 91t-225 -78l-68 51v567q358 -14 371 -14q129 -1 176 19t61 79h50q0 -159 -54 -205t-260 -47
q-113 0 -276 17v-395q116 77 282 77t272 -111t105 -270z" />
    <glyph glyph-name="six" unicode="6" horiz-adv-x="1036" 
d="M276 370q0 -160 66 -249q66 -88 188 -88t181 94t59 256t-68 240q-68 77 -174 77t-180 -85q-72 -85 -72 -245zM560 760q156 0 270 -102t114 -282q0 -181 -121 -289t-293 -107q-215 0 -321 164q-107 164 -107 450q0 285 128 470t364 185q141 0 236 -60t96 -153
q0 -46 -25 -74t-78 -28t-75 41t-20 90q1 49 -35 90t-117 41q-156 0 -218 -148q-53 -129 -69 -376q115 88 271 88z" />
    <glyph glyph-name="seven" unicode="7" horiz-adv-x="913" 
d="M304 -164q-54 0 -80 27t-25 71q0 90 123 296t469 706h-498q-70 0 -106 -18t-54 -78l-37 -115h-45l4 360h879v-41q-172 -256 -286 -481t-152 -350t-62 -218t-50 -126t-80 -33z" />
    <glyph glyph-name="eight" unicode="8" horiz-adv-x="1101" 
d="M193 305q0 -125 93 -197t224 -71q131 0 215 58t84 171q0 145 -195 251q-44 27 -88 49t-51 26q-141 -29 -211 -111t-71 -176zM326 1004q0 -117 96 -192t215 -134q94 39 143 115t49 157q1 114 -79 178t-188 64t-172 -50t-64 -138zM969 315q-1 -151 -133 -243t-309 -92
t-291 85t-113 236q0 106 68 198q69 91 217 130q-115 63 -179 133q-63 70 -63 168q0 147 109 233t263 86t258 -78t103 -219q0 -90 -51 -172t-154 -133q133 -73 204 -147t71 -185z" />
    <glyph glyph-name="nine" unicode="9" horiz-adv-x="1044" 
d="M266 756q0 -332 230 -332q116 0 186 77t70 225t-64 238t-188 89q-234 0 -234 -297zM432 -164q-138 0 -230 62q-91 62 -91 153q0 45 26 72q27 27 74 27t70 -27t25 -66t10 -77q7 -38 41 -64q34 -27 102 -27q289 0 299 576q-121 -103 -284 -103q-162 0 -272 98t-110 267
q0 168 115 273t293 106q210 0 326 -164t116 -442t-114 -463q-124 -201 -396 -201z" />
    <glyph glyph-name="colon" unicode=":" horiz-adv-x="425" 
d="M313 207q1 -41 -29 -71t-71 -30t-71 30t-29 71q0 41 29 71q30 30 71 30t71 -30q29 -30 29 -71zM313 686q1 -41 -29 -71q-30 -29 -71 -29t-71 30t-29 70q0 41 29 71q30 29 71 29t71 -29q29 -30 29 -71z" />
    <glyph glyph-name="semicolon" unicode=";" horiz-adv-x="395" 
d="M313 111q0 -141 -129 -275l-43 31q90 94 90 147q0 25 -40 33q-41 8 -65 34q-24 25 -24 65t29 70t76 30t77 -38t29 -97zM303 578q0 -41 -30 -71q-31 -30 -71 -30t-70 30t-30 71q0 40 30 70t71 30t71 -30t29 -70z" />
    <glyph glyph-name="less" unicode="&#x3c;" horiz-adv-x="946" 
d="M825 158l-733 295v57l737 295l25 -60l-647 -262l647 -260z" />
    <glyph glyph-name="equal" unicode="=" horiz-adv-x="960" 
d="M868 330h-776v73h776v-73zM868 555h-776v74h776v-74z" />
    <glyph glyph-name="greater" unicode="&#x3e;" horiz-adv-x="946" 
d="M121 805l733 -295v-57l-737 -295l-25 59l647 262l-647 260z" />
    <glyph glyph-name="question" unicode="?" horiz-adv-x="935" 
d="M426 201q44 0 74 -31t30 -75t-30 -75q-30 -30 -74 -30q-43 0 -74 30q-30 30 -30 75q0 44 30 75q31 31 74 31zM633 1024q0 172 -165 172q-87 0 -117 -42q-29 -42 -27 -92t-20 -92t-81 -42q-100 0 -100 101t104 161t253 59q149 1 249 -65t100 -195t-131 -243
q-55 -48 -110 -99t-93 -129t-38 -176h-62q0 176 84 314q35 56 70 108q84 126 84 260z" />
    <glyph glyph-name="at" unicode="@" horiz-adv-x="1824" 
d="M862 96q62 0 123 56t82 149v143q-166 -2 -255 -41t-89 -128t38 -134q39 -45 101 -45zM133 393q0 312 193 548q94 117 253 185t331 68q320 0 540 -183q106 -89 168 -237t63 -343t-113 -303t-259 -108q-98 0 -165 44t-79 122q-31 -72 -107 -118t-168 -45q-92 0 -160 53
q-67 53 -67 160q0 139 122 198t382 62v116q0 190 -172 191q-59 0 -87 -29q-28 -28 -30 -62t-22 -63t-62 -29q-77 1 -80 70q0 64 78 112t223 48q305 0 306 -281v-372q0 -125 106 -125q86 0 154 87q67 87 67 262t-54 315t-144 226q-185 176 -430 175q-158 -1 -282 -59
q-228 -107 -312 -378q-39 -121 -39 -256q1 -317 201 -519t491 -201q182 0 360 86l25 -52q-211 -108 -432 -108q-222 0 -400 88t-288 260t-111 395z" />
    <glyph glyph-name="A" unicode="A" horiz-adv-x="1255" 
d="M770 510l-192 496l-191 -496h383zM1255 0h-442v53h133l-153 398h-428l-154 -398h100q31 0 42 -11t12 -42h-365v53h129l459 1176h76l469 -1176h69q31 0 42 -11t11 -42z" />
    <glyph glyph-name="B" unicode="B" horiz-adv-x="1206" 
d="M643 639h-223v-586h233q123 0 194 91t71 211t-70 202t-205 82zM608 1176h-188v-482h184q116 0 182 71t66 175t-58 170t-186 66zM1036 950q0 -84 -60 -163t-163 -117q145 -25 223 -111t78 -199q0 -144 -120 -252t-330 -108h-582v53h164v1123h-164v53h575q183 0 281 -79
t98 -200z" />
    <glyph glyph-name="C" unicode="C" horiz-adv-x="1277" 
d="M102 596q0 144 39 255q39 112 114 201t195 143t265 54t251 -40t146 -79q0 72 11 90t51 19l6 -377h-50q-49 160 -153 245t-252 85q-182 0 -299 -146t-117 -430t109 -432q109 -147 301 -147q315 0 418 340h49v-387q-40 0 -52 18t-12 86q-190 -114 -392 -114t-347 94
t-213 236t-68 286z" />
    <glyph glyph-name="D" unicode="D" horiz-adv-x="1390" 
d="M647 1176h-227v-1123h233q199 0 315 136q116 135 116 437t-116 426t-321 124zM82 1229h571q261 0 443 -158t182 -452q0 -295 -185 -457t-446 -162h-565v53h164v1123h-164v53z" />
    <glyph glyph-name="E" unicode="E" horiz-adv-x="1138" 
d="M420 1176v-512h424v-60h-424v-551h330q92 -1 140 59t77 160l28 97h41l-10 -369h-944v53h164v1123h-164v53h944l10 -369h-41l-28 96q-63 219 -217 220h-330z" />
    <glyph glyph-name="F" unicode="F" horiz-adv-x="1056" 
d="M668 0h-586v53h164v1123h-164v53h944l10 -369h-41l-28 96q-63 219 -217 220h-330v-512h424v-60h-424v-551h248v-53z" />
    <glyph glyph-name="G" unicode="G" horiz-adv-x="1421" 
d="M850 553h510v-53h-154v-500l-174 63q-55 -37 -142 -61q-194 -52 -381 18q-240 91 -341 323q-55 127 -55 277t53 271q100 228 337 316q111 42 241 42t257 -63l179 37l10 -398h-53q-59 205 -145 286t-270 81q-183 0 -294 -138t-111 -440q0 -573 410 -573q86 0 169 36
t138 103v320h-184v53z" />
    <glyph glyph-name="H" unicode="H" horiz-adv-x="1470" 
d="M584 0h-502v53h164v1123h-164v53h502v-53h-164v-512h631v512h-164v53h502v-53h-164v-1123h110q31 0 42 -11t12 -42h-502v53h164v551h-631v-551h110q30 0 42 -11t12 -42z" />
    <glyph glyph-name="I" unicode="I" horiz-adv-x="665" 
d="M584 0h-502v53h164v1123h-164v53h502v-53h-164v-1123h110q30 0 42 -11t12 -42z" />
    <glyph glyph-name="J" unicode="J" horiz-adv-x="745" 
d="M674 1176h-164v-824q0 -199 -97 -294t-216 -95t-184 41t-64 100q0 37 25 64q26 27 69 27t67 -28t26 -63q6 -90 79 -90t97 76t24 242v844h-184v53h522v-53z" />
    <glyph glyph-name="K" unicode="K" horiz-adv-x="1298" 
d="M584 0h-502v53h164v1123h-164v53h502v-53h-164v-555l602 555h-164v53h369q1 -31 -11 -42t-48 -11t-65 -18q-28 -18 -83 -68l-365 -342l535 -695h55q31 0 42 -11t11 -42h-284l-486 631l-108 -103v-475h110q30 0 42 -11t12 -42z" />
    <glyph glyph-name="L" unicode="L" horiz-adv-x="1009" 
d="M82 0v53h164v1123h-164v53h512v-53h-174v-1123h282q92 1 140 61t71 158l35 138h41l-10 -410h-897z" />
    <glyph glyph-name="M" unicode="M" horiz-adv-x="1660" 
d="M1599 1229v-53h-163v-1123h110q31 0 42 -11t11 -42h-491v53h164v991l-473 -1054h-43l-449 946v-883h111q31 0 42 -11t11 -42h-410v53h164v1123h-164v53h293l475 -1004l443 1004h327z" />
    <glyph glyph-name="N" unicode="N" horiz-adv-x="1370" 
d="M930 1176v53h420v-53h-164v-1166l-94 -20l-805 1011v-948h121q31 0 42 -11t11 -42h-420v53h164v1123h-164v53h285l778 -973v920h-174z" />
    <glyph glyph-name="O" unicode="O" horiz-adv-x="1443" 
d="M725 37q182 0 292 143t109 443q0 569 -405 569q-182 0 -293 -138t-111 -440t113 -440q113 -137 295 -137zM748 1249q136 1 269 -67q134 -68 224 -216t90 -352q0 -290 -183 -462t-428 -172t-426 172t-181 471q0 147 53 268t140 198q86 77 196 119t246 41z" />
    <glyph glyph-name="P" unicode="P" horiz-adv-x="1150" 
d="M627 0h-545v53h164v1123h-164v53h606q199 0 300 -92q102 -92 102 -247t-127 -251t-361 -96h-182v-490h153q31 0 43 -11t11 -42zM645 1176h-225v-574h190q147 0 217 79t70 209t-63 208q-64 78 -189 78z" />
    <glyph glyph-name="Q" unicode="Q" horiz-adv-x="1447" 
d="M710 37q89 0 144 20q-78 115 -157 115t-156 -92q80 -43 169 -43zM701 244q118 0 237 -146q193 133 192 527q0 303 -109 435q-110 132 -294 132t-295 -138t-110 -438q0 -367 172 -503q89 131 207 131zM731 1249q244 0 424 -168t180 -460q0 -211 -96 -361t-252 -223
q51 -67 77 -97t71 -62t88 -32q96 0 202 129l43 -24q-106 -238 -270 -238q-100 0 -180 97q-18 24 -28 34t-27 38q-54 84 -72 120q-86 -23 -166 -22q-244 0 -426 172t-182 464q0 150 53 274q98 230 337 318q107 41 224 41z" />
    <glyph glyph-name="R" unicode="R" horiz-adv-x="1253" 
d="M627 1176h-207v-553h213q123 0 193 85q70 86 71 198t-69 191t-201 79zM584 0h-502v53h164v1123h-164v53h606q188 0 294 -94q106 -95 108 -215q0 -120 -77 -212t-216 -126l329 -529h78q31 0 40 -9t9 -44h-309l-328 563h-196v-510h164v-53z" />
    <glyph glyph-name="S" unicode="S" horiz-adv-x="1097" 
d="M995 322q0 -160 -132 -251q-131 -91 -327 -91t-352 104q0 -56 -10 -72t-51 -16v424h61q35 -383 348 -383q119 0 202 63t83 172q0 78 -51 136t-127 93t-165 75t-165 78t-127 109t-51 163q0 147 125 235t305 88t324 -80q0 43 11 57t50 13v-358h-61q2 151 -92 231
q-95 80 -219 80t-198 -57t-73 -151q0 -94 72 -156t173 -103q100 -41 202 -85t174 -124t71 -194z" />
    <glyph glyph-name="T" unicode="T" horiz-adv-x="1175" 
d="M864 0h-563v53h195v1123h-111q-172 0 -223 -213l-33 -138h-57l10 404h1012l10 -404h-57l-33 138q-51 213 -223 213h-121v-1123h141q31 0 42 -11t11 -42z" />
    <glyph glyph-name="U" unicode="U" horiz-adv-x="1294" 
d="M20 1176v53h500v-53h-162v-703q0 -231 85 -333t255 -103q350 0 351 430v709h-164v53h399v-53h-164v-697q0 -254 -110 -377t-348 -122q-477 0 -478 481v715h-164z" />
    <glyph glyph-name="V" unicode="V" horiz-adv-x="1181" 
d="M633 -10q-49 0 -72 26t-59 125l-389 1035h-123v53h463v-53h-164l370 -969l342 969h-163v53h344v-53h-103l-422 -1186h-24z" />
    <glyph glyph-name="W" unicode="W" horiz-adv-x="1699" 
d="M1176 0q-31 0 -46 20q-14 20 -43 103l-219 618l-266 -751h-16q-31 0 -50 26t-49 107l-376 1053h-121v53h450v-53h-166l347 -963l215 623l-140 393h351v-53h-166l329 -967l322 967h-164v53h332v-53h-103l-405 -1176h-16z" />
    <glyph glyph-name="X" unicode="X" horiz-adv-x="1239" 
d="M399 0h-379q0 31 12 42t42 11q86 0 127 58l350 479l-393 586h-127v53h479v-53h-148l304 -449l321 449h-164v53h357q0 -31 -12 -42t-46 -11q-36 0 -58 -12t-48 -46l-318 -440l422 -625h66q31 0 42 -11t11 -42h-477v53h149l-325 484l-350 -484h163v-53z" />
    <glyph glyph-name="Y" unicode="Y" horiz-adv-x="1134" 
d="M825 0h-501v53h163v436l-385 687h-112v53h461v-53h-156l328 -596l311 596h-164v53h365q1 -31 -11 -42t-49 -11t-61 -12t-43 -46l-309 -608v-457h110q31 0 42 -11t11 -42z" />
    <glyph glyph-name="Z" unicode="Z" horiz-adv-x="1126" 
d="M51 0v41l807 1135h-446q-106 0 -166 -134l-80 -184h-41l18 371h912v-43l-785 -1133h506q162 0 201 174l43 197h45l-4 -424h-1010z" />
    <glyph glyph-name="bracketleft" unicode="[" horiz-adv-x="716" 
d="M676 -279h-492v1600h492v-57h-330v-1481l330 -4v-58z" />
    <glyph glyph-name="backslash" unicode="\" horiz-adv-x="831" 
d="M657 -317l-698 1771h123l698 -1771h-123z" />
    <glyph glyph-name="bracketright" unicode="]" horiz-adv-x="743" 
d="M68 -279v58l329 4v1481h-329v57h491v-1600h-491z" />
    <glyph glyph-name="asciicircum" unicode="^" horiz-adv-x="1142" 
d="M184 680l369 598h37l368 -598l-57 -37l-330 535l-329 -535z" />
    <glyph glyph-name="underscore" unicode="_" horiz-adv-x="983" 
d="M20 -133v82h943v-82h-943z" />
    <glyph glyph-name="grave" unicode="`" horiz-adv-x="1024" 
d="M692 1024l-33 -35q-61 49 -170 115t-135 92t-24 58q0 32 29 61q30 29 64 29t57 -24q23 -23 90 -130t122 -166z" />
    <glyph glyph-name="a" unicode="a" horiz-adv-x="987" 
d="M396 61q75 -1 146 59t93 161v163q-207 -2 -304 -41t-97 -143t43 -152q44 -48 119 -47zM801 -20q-147 0 -168 184q-33 -80 -121 -132t-190 -52t-177 61q-74 61 -73 174q0 149 140 217t423 68v129q0 211 -199 211q-68 0 -104 -32t-41 -69t-25 -69t-59 -31q-39 0 -60 21
q-20 22 -20 55q0 70 86 123t246 53q330 0 329 -309v-432q0 -106 56 -107q68 0 80 152l53 -2q-10 -213 -176 -213z" />
    <glyph glyph-name="b" unicode="b" horiz-adv-x="1126" 
d="M627 809q-121 0 -195 -117t-74 -295t69 -272t183 -94t187 102q73 101 73 287t-61 288t-182 101zM627 -20q-201 0 -297 155l-19 -135h-258v51q90 0 122 22t32 101v1106h-154v51h307v-678q88 238 334 238q170 0 260 -132t90 -332t-125 -324q-126 -123 -292 -123z" />
    <glyph glyph-name="c" unicode="c" horiz-adv-x="890" 
d="M520 -20q-186 0 -312 120t-126 321q0 202 109 336q110 134 325 134q130 0 234 -65t104 -154q0 -37 -25 -62q-25 -26 -73 -22t-68 44t-19 86t-32 84t-109 38q-132 0 -202 -110t-70 -290t83 -292t206 -111q199 0 282 180l54 -18q-43 -103 -139 -161t-222 -58z" />
    <glyph glyph-name="d" unicode="d" horiz-adv-x="1122" 
d="M256 450q0 -186 61 -287t181 -101t196 116q74 117 74 295t-69 272q-69 95 -183 95t-186 -102q-74 -102 -74 -288zM82 410q0 197 108 339q110 142 292 142t280 -111v500h-195v51h348l5 -1280h102q31 0 41 -10t10 -41h-293l-16 217q-100 -238 -324 -237q-152 0 -255 116
t-103 314z" />
    <glyph glyph-name="e" unicode="e" horiz-adv-x="950" 
d="M512 -20q-182 0 -306 120t-124 320q0 201 108 336q109 135 316 135q158 0 266 -81t107 -196q0 -115 -105 -145q-86 -25 -272 -23l-246 5q4 -209 81 -311t208 -103q88 0 160 46t110 132l51 -18q-43 -105 -136 -161t-218 -56zM508 840q-100 0 -172 -85t-80 -247l217 -6
q131 -4 187 24t56 111t-54 143t-154 60z" />
    <glyph glyph-name="f" unicode="f" horiz-adv-x="622" 
d="M514 51q31 0 41 -10t10 -41h-502v51q90 0 122 22t32 101v645h-143v51h143v33q-1 229 103 333t247 105q102 0 168 -42t66 -99q-1 -32 -21 -54t-54 -22q-59 0 -91 83q-12 32 -41 58q-29 25 -75 25t-78 -33q-70 -72 -70 -374v-13h235v-51h-235v-768h143z" />
    <glyph glyph-name="g" unicode="g" horiz-adv-x="985" 
d="M203 -179q-1 -63 69 -110t206 -47t239 41q102 41 102 107t-44 89q-44 24 -140 25l-316 4q-27 0 -67 9q-49 -55 -49 -118zM473 891q109 0 199 -47q23 76 77 117t109 41t82 -30q27 -28 27 -60q0 -70 -60 -70q-20 0 -47 26q-28 26 -56 25q-28 0 -52 -23t-33 -57
q119 -93 119 -243t-109 -242t-260 -92l-180 2q-49 0 -74 -20t-25 -50q0 -78 97 -82l372 -8q258 -6 259 -207q0 -109 -113 -185t-303 -75q-190 0 -280 59q-89 60 -89 140t68 151q-88 53 -88 162q0 70 43 118t127 48q-80 45 -130 118t-51 158q0 147 110 237t261 89zM266 562
q0 -276 205 -275q203 0 203 276t-203 277q-205 -2 -205 -278z" />
    <glyph glyph-name="h" unicode="h" horiz-adv-x="1169" 
d="M475 51q31 0 41 -10t10 -41h-460v51q90 0 122 22t31 101v1106h-153v51h307v-657q39 104 129 160t198 57q108 0 185 -86q78 -86 78 -246v-508h102q31 0 41 -10t10 -41h-450v51q88 1 116 21t27 102v385q0 115 -55 177q-56 62 -144 62t-163 -80q-75 -81 -74 -224v-443h102z
" />
    <glyph glyph-name="i" unicode="i" horiz-adv-x="593" 
d="M403 1169q1 -47 -31 -79t-79 -33q-47 0 -80 33q-33 34 -33 80t33 79t79 33t78 -33t33 -80zM481 51q31 0 41 -10t10 -41h-471v51q92 0 128 22t36 101v645h-164v51h318v-819h102z" />
    <glyph glyph-name="j" unicode="j" horiz-adv-x="544" 
d="M68 870h317v-897q0 -184 -82 -273t-192 -89q-70 0 -121 36t-51 79q0 82 77 84q32 0 50 -24t21 -50q8 -73 60 -74q80 0 84 201v956h-163v51zM406 1169q0 -47 -32 -79t-79 -33q-47 0 -80 33q-33 34 -33 80t33 79t79 33t79 -33t33 -80z" />
    <glyph glyph-name="k" unicode="k" horiz-adv-x="1024" 
d="M463 51q31 0 41 -10t10 -41h-451v51q90 0 122 22t32 101v1106h-154v51h308v-895l413 383h-153v51h348q0 -31 -10 -41t-46 -10t-63 -15t-78 -65l-192 -180l328 -508h75q31 0 41 -10t10 -41h-272l-289 459l-112 -105v-303h92z" />
    <glyph glyph-name="l" unicode="l" horiz-adv-x="591" 
d="M485 51q31 0 41 -10t11 -41h-469v51q90 0 122 22t31 101v1106h-153v51h307v-1280h110z" />
    <glyph glyph-name="m" unicode="m" horiz-adv-x="1671" 
d="M903 668q89 223 303 223q102 0 180 -88t78 -244v-508h105q31 0 41 -10t10 -41h-453v51q88 1 116 21t28 102v406q0 108 -48 166t-120 58q-73 0 -139 -60q-66 -62 -89 -169v-524h93q31 0 41 -10t10 -41h-441v51q88 1 116 21t28 102v406q0 110 -45 166t-121 56t-150 -84
q-74 -85 -77 -224v-443h92q31 0 41 -11t10 -40h-451v51q90 0 122 22t32 101v645h-154v51h297l9 -204q43 111 126 168t169 57t152 -58t89 -165z" />
    <glyph glyph-name="n" unicode="n" horiz-adv-x="1163" 
d="M461 51q31 0 41 -10t10 -41h-451v51q90 0 122 22t32 101v645h-154v51h297l9 -204q43 111 129 168t192 57t189 -89q82 -89 81 -243v-508h103q31 0 41 -10t10 -41h-461v51q90 0 122 22t32 101v406q0 110 -53 166q-52 56 -140 56t-164 -82q-76 -83 -79 -226v-443h92z" />
    <glyph glyph-name="o" unicode="o" horiz-adv-x="1050" 
d="M530 891q178 0 308 -120t131 -333q0 -213 -133 -336q-134 -122 -312 -122t-310 124t-132 335q0 212 135 332t313 120zM256 436q0 -186 69 -296t203 -110t201 112q66 112 66 298t-66 292t-202 108q-135 0 -203 -109t-68 -295z" />
    <glyph glyph-name="p" unicode="p" horiz-adv-x="1126" 
d="M628 809q-120 0 -195 -112t-75 -299t70 -277t186 -90t186 104q70 105 70 291t-61 284t-181 99zM360 -338h144q31 0 41 -10t10 -41h-502v51q90 0 122 22t32 101v1034h-154v51h295l10 -223q42 125 134 184t204 60q170 0 259 -128t89 -308q0 -223 -128 -349t-290 -126
t-266 106v-424z" />
    <glyph glyph-name="q" unicode="q" horiz-adv-x="1126" 
d="M768 468q0 372 -246 372q-130 0 -198 -109t-68 -292t63 -280t183 -97t194 108q72 110 72 298zM82 418q0 218 123 346q123 127 291 127t280 -109l10 88h287v-51h-153v-1157h104q31 0 41 -10t10 -41h-504v51q115 0 155 22t40 101l2 416q-47 -109 -136 -165t-194 -56
q-150 0 -253 110t-103 328z" />
    <glyph glyph-name="r" unicode="r" horiz-adv-x="804" 
d="M520 51q31 0 41 -10t10 -41h-505v51q90 0 122 22t31 101v645h-153v51h296l9 -202q43 102 126 158t153 56t107 -30q38 -31 38 -76q0 -46 -23 -70q-24 -24 -64 -24t-75 60t-70 61q-51 1 -121 -99t-69 -245v-408h147z" />
    <glyph glyph-name="s" unicode="s" horiz-adv-x="819" 
d="M389 35q88 0 149 41q60 41 60 105q0 110 -175 180q-73 30 -145 64t-124 94q-52 61 -52 157t92 155t222 59q131 0 231 -56q0 41 11 55t44 14v-256h-53q0 190 -209 191q-88 0 -144 -36t-56 -100t51 -108q51 -43 124 -71q73 -29 147 -61t124 -92q51 -60 51 -147
q0 -121 -93 -182t-235 -61t-251 73q0 -39 -10 -51t-46 -12v311h58q0 -266 229 -266z" />
    <glyph glyph-name="t" unicode="t" horiz-adv-x="665" 
d="M41 819v51h143v195l154 43v-238h317v-51h-317v-622q0 -158 113 -158q49 0 89 45t60 139l55 -10q-45 -236 -235 -236q-236 0 -236 265v577h-143z" />
    <glyph glyph-name="u" unicode="u" horiz-adv-x="1161" 
d="M1055 51q31 0 41 -10t10 -41h-289l-14 209q-43 -113 -129 -171t-182 -58q-293 0 -293 352v487h-158v51h311v-569q0 -121 54 -177t146 -56q91 0 169 83t78 226v442h-168v51h321v-819h103z" />
    <glyph glyph-name="v" unicode="v" horiz-adv-x="950" 
d="M403 819h-143l262 -698l260 698h-153v51h315q0 -31 -10 -41t-40 -10t-46 -15t-33 -56l-289 -758h-26q-59 0 -89 26t-63 117l-250 686h-92v51h397v-51z" />
    <glyph glyph-name="w" unicode="w" horiz-adv-x="1400" 
d="M418 819h-154l260 -715l170 506l-92 260h313v-51h-143l242 -706l227 706h-143v51h303q0 -33 -12 -42t-41 -9t-43 -14t-29 -60l-248 -755h-33q-53 0 -79 26t-56 117l-137 393l-178 -536h-41q-53 0 -81 26t-63 117l-256 686h-92v51h406v-51z" />
    <glyph glyph-name="x" unicode="x" horiz-adv-x="888" 
d="M2 0q0 56 39 51q16 -2 45 12t55 50l236 307l-277 399h-100v51h410v-51h-138l211 -309l224 309h-144v51h307q0 -54 -42 -49q-17 2 -46 -13t-55 -50l-211 -295l283 -412h39q31 0 41 -10t10 -41h-381v51h125l-223 322l-244 -322h153v-51h-317z" />
    <glyph glyph-name="y" unicode="y" horiz-adv-x="991" 
d="M211 -326q72 0 134 74t138 252l-368 817h-101v53h400v-53h-138l281 -655l262 655h-149v53h311q0 -37 -10 -45t-43 -8t-46 -12t-30 -57l-303 -748q-90 -219 -180 -304t-195 -85q-72 0 -124 37t-52 92q0 31 20 51q20 21 56 21t56 -22q18 -22 24 -48q14 -68 57 -68z" />
    <glyph glyph-name="z" unicode="z" horiz-adv-x="864" 
d="M604 53q57 0 93 42t48 102l25 112h29l-6 -309h-748v45l576 782h-330q-88 0 -131 -100l-49 -113h-31l18 267h693v-43l-555 -785h368z" />
    <glyph glyph-name="braceleft" unicode="{" horiz-adv-x="819" 
d="M473 303v-309q0 -135 58 -175t247 -40v-58q-282 0 -356 42t-92 127q-10 48 -11 118v305q0 90 -30 128q-31 38 -125 59v43q94 20 125 58t30 128v305q0 142 49 198q28 32 71 57t143 28q100 4 196 4v-57q-188 0 -246 -40t-59 -175v-310q-1 -67 -25 -111t-52 -62t-79 -40v-10
q51 -23 79 -40t52 -62t25 -111z" />
    <glyph glyph-name="bar" unicode="|" horiz-adv-x="567" 
d="M225 -279v1610h117v-1610h-117z" />
    <glyph glyph-name="braceright" unicode="}" horiz-adv-x="798" 
d="M346 735v309q0 136 -58 176t-247 40v57q286 0 353 -40q79 -45 95 -129q10 -48 11 -118v-305q0 -90 30 -128t125 -58v-43q-94 -20 -125 -58t-30 -129v-305q0 -141 -48 -198q-28 -32 -69 -55q-60 -34 -342 -34v58q188 0 247 40q58 40 58 175v309q0 66 25 111t52 62
q28 17 79 40v10q-51 23 -79 40q-29 17 -53 62t-24 111z" />
    <glyph glyph-name="asciitilde" unicode="~" horiz-adv-x="1013" 
d="M326 633q78 0 209 -70t184 -69q109 0 164 139l49 -17q-26 -119 -92 -179t-143 -60q-77 1 -215 69t-195 68q-102 0 -156 -135l-49 16q34 121 100 179t144 59z" />
    <glyph glyph-name="uni00A0" unicode="&#xa0;" horiz-adv-x="409" 
 />
    <glyph glyph-name="exclamdown" unicode="&#xa1;" horiz-adv-x="520" 
d="M217 680q-43 0 -73 30t-31 75q0 44 30 75q31 31 74 31t74 -31t31 -75q0 -45 -31 -75t-74 -30zM184 539h62q0 -253 38 -487t38 -285q0 -135 -109 -136q-106 0 -107 131q0 53 39 291t39 486z" />
    <glyph glyph-name="cent" unicode="&#xa2;" horiz-adv-x="944" 
d="M256 578q0 -158 62 -264t159 -136v791q-109 -21 -165 -127t-56 -264zM82 554q0 190 100 324q100 132 295 144v145h60v-143q125 -6 221 -70t96 -149q0 -37 -25 -62t-69 -21q-77 6 -86 93q-4 37 -10 73t-36 60t-91 25v-805h8q94 0 169 48t115 134l54 -12
q-41 -104 -133 -162t-213 -63v-154h-60v156q-171 13 -283 131t-112 308z" />
    <glyph glyph-name="sterling" unicode="&#xa3;" horiz-adv-x="1175" 
d="M264 207q-48 0 -72 -24q-24 -23 -24 -55t20 -52t56 -19q38 0 76 32t53 89q-61 29 -109 29zM131 614v60h148q-31 109 -31 196q0 174 113 277q114 102 317 102q143 0 254 -62t110 -167q0 -49 -28 -80t-78 -31q-49 0 -74 30t-33 72t-18 83q-10 40 -47 70t-121 30t-139 -65
t-55 -226q0 -70 16 -229h323v-60h-317q12 -138 12 -222t-20 -171q215 -63 354 -63q217 0 264 149h43q0 -162 -81 -244t-209 -81q-52 0 -112 19q-106 33 -286 146q-68 -147 -196 -147q-61 0 -100 38q-38 38 -38 93t41 94t99 39t137 -20q0 124 -82 370h-166z" />
    <glyph glyph-name="currency" unicode="&#xa4;" horiz-adv-x="1234" 
d="M608 158q-154 0 -266 90l-172 -172l-51 49l174 174q-90 106 -90 268t88 275l-176 174l49 49l176 -174q114 96 274 96t269 -100l174 176l49 -51l-176 -176q80 -106 80 -263t-86 -266l178 -180l-49 -49l-176 178q-115 -98 -269 -98zM608 225q131 0 226 91q94 91 94 256
t-96 257q-96 93 -227 93q-130 0 -225 -92t-95 -257q0 -164 96 -256t227 -92z" />
    <glyph glyph-name="yen" unicode="&#xa5;" horiz-adv-x="1161" 
d="M842 0h-492v53h158l4 398h-276v59h276l2 102h-278v60h239l-321 504h-113v53h438v-53h-133l305 -484l289 484h-166v53h367q0 -53 -43 -53q-60 0 -80 -10t-41 -48l-266 -446h254v-60h-277l-2 -102h279v-59h-279l-4 -398h109q31 0 41 -10t10 -43z" />
    <glyph glyph-name="brokenbar" unicode="&#xa6;" horiz-adv-x="567" 
d="M342 -279h-117v687h117v-687zM342 645h-117v686h117v-686z" />
    <glyph glyph-name="section" unicode="&#xa7;" horiz-adv-x="952" 
d="M850 573q0 -80 -54 -129t-147 -67q135 -88 135 -207t-96 -179q-96 -61 -222 -61t-215 50t-89 128t80 78q70 0 81 -103q3 -38 41 -71q38 -32 116 -32t122 42q43 42 43 100t-55 103t-133 81t-156 75t-133 101t-55 143q0 150 196 192q-137 90 -137 207t95 178q95 62 223 62
t215 -47q88 -47 88 -126t-66 -79q-85 0 -90 101q-2 38 -40 70q-38 31 -117 31t-125 -42t-46 -100q-1 -58 55 -105t136 -81t160 -72t135 -99q55 -62 55 -142zM252 662q0 -41 36 -79t78 -60q42 -23 118 -59t116 -58q111 41 111 131q0 41 -36 77t-77 59t-120 59t-118 56
q-108 -36 -108 -126z" />
    <glyph glyph-name="dieresis" unicode="&#xa8;" horiz-adv-x="1024" 
d="M803 1168q0 -44 -30 -72t-73 -29q-42 0 -72 29q-30 28 -30 72t30 74t72 30t73 -30q30 -30 30 -74zM428 1169q0 -43 -30 -73t-72 -29q-42 0 -73 29q-30 28 -30 72t30 74t73 30q42 0 72 -30t30 -73z" />
    <glyph glyph-name="copyright" unicode="&#xa9;" horiz-adv-x="1353" 
d="M965 741q0 -67 -85 -67q-46 0 -68 33t-20 71t-23 71q-24 32 -81 32q-82 0 -129 -87t-47 -219q0 -131 54 -225t155 -94q147 0 211 133l43 -18q-37 -80 -112 -124t-173 -44q-166 0 -259 106t-93 254q0 149 93 259t257 110q113 0 195 -53t82 -138zM156 564q0 -224 145 -377
t375 -153t378 153q146 153 146 376t-146 375t-379 152t-376 -151t-143 -375zM1262 563q0 -246 -165 -415q-165 -168 -419 -168t-420 168t-166 415q0 246 165 414t420 168t420 -168t165 -414z" />
    <glyph glyph-name="ordfeminine" unicode="&#xaa;" horiz-adv-x="636" 
d="M485 678q-51 0 -84 30t-41 83q-49 -115 -172 -115q-66 0 -112 39t-45 119q0 80 78 118q78 37 253 37v55q0 143 -94 144q-37 0 -54 -22t-18 -48q-2 -26 -18 -46q-16 -22 -53 -21q-63 0 -63 56t56 89q58 33 144 33q223 0 223 -193v-250q0 -55 32 -55t40 78h39
q-6 -131 -111 -131zM231 741q43 0 79 39t52 97v71q-201 -2 -200 -110q-1 -97 69 -97zM571 500h-516v71h516v-71z" />
    <glyph glyph-name="guillemotleft" unicode="&#xab;" horiz-adv-x="847" 
d="M399 417q-1 35 23 61t151 147t187 184l37 -35q-55 -75 -132 -201q-77 -125 -96 -153q17 -25 101 -161t127 -193l-37 -33q-53 55 -181 174t-154 147t-26 63zM51 417q-1 35 23 61t151 147t187 184l37 -35q-55 -75 -132 -201q-77 -125 -96 -153q17 -25 101 -161t127 -193
l-37 -33q-54 55 -182 174t-154 147t-25 63z" />
    <glyph glyph-name="logicalnot" unicode="&#xac;" horiz-adv-x="1007" 
d="M823 242v364h-731v74h823v-438h-92z" />
    <glyph glyph-name="uni00AD" unicode="&#xad;" horiz-adv-x="778" 
d="M102 410v82h574v-82h-574z" />
    <glyph glyph-name="registered" unicode="&#xae;" horiz-adv-x="808" 
d="M356 1145v-162h52q29 0 48 23q19 24 19 58t-18 58t-49 23h-52zM356 948v-149h52v-31h-191v31h47v346h-47v31l209 -2q74 0 113 -31t39 -76q0 -86 -95 -113l99 -155h18q25 0 25 -29l-127 -4l-99 182h-43zM100 969q0 -131 88 -218t218 -87t216 87q87 87 87 217t-87 217
t-217 88q-129 1 -217 -86t-88 -218zM404 1315q152 1 253 -99t101 -248t-100 -247q-100 -98 -252 -98t-253 98t-102 248q1 150 101 248t252 98z" />
    <glyph glyph-name="macron" unicode="&#xaf;" horiz-adv-x="1024" 
d="M205 1106v102h614v-102h-614z" />
    <glyph glyph-name="degree" unicode="&#xb0;" horiz-adv-x="610" 
d="M508 1111q0 -83 -59 -140t-143 -57t-144 56q-60 58 -60 141t60 144t142 61q84 0 144 -60q60 -62 60 -145zM449 1112q0 60 -42 106q-41 46 -101 46t-102 -46t-42 -107q0 -62 42 -103t101 -41t102 42q42 42 42 103z" />
    <glyph glyph-name="plusminus" unicode="&#xb1;" horiz-adv-x="960" 
d="M868 74h-776v73h776v-73zM868 524h-342v-282h-92v282h-342v74h342v283h92v-283h342v-74z" />
    <glyph glyph-name="twosuperior" unicode="&#xb2;" horiz-adv-x="602" 
d="M156 788h268q58 0 78 10t35 42l20 51h25l-2 -217h-517v26q0 111 123 195q50 35 102 70q124 84 124 206q0 68 -26 99q-26 30 -84 30t-79 -29q-20 -30 -15 -66q5 -35 -11 -65t-66 -30q-70 0 -70 73t75 115t178 43q104 0 178 -45t74 -127t-64 -142t-142 -95
q-204 -91 -204 -144z" />
    <glyph glyph-name="threesuperior" unicode="&#xb3;" horiz-adv-x="641" 
d="M158 819q81 0 81 -96q-1 -37 16 -67t62 -29q164 0 164 204q0 154 -127 154q-45 0 -88 -20l-28 24l223 228h-205q-54 1 -74 -11t-28 -32l-25 -60h-31l4 215h496v-26l-283 -287q35 8 80 8q104 0 170 -51t66 -135q0 -117 -97 -183q-97 -65 -207 -65q-109 0 -177 41t-68 117
q0 31 19 51t57 20z" />
    <glyph glyph-name="acute" unicode="&#xb4;" horiz-adv-x="1024" 
d="M781 1254q0 -32 -26 -59q-27 -25 -135 -91t-169 -115l-33 35q55 60 122 166q66 106 90 130t58 24t63 -30q30 -28 30 -60z" />
    <glyph glyph-name="uni00B5" unicode="&#xb5;" horiz-adv-x="1161" 
d="M350 -225q0 -125 -87 -125t-87 121q0 18 11 234t12 323v489h-158v53h311v-569q0 -121 54 -177t146 -56q91 0 167 83t80 226v440h-168v53h321v-817h109q31 0 40 -9t9 -44h-293l-14 209q-49 -111 -129 -170t-166 -59q-123 0 -191 110q33 -266 33 -315z" />
    <glyph glyph-name="paragraph" unicode="&#xb6;" horiz-adv-x="1054" 
d="M717 143v1033h-105v-1057q0 -238 -39 -287q76 23 110 92t34 219zM434 -231q-94 0 -176 46t-82 115q0 45 29 74t78 29t77 -33t32 -73q13 -105 81 -105q47 0 65 52q17 52 17 224v342h-31q-198 0 -310 106t-112 279q0 172 130 288t378 116h414v-53h-164l4 -983
q0 -111 -37 -197t-98 -133t-131 -71t-164 -23z" />
    <glyph glyph-name="periodcentered" unicode="&#xb7;" horiz-adv-x="630" 
d="M426 475q0 -45 -33 -78t-78 -33t-77 34q-32 32 -33 77q0 45 33 78q34 33 78 33t77 -33t33 -78z" />
    <glyph glyph-name="cedilla" unicode="&#xb8;" horiz-adv-x="1024" 
d="M737 -281q-1 -82 -71 -133t-166 -51q-145 0 -213 109l32 24q61 -82 144 -82q51 0 86 37t35 99t-32 91t-85 29t-100 -35l-29 19l90 180h51l-59 -133q48 21 120 21t134 -46t63 -129z" />
    <glyph glyph-name="onesuperior" unicode="&#xb9;" horiz-adv-x="567" 
d="M406 1329v-600l106 -12q27 -4 36 -11t9 -32h-459v41l168 14v498l-194 -133l-31 45l270 190h95z" />
    <glyph glyph-name="ordmasculine" unicode="&#xba;" horiz-adv-x="610" 
d="M43 500v71h516v-71h-516zM303 1229q109 0 187 -73t79 -202q0 -130 -81 -204q-82 -74 -190 -74t-188 75t-79 203q-1 128 81 202q82 73 191 73zM168 952q0 -229 135 -229q73 0 101 60t28 172t-29 169t-104 58q-131 -1 -131 -230z" />
    <glyph glyph-name="guillemotright" unicode="&#xbb;" horiz-adv-x="847" 
d="M449 416q0 -34 -26 -62q-26 -30 -154 -148t-181 -173l-37 33q43 57 127 193t101 161q-174 281 -228 354l37 35q59 -63 186 -184t151 -148t24 -61zM797 416q0 -34 -26 -62q-26 -30 -154 -148t-181 -173l-37 33q43 57 127 193t101 161q-174 281 -228 354l37 35
q58 -63 186 -184t152 -148t23 -61z" />
    <glyph glyph-name="onequarter" unicode="&#xbc;" horiz-adv-x="1554" 
d="M1513 -113h-419v43h149v152l-354 2l-10 47q129 106 211 215q82 110 104 174t48 105q28 41 69 41q70 0 69 -70q0 -58 -43 -108t-71 -80t-76 -72q-47 -41 -79 -69q-32 -27 -87 -71t-80 -65l299 -2v150h10q33 2 49 16q15 14 31 53l15 37h30v-256h135v-47h-135v-152h95
q25 0 33 -8t7 -35zM686 655v-600l107 -12q27 -4 35 -11t10 -32h-459v41l168 14v498l-195 -133l-30 45l270 190h94zM-246 -59l-61 39l897 1310l59 -41z" />
    <glyph glyph-name="onehalf" unicode="&#xbd;" horiz-adv-x="1470" 
d="M993 115h269q57 0 77 9t35 42l21 51h24l-2 -217h-516v27q0 110 123 194l102 70t87 87t36 120q-1 68 -25 98t-83 31q-59 0 -79 -30t-16 -66q4 -35 -12 -65t-65 -30q-70 0 -70 73t75 116t178 43t177 -45t74 -127t-65 -143q-64 -60 -140 -95q-76 -36 -140 -74t-65 -69z
M686 655v-600l107 -12q27 -4 35 -11t10 -32h-459v41l168 14v498l-195 -133l-30 45l270 190h94zM-246 -59l-61 39l897 1310l59 -41z" />
    <glyph glyph-name="threequarters" unicode="&#xbe;" horiz-adv-x="1628" 
d="M1587 -113h-420v43h150v152l-354 2l-11 47q129 106 211 215q82 110 104 174t49 105q28 41 68 41q70 0 70 -70q0 -58 -43 -108q-120 -140 -310 -290q-58 -46 -83 -67l299 -2v150h10q33 2 48 16t32 53l14 37h31v-256h135v-47h-135v-152h94q25 0 33 -8t8 -35zM117 145
q81 0 80 -96t79 -96q39 0 76 14l-18 13l106 155v23q0 154 -127 153q-45 0 -88 -20l-28 24l223 228h-205q-57 1 -75 -11q-19 -12 -27 -32l-25 -60h-31l4 215h496v-26l-283 -287q35 8 80 8q119 0 189 -65l688 1005l59 -41l-706 -1034q6 -25 6 -51q0 -116 -97 -182t-207 -66
t-178 41t-67 117q0 31 19 51t57 20z" />
    <glyph glyph-name="questiondown" unicode="&#xbf;" horiz-adv-x="993" 
d="M492 891q44 0 74 -31t30 -75q0 -45 -31 -75t-73 -30t-74 30q-31 30 -31 75q0 44 31 75t74 31zM285 -143q0 -172 165 -172q86 0 116 42t28 92t19 92q22 42 81 42q100 1 100 -101t-104 -161t-253 -59t-249 65q-100 66 -100 194t131 243q55 48 111 99q55 51 93 129t38 177
h61q0 -181 -84 -315q-36 -56 -70 -108q-86 -129 -83 -259z" />
    <glyph glyph-name="Agrave" unicode="&#xc0;" horiz-adv-x="1255" 
d="M770 510l-192 496l-191 -496h383zM436 1520q0 34 30 62t64 28t56 -24q24 -24 91 -130q67 -107 122 -166l-33 -35q-61 49 -170 115q-108 66 -134 92t-26 58zM1255 0h-442v53h133l-153 398h-428l-154 -398h100q31 0 42 -11t12 -42h-365v53h129l459 1176h76l469 -1176h69
q31 0 42 -11t11 -42z" />
    <glyph glyph-name="Aacute" unicode="&#xc1;" horiz-adv-x="1255" 
d="M770 510l-192 496l-191 -496h383zM742 1610q34 0 64 -29t30 -61t-26 -59q-26 -25 -134 -91t-170 -115l-33 35q55 60 122 166t91 130q22 24 56 24zM1255 0h-442v53h133l-153 398h-428l-154 -398h100q31 0 42 -11t12 -42h-365v53h129l459 1176h76l469 -1176h69q31 0 42 -11
t11 -42z" />
    <glyph glyph-name="Acircumflex" unicode="&#xc2;" horiz-adv-x="1255" 
d="M770 510l-192 496l-191 -496h383zM623 1583q54 0 108 -64q23 -26 72 -87t94 -111l-25 -33q-90 63 -245 146q-133 -68 -250 -144l-25 29q43 49 92 111t71 89q54 64 108 64zM1255 0h-442v53h133l-153 398h-428l-154 -398h100q31 0 42 -11t12 -42h-365v53h129l459 1176h76
l469 -1176h69q31 0 42 -11t11 -42z" />
    <glyph glyph-name="Atilde" unicode="&#xc3;" horiz-adv-x="1255" 
d="M770 510l-192 496l-191 -496h383zM492 1450q-78 0 -109 -117l-41 10q45 220 182 220q60 -1 138 -61t118 -60q78 0 111 117l43 -11q-45 -219 -184 -219q-60 1 -138 61t-120 60zM1255 0h-442v53h133l-153 398h-428l-154 -398h100q31 0 42 -11t12 -42h-365v53h129l459 1176
h76l469 -1176h69q31 0 42 -11t11 -42z" />
    <glyph glyph-name="Adieresis" unicode="&#xc4;" horiz-adv-x="1255" 
d="M770 510l-192 496l-191 -496h383zM813 1538q43 0 73 -30t29 -73q1 -44 -29 -73t-73 -29t-73 29t-30 73q0 43 30 73t73 30zM541 1436q0 -43 -29 -73t-73 -30q-43 0 -73 29t-30 73q0 43 30 73t72 30t73 -30q30 -30 30 -72zM1255 0h-442v53h133l-153 398h-428l-154 -398h100
q31 0 42 -11t12 -42h-365v53h129l459 1176h76l469 -1176h69q31 0 42 -11t11 -42z" />
    <glyph glyph-name="Aring" unicode="&#xc5;" horiz-adv-x="1255" 
d="M770 510l-192 496l-191 -496h383zM631 1628q98 0 154 -51q57 -51 57 -133t-60 -136t-157 -54q-99 0 -155 52q-56 54 -56 137t59 134q60 51 158 51zM524 1441q0 -57 25 -99t77 -42t79 43t27 101t-26 97q-26 40 -78 40t-78 -41t-26 -99zM1255 0h-442v53h133l-153 398h-428
l-154 -398h100q31 0 42 -11t12 -42h-365v53h129l459 1176h76l469 -1176h69q31 0 42 -11t11 -42z" />
    <glyph glyph-name="AE" unicode="&#xc6;" horiz-adv-x="1781" 
d="M381 0h-381v53h123l721 1176h825l10 -369h-41l-28 96q-63 219 -217 220h-324v-512h418v-60h-418v-551h324q92 -1 140 59t77 160l28 97h41l-10 -369h-944v53h170v439h-414l-266 -439h117q31 0 40 -10t9 -43zM895 551v620l-377 -620h377z" />
    <glyph glyph-name="Ccedilla" unicode="&#xc7;" horiz-adv-x="1277" 
d="M938 -281q0 -82 -71 -133t-167 -51q-145 0 -213 109l33 24q61 -82 144 -82q51 0 86 37q34 37 34 99t-31 91q-32 29 -85 29t-101 -35l-28 19l79 162q-246 35 -380 216t-136 424q0 243 153 424q75 89 195 143t265 54t251 -40t146 -79q0 72 11 90t51 19l6 -377h-50
q-49 160 -153 245t-252 85q-182 0 -299 -146t-117 -430t109 -432q109 -147 301 -147q315 0 418 340h49v-387q-40 0 -52 18t-12 86q-190 -115 -395 -114q-39 0 -57 2l-49 -109q47 21 119 21t136 -46q62 -46 62 -129z" />
    <glyph glyph-name="Egrave" unicode="&#xc8;" horiz-adv-x="1138" 
d="M503 1610q34 0 57 -24t90 -130q67 -107 122 -166l-33 -35q-61 49 -170 115t-135 92t-24 58q0 34 30 62t63 28zM420 1176v-512h424v-60h-424v-551h330q92 -1 140 59t77 160l28 97h41l-10 -369h-944v53h164v1123h-164v53h944l10 -369h-41l-28 96q-63 219 -217 220h-330z
" />
    <glyph glyph-name="Eacute" unicode="&#xc9;" horiz-adv-x="1138" 
d="M716 1610q34 0 64 -29t29 -61q0 -32 -26 -59q-27 -25 -135 -91t-169 -115l-33 35q55 60 122 166q66 106 90 130t58 24zM420 1176v-512h424v-60h-424v-551h330q92 -1 140 59t77 160l28 97h41l-10 -369h-944v53h164v1123h-164v53h944l10 -369h-41l-28 96q-63 219 -217 220
h-330z" />
    <glyph glyph-name="Ecircumflex" unicode="&#xca;" horiz-adv-x="1138" 
d="M488 1519q54 64 107 64t110 -64q23 -26 71 -87t94 -111l-24 -33q-90 63 -246 146q-133 -68 -250 -144l-24 29q43 49 92 111t70 89zM420 1176v-512h424v-60h-424v-551h330q92 -1 140 59t77 160l28 97h41l-10 -369h-944v53h164v1123h-164v53h944l10 -369h-41l-28 96
q-63 219 -217 220h-330z" />
    <glyph glyph-name="Edieresis" unicode="&#xcb;" horiz-adv-x="1138" 
d="M786 1333q-42 0 -72 29t-30 73q0 43 30 73t72 30t73 -30q30 -30 30 -73q0 -44 -30 -73t-73 -29zM514 1436q0 -43 -30 -73t-72 -30t-73 29q-30 29 -30 73q0 43 30 73t73 30q42 0 72 -30t30 -72zM420 1176v-512h424v-60h-424v-551h330q92 -1 140 59t77 160l28 97h41
l-10 -369h-944v53h164v1123h-164v53h944l10 -369h-41l-28 96q-63 219 -217 220h-330z" />
    <glyph glyph-name="Igrave" unicode="&#xcc;" horiz-adv-x="665" 
d="M243 1610q34 0 57 -24t90 -130q67 -107 122 -166l-33 -35q-61 49 -170 115t-135 92t-24 58q0 34 30 62t63 28zM584 0h-502v53h164v1123h-164v53h502v-53h-164v-1123h110q30 0 42 -11t12 -42z" />
    <glyph glyph-name="Iacute" unicode="&#xcd;" horiz-adv-x="665" 
d="M456 1610q34 0 64 -29t29 -61q0 -32 -26 -59q-27 -25 -135 -91t-169 -115l-33 35q55 60 122 166q66 106 90 130t58 24zM584 0h-502v53h164v1123h-164v53h502v-53h-164v-1123h110q30 0 42 -11t12 -42z" />
    <glyph glyph-name="Icircumflex" unicode="&#xce;" horiz-adv-x="665" 
d="M228 1519q54 64 108 64t108 -64q23 -26 72 -87t94 -111l-24 -33q-90 63 -246 146q-133 -68 -250 -144l-24 29q43 49 92 111t70 89zM584 0h-502v53h164v1123h-164v53h502v-53h-164v-1123h110q30 0 42 -11t12 -42z" />
    <glyph glyph-name="Idieresis" unicode="&#xcf;" horiz-adv-x="665" 
d="M526 1333q-42 0 -72 29t-30 73q0 43 30 73t72 30t73 -30q30 -30 30 -73q0 -44 -30 -73t-73 -29zM254 1436q0 -43 -29 -73t-73 -30t-73 29q-30 29 -30 73q0 43 30 73t73 30q42 0 72 -30t30 -72zM584 0h-502v53h164v1123h-164v53h502v-53h-164v-1123h110q30 0 42 -11
t12 -42z" />
    <glyph glyph-name="Eth" unicode="&#xd0;" horiz-adv-x="1390" 
d="M676 594h-256v-541h233q199 0 315 136q116 135 116 437t-116 426t-321 124h-227v-500h256v-82zM82 1229h571q261 0 443 -158t182 -452q0 -295 -185 -457t-446 -162h-565v53h164v541h-144v82h144v500h-164v53z" />
    <glyph glyph-name="Ntilde" unicode="&#xd1;" horiz-adv-x="1370" 
d="M557 1450q-79 0 -108 -117l-41 10q45 220 182 220q61 -1 138 -61t118 -60q78 0 110 117l43 -11q-45 -219 -184 -219q-61 1 -138 61t-120 60zM930 1176v53h420v-53h-164v-1166l-94 -20l-805 1011v-948h121q31 0 42 -11t11 -42h-420v53h164v1123h-164v53h285l778 -973v920
h-174z" />
    <glyph glyph-name="Ograve" unicode="&#xd2;" horiz-adv-x="1443" 
d="M628 1610q34 0 57 -24t90 -130q67 -107 122 -166l-33 -35q-61 49 -170 115q-108 66 -134 92t-26 58q0 34 30 62t64 28zM725 37q182 0 292 143t109 443q0 569 -405 569q-182 0 -293 -138t-111 -440t113 -440q113 -137 295 -137zM748 1249q136 1 269 -67q134 -68 224 -216
t90 -352q0 -290 -183 -462t-428 -172t-426 172t-181 471q0 147 53 268t140 198q86 77 196 119t246 41z" />
    <glyph glyph-name="Oacute" unicode="&#xd3;" horiz-adv-x="1443" 
d="M841 1610q33 0 63 -29t30 -61t-26 -59q-26 -25 -134 -91t-170 -115l-33 35q55 60 122 166t91 130t57 24zM725 37q182 0 292 143t109 443q0 569 -405 569q-182 0 -293 -138t-111 -440t113 -440q113 -137 295 -137zM748 1249q136 1 269 -67q134 -68 224 -216t90 -352
q0 -290 -183 -462t-428 -172t-426 172t-181 471q0 147 53 268t140 198q86 77 196 119t246 41z" />
    <glyph glyph-name="Ocircumflex" unicode="&#xd4;" horiz-adv-x="1443" 
d="M613 1519q54 64 108 64t108 -64q23 -26 72 -87t94 -111l-24 -33q-90 63 -246 146q-133 -68 -250 -144l-24 29q43 49 92 111t70 89zM725 37q182 0 292 143t109 443q0 569 -405 569q-182 0 -293 -138t-111 -440t113 -440q113 -137 295 -137zM748 1249q136 1 269 -67
q134 -68 224 -216t90 -352q0 -290 -183 -462t-428 -172t-426 172t-181 471q0 147 53 268t140 198q86 77 196 119t246 41z" />
    <glyph glyph-name="Otilde" unicode="&#xd5;" horiz-adv-x="1443" 
d="M590 1450q-78 0 -109 -117l-41 10q46 220 183 220q61 -1 138 -61t118 -60q78 0 110 117l43 -11q-45 -219 -184 -219q-61 1 -138 61t-120 60zM725 37q182 0 292 143t109 443q0 569 -405 569q-182 0 -293 -138t-111 -440t113 -440q113 -137 295 -137zM748 1249
q136 1 269 -67q134 -68 224 -216t90 -352q0 -290 -183 -462t-428 -172t-426 172t-181 471q0 147 53 268t140 198q86 77 196 119t246 41z" />
    <glyph glyph-name="Odieresis" unicode="&#xd6;" horiz-adv-x="1443" 
d="M911 1333q-43 0 -73 29t-29 73q0 43 30 73q31 30 73 30t72 -30t30 -73q0 -44 -30 -73t-73 -29zM639 1436q0 -43 -29 -73q-28 -30 -72 -30t-74 29t-30 73q0 43 30 73t73 30t73 -30t29 -72zM725 37q182 0 292 143t109 443q0 569 -405 569q-182 0 -293 -138t-111 -440
t113 -440q113 -137 295 -137zM748 1249q136 1 269 -67q134 -68 224 -216t90 -352q0 -290 -183 -462t-428 -172t-426 172t-181 471q0 147 53 268t140 198q86 77 196 119t246 41z" />
    <glyph glyph-name="multiply" unicode="&#xd7;" horiz-adv-x="819" 
d="M670 162l-260 262l-260 -260l-56 55l260 260l-262 260l58 58l262 -260l260 260l55 -56l-260 -260l260 -262z" />
    <glyph glyph-name="Oslash" unicode="&#xd8;" horiz-adv-x="1443" 
d="M727 37q180 0 290 143t109 443q0 352 -155 485l-410 -1038q74 -33 166 -33zM721 1192q-182 0 -293 -138t-111 -458t148 -461l407 1032q-70 25 -151 25zM710 1249q98 0 185 -22l90 227h123l-107 -268q150 -72 240 -217t90 -355q0 -290 -183 -462t-427 -172q-88 0 -184 26
l-127 -323h-123l145 368q-145 76 -232 222t-87 350q0 147 53 268t140 198q86 77 196 119t208 41z" />
    <glyph glyph-name="Ugrave" unicode="&#xd9;" horiz-adv-x="1294" 
d="M595 1610q34 0 57 -24t90 -130q67 -107 122 -166l-33 -35q-61 49 -169 115t-135 92q-25 26 -25 58q0 34 30 62t63 28zM20 1176v53h500v-53h-162v-703q0 -231 85 -333t255 -103q350 0 351 430v709h-164v53h399v-53h-164v-697q0 -254 -110 -377t-348 -122q-477 0 -478 481
v715h-164z" />
    <glyph glyph-name="Uacute" unicode="&#xda;" horiz-adv-x="1294" 
d="M808 1610q34 0 64 -29t29 -61q0 -32 -26 -59q-27 -25 -135 -91t-169 -115l-32 35q55 60 121 166t91 130q23 24 57 24zM20 1176v53h500v-53h-162v-703q0 -231 85 -333t255 -103q350 0 351 430v709h-164v53h399v-53h-164v-697q0 -254 -110 -377t-348 -122q-477 0 -478 481
v715h-164z" />
    <glyph glyph-name="Ucircumflex" unicode="&#xdb;" horiz-adv-x="1294" 
d="M688 1583q28 0 58 -19q28 -19 51 -45t71 -87t95 -111l-25 -33q-90 63 -246 146q-133 -68 -250 -144l-24 29q43 49 92 111t71 89q23 26 51 45t56 19zM20 1176v53h500v-53h-162v-703q0 -231 85 -333t255 -103q350 0 351 430v709h-164v53h399v-53h-164v-697
q0 -254 -110 -377t-348 -122q-477 0 -478 481v715h-164z" />
    <glyph glyph-name="Udieresis" unicode="&#xdc;" horiz-adv-x="1294" 
d="M879 1538q43 0 73 -30t29 -73q0 -44 -30 -73q-31 -29 -73 -29t-72 29t-30 73q0 43 30 73t73 30zM606 1436q0 -43 -28 -73t-73 -30q-44 0 -74 29t-30 73q0 43 30 73t73 30q42 0 72 -30t30 -72zM20 1176v53h500v-53h-162v-703q0 -231 85 -333t255 -103q350 0 351 430v709
h-164v53h399v-53h-164v-697q0 -254 -110 -377t-348 -122q-477 0 -478 481v715h-164z" />
    <glyph glyph-name="Yacute" unicode="&#xdd;" horiz-adv-x="1134" 
d="M712 1610q34 0 64 -29t29 -61q0 -32 -26 -59q-27 -25 -135 -91t-169 -115l-33 35q55 60 122 166q66 106 90 130t58 24zM825 0h-501v53h163v436l-385 687h-112v53h461v-53h-156l328 -596l311 596h-164v53h365q1 -31 -11 -42t-49 -11t-61 -12t-43 -46l-309 -608v-457h110
q31 0 42 -11t11 -42z" />
    <glyph glyph-name="Thorn" unicode="&#xde;" horiz-adv-x="1198" 
d="M596 0h-524v53h170v1123h-170v53h524v-53h-180v-193h268q199 0 300 -92t101 -247t-127 -251t-360 -96h-182v-244h129q31 0 41 -10t10 -43zM641 930h-225v-574h190q147 0 217 79t70 209q1 130 -63 208t-189 78z" />
    <glyph glyph-name="germandbls" unicode="&#xdf;" horiz-adv-x="1112" 
d="M1071 244q0 -121 -90 -192q-90 -70 -205 -70q-114 0 -196 43t-82 110q0 33 20 55t58 21q68 0 90 -92q8 -35 36 -64t86 -29q57 0 99 50q41 48 41 118t-38 119t-92 87t-110 78q-131 95 -131 222q0 62 38 106t83 66t83 70q38 49 38 134q1 84 -55 146t-158 62t-158 -92
q-55 -92 -55 -309v-883h-310v53q156 0 156 107v657h-145v53h145v33q0 219 108 321q109 102 269 103q160 0 261 -69t101 -173q0 -73 -40 -123t-88 -72q-50 -22 -90 -59t-40 -87t38 -93t92 -80t110 -78q55 -43 93 -107t38 -142z" />
    <glyph glyph-name="agrave" unicode="&#xe0;" horiz-adv-x="987" 
d="M305 1254q0 32 30 61q29 29 63 29t58 -24q24 -23 90 -130q67 -107 122 -166l-33 -35q-61 49 -170 115t-135 92t-25 58zM396 61q75 -1 146 59t93 161v163q-207 -2 -304 -41t-97 -143t43 -152q44 -48 119 -47zM801 -20q-147 0 -168 184q-33 -80 -121 -132t-190 -52t-177 61
q-74 61 -73 174q0 149 140 217t423 68v129q0 211 -199 211q-68 0 -104 -32t-41 -69t-25 -69t-59 -31q-39 0 -60 21q-20 22 -20 55q0 70 86 123t246 53q330 0 329 -309v-432q0 -106 56 -107q68 0 80 152l53 -2q-10 -213 -176 -213z" />
    <glyph glyph-name="aacute" unicode="&#xe1;" horiz-adv-x="987" 
d="M705 1254q0 -32 -26 -59q-27 -25 -135 -91t-169 -115l-33 35q55 60 122 166q66 106 90 130t58 24t63 -30q30 -28 30 -60zM396 61q75 -1 146 59t93 161v163q-207 -2 -304 -41t-97 -143t43 -152q44 -48 119 -47zM801 -20q-147 0 -168 184q-33 -80 -121 -132t-190 -52
t-177 61q-74 61 -73 174q0 149 140 217t423 68v129q0 211 -199 211q-68 0 -104 -32t-41 -69t-25 -69t-59 -31q-39 0 -60 21q-20 22 -20 55q0 70 86 123t246 53q330 0 329 -309v-432q0 -106 56 -107q68 0 80 152l53 -2q-10 -213 -176 -213z" />
    <glyph glyph-name="acircumflex" unicode="&#xe2;" horiz-adv-x="987" 
d="M741 1022q-90 63 -245 145q-133 -68 -250 -143l-25 29q43 49 92 111t71 88q53 63 107 64t109 -64q23 -26 72 -87t94 -110zM396 61q75 -1 146 59t93 161v163q-207 -2 -304 -41t-97 -143t43 -152q44 -48 119 -47zM801 -20q-147 0 -168 184q-33 -80 -121 -132t-190 -52
t-177 61q-74 61 -73 174q0 149 140 217t423 68v129q0 211 -199 211q-68 0 -104 -32t-41 -69t-25 -69t-59 -31q-39 0 -60 21q-20 22 -20 55q0 70 86 123t246 53q330 0 329 -309v-432q0 -106 56 -107q68 0 80 152l53 -2q-10 -213 -176 -213z" />
    <glyph glyph-name="atilde" unicode="&#xe3;" horiz-adv-x="987" 
d="M393 1296q61 0 138 -60t118 -60q78 0 111 116l43 -10q-45 -219 -185 -219q-61 0 -138 60q-77 61 -119 61q-41 0 -67 -28t-42 -89l-41 10q45 219 182 219zM396 61q75 -1 146 59t93 161v163q-207 -2 -304 -41t-97 -143t43 -152q44 -48 119 -47zM801 -20q-147 0 -168 184
q-33 -80 -121 -132t-190 -52t-177 61q-74 61 -73 174q0 149 140 217t423 68v129q0 211 -199 211q-68 0 -104 -32t-41 -69t-25 -69t-59 -31q-39 0 -60 21q-20 22 -20 55q0 70 86 123t246 53q330 0 329 -309v-432q0 -106 56 -107q68 0 80 152l53 -2q-10 -213 -176 -213z" />
    <glyph glyph-name="adieresis" unicode="&#xe4;" horiz-adv-x="987" 
d="M682 1272q42 0 72 -30t30 -74t-30 -72t-72 -29q-43 0 -73 29q-29 28 -29 72t29 74q30 30 73 30zM410 1169q0 -43 -29 -73t-73 -29q-44 0 -74 29q-30 28 -30 72t30 74t73 30t73 -30t30 -73zM396 61q75 -1 146 59t93 161v163q-207 -2 -304 -41t-97 -143t43 -152
q44 -48 119 -47zM801 -20q-147 0 -168 184q-33 -80 -121 -132t-190 -52t-177 61q-74 61 -73 174q0 149 140 217t423 68v129q0 211 -199 211q-68 0 -104 -32t-41 -69t-25 -69t-59 -31q-39 0 -60 21q-20 22 -20 55q0 70 86 123t246 53q330 0 329 -309v-432q0 -106 56 -107
q68 0 80 152l53 -2q-10 -213 -176 -213z" />
    <glyph glyph-name="aring" unicode="&#xe5;" horiz-adv-x="987" 
d="M500 1362q98 0 154 -51t56 -133t-58 -136q-60 -54 -158 -55q-98 0 -155 53q-56 52 -56 136t59 135q60 51 158 51zM393 1175q0 -57 25 -99t77 -42q53 0 79 43t26 101t-26 97q-26 40 -78 40t-77 -41q-26 -41 -26 -99zM396 61q75 -1 146 59t93 161v163q-207 -2 -304 -41
t-97 -143t43 -152q44 -48 119 -47zM801 -20q-147 0 -168 184q-33 -80 -121 -132t-190 -52t-177 61q-74 61 -73 174q0 149 140 217t423 68v129q0 211 -199 211q-68 0 -104 -32t-41 -69t-25 -69t-59 -31q-39 0 -60 21q-20 22 -20 55q0 70 86 123t246 53q330 0 329 -309v-432
q0 -106 56 -107q68 0 80 152l53 -2q-10 -213 -176 -213z" />
    <glyph glyph-name="ae" unicode="&#xe6;" horiz-adv-x="1497" 
d="M401 61q78 -1 151 59t95 161v163q-211 -2 -312 -41t-101 -143t44 -152q45 -48 123 -47zM1059 -20q-293 0 -377 247q-31 -98 -128 -173q-97 -74 -215 -74t-193 61t-74 174q0 149 142 217t433 68v129q0 104 -54 157q-53 54 -137 54t-120 -32t-44 -69q-6 -37 -26 -69
t-59 -31q-39 0 -60 21q-20 22 -20 55q0 70 87 123t251 53q221 0 289 -137q111 137 284 137q172 0 280 -81t108 -196t-105 -145q-86 -25 -272 -23l-246 5q4 -209 81 -311t208 -103q88 0 160 46t110 132l53 -10q-41 -109 -134 -167t-222 -58zM1053 840q-102 0 -172 -84
t-78 -248l217 -6q131 -4 187 24q57 28 57 111t-54 143t-157 60z" />
    <glyph glyph-name="ccedilla" unicode="&#xe7;" horiz-adv-x="890" 
d="M82 438q0 186 109 319q110 134 325 134q130 0 234 -65t104 -154q0 -37 -25 -62q-25 -26 -73 -22t-68 44t-19 86t-32 84t-109 38q-132 0 -202 -110t-70 -290t83 -292t206 -111q199 0 282 180l54 -18q-43 -103 -139 -161t-222 -58q-37 0 -53 2l-49 -109q48 21 120 21
t134 -46t63 -129q-1 -82 -71 -133t-166 -51q-145 0 -213 109l32 24q61 -82 144 -82q51 0 86 37t35 99t-32 91t-85 29t-100 -35l-29 19l82 164q-150 34 -243 148t-93 300z" />
    <glyph glyph-name="egrave" unicode="&#xe8;" horiz-adv-x="950" 
d="M649 1024l-33 -35q-61 49 -170 115q-108 66 -134 92t-26 58t30 61t64 29t57 -24q23 -23 90 -130t122 -166zM512 -20q-182 0 -306 120t-124 320q0 201 108 336q109 135 316 135q158 0 266 -81t107 -196q0 -115 -105 -145q-86 -25 -272 -23l-246 5q4 -209 81 -311t208 -103
q88 0 160 46t110 132l51 -18q-43 -105 -136 -161t-218 -56zM508 840q-100 0 -172 -85t-80 -247l217 -6q131 -4 187 24t56 111t-54 143t-154 60z" />
    <glyph glyph-name="eacute" unicode="&#xe9;" horiz-adv-x="950" 
d="M686 1254q0 -32 -26 -59q-26 -25 -134 -91t-170 -115l-32 35q56 60 122 166t90 130t57 24t63 -30q30 -28 30 -60zM512 -20q-182 0 -306 120t-124 320q0 201 108 336q109 135 316 135q158 0 266 -81t107 -196q0 -115 -105 -145q-86 -25 -272 -23l-246 5q4 -209 81 -311
t208 -103q88 0 160 46t110 132l51 -18q-43 -105 -136 -161t-218 -56zM508 840q-100 0 -172 -85t-80 -247l217 -6q131 -4 187 24t56 111t-54 143t-154 60z" />
    <glyph glyph-name="ecircumflex" unicode="&#xea;" horiz-adv-x="950" 
d="M723 1022q-90 63 -246 145q-133 -68 -250 -143l-24 29q43 49 92 111t71 88q84 100 164 46q28 -20 52 -46t72 -87t94 -110zM512 -20q-182 0 -306 120t-124 320q0 201 108 336q109 135 316 135q158 0 266 -81t107 -196q0 -115 -105 -145q-86 -25 -272 -23l-246 5
q4 -209 81 -311t208 -103q88 0 160 46t110 132l51 -18q-43 -105 -136 -161t-218 -56zM508 840q-100 0 -172 -85t-80 -247l217 -6q131 -4 187 24t56 111t-54 143t-154 60z" />
    <glyph glyph-name="edieresis" unicode="&#xeb;" horiz-adv-x="950" 
d="M664 1272q42 0 72 -30t30 -74t-30 -72t-72 -29q-42 0 -73 29q-30 28 -30 72t30 74t73 30zM391 1169q0 -43 -30 -73q-31 -30 -73 -29q-42 0 -72 29q-30 28 -30 72t30 74t73 30t73 -30t29 -73zM512 -20q-182 0 -306 120t-124 320q0 201 108 336q109 135 316 135
q158 0 266 -81t107 -196q0 -115 -105 -145q-86 -25 -272 -23l-246 5q4 -209 81 -311t208 -103q88 0 160 46t110 132l51 -18q-43 -105 -136 -161t-218 -56zM508 840q-100 0 -172 -85t-80 -247l217 -6q131 -4 187 24t56 111t-54 143t-154 60z" />
    <glyph glyph-name="igrave" unicode="&#xec;" horiz-adv-x="587" 
d="M106 1254q0 32 30 61t64 29t57 -24q23 -23 90 -130t122 -166l-33 -35q-61 49 -170 115q-108 66 -134 92t-26 58zM487 53q31 0 40 -10t10 -43h-476v53q156 0 156 107v657h-156v53h320v-817h106z" />
    <glyph glyph-name="iacute" unicode="&#xed;" horiz-adv-x="587" 
d="M506 1254q0 -32 -26 -59q-26 -25 -134 -91t-170 -115l-33 35q55 60 122 166t91 130t57 24t63 -30q30 -28 30 -60zM487 53q31 0 40 -10t10 -43h-476v53q156 0 156 107v657h-156v53h320v-817h106z" />
    <glyph glyph-name="icircumflex" unicode="&#xee;" horiz-adv-x="587" 
d="M543 1022q-90 63 -246 145q-133 -68 -250 -143l-24 29q43 49 92 111t70 88q53 63 107 64t109 -64q23 -26 72 -87t94 -110zM487 53q31 0 40 -10t10 -43h-476v53q156 0 156 107v657h-156v53h320v-817h106z" />
    <glyph glyph-name="idieresis" unicode="&#xef;" horiz-adv-x="587" 
d="M487 53q31 0 40 -10t10 -43h-476v53q156 0 156 107v657h-156v53h320v-817h106zM463 1272q43 0 73 -30t29 -74q1 -44 -29 -72t-73 -29q-43 0 -73 29q-30 28 -30 72t30 74t73 30zM231 1169q1 -43 -29 -73t-73 -29q-43 0 -73 29q-30 28 -30 72t30 74t73 30t73 -30t29 -73z
" />
    <glyph glyph-name="eth" unicode="&#xf0;" horiz-adv-x="1062" 
d="M528 774q-120 0 -196 -94t-76 -271q0 -176 69 -277t203 -101q134 1 204 115q69 114 69 278t-76 257t-197 93zM971 486q0 -208 -115 -357q-115 -150 -332 -149q-178 0 -310 116t-132 308t134 307t310 114q123 0 222 -59q-51 229 -181 362l-268 -153l-33 57l250 142
q-121 92 -285 102l7 55q201 -8 362 -112l211 118l31 -53l-187 -106q152 -120 234 -302t82 -390z" />
    <glyph glyph-name="ntilde" unicode="&#xf1;" horiz-adv-x="1163" 
d="M481 1296q61 0 139 -60t117 -60q78 0 111 116l43 -10q-45 -219 -184 -219q-61 0 -139 60t-119 61q-78 0 -109 -117l-41 10q45 219 182 219zM461 51q31 0 41 -10t10 -41h-451v51q90 0 122 22t32 101v645h-154v51h297l9 -204q43 111 129 168t192 57t189 -89q82 -89 81 -243
v-508h103q31 0 41 -10t10 -41h-461v51q90 0 122 22t32 101v406q0 110 -53 166q-52 56 -140 56t-164 -82q-76 -83 -79 -226v-443h92z" />
    <glyph glyph-name="ograve" unicode="&#xf2;" horiz-adv-x="1050" 
d="M348 1254q0 32 30 61t64 29t56 -24q24 -23 91 -130t122 -166l-33 -35q-61 49 -170 115q-108 66 -134 92t-26 58zM530 891q178 0 308 -120t131 -333q0 -213 -133 -336q-134 -122 -312 -122t-310 124t-132 335q0 212 135 332t313 120zM256 436q0 -186 69 -296t203 -110
t201 112q66 112 66 298t-66 292t-202 108q-135 0 -203 -109t-68 -295z" />
    <glyph glyph-name="oacute" unicode="&#xf3;" horiz-adv-x="1050" 
d="M748 1254q0 -32 -26 -59q-26 -25 -134 -91t-170 -115l-33 35q55 60 122 166t91 130t56 24q34 0 64 -30q30 -28 30 -60zM530 891q178 0 308 -120t131 -333q0 -213 -133 -336q-134 -122 -312 -122t-310 124t-132 335q0 212 135 332t313 120zM256 436q0 -186 69 -296
t203 -110t201 112q66 112 66 298t-66 292t-202 108q-135 0 -203 -109t-68 -295z" />
    <glyph glyph-name="ocircumflex" unicode="&#xf4;" horiz-adv-x="1050" 
d="M784 1022q-90 63 -245 145q-133 -68 -250 -143l-25 29q43 49 92 111t71 88q53 63 107 64t109 -64q23 -26 72 -87t94 -110zM530 891q178 0 308 -120t131 -333q0 -213 -133 -336q-134 -122 -312 -122t-310 124t-132 335q0 212 135 332t313 120zM256 436q0 -186 69 -296
t203 -110t201 112q66 112 66 298t-66 292t-202 108q-135 0 -203 -109t-68 -295z" />
    <glyph glyph-name="otilde" unicode="&#xf5;" horiz-adv-x="1050" 
d="M436 1296q61 0 138 -60t118 -60q78 0 111 116l43 -10q-45 -219 -184 -219q-60 0 -138 60q-78 61 -120 61t-68 -28t-41 -89l-41 10q45 219 182 219zM530 891q178 0 308 -120t131 -333q0 -213 -133 -336q-134 -122 -312 -122t-310 124t-132 335q0 212 135 332t313 120z
M256 436q0 -186 69 -296t203 -110t201 112q66 112 66 298t-66 292t-202 108q-135 0 -203 -109t-68 -295z" />
    <glyph glyph-name="odieresis" unicode="&#xf6;" horiz-adv-x="1050" 
d="M725 1272q43 0 73 -30t29 -74q1 -44 -29 -72t-73 -29q-43 0 -73 29q-30 28 -30 72t30 74t73 30zM453 1169q0 -43 -30 -73t-73 -29q-42 0 -72 29q-30 28 -30 72t30 74t72 30t73 -30q30 -30 30 -73zM530 891q178 0 308 -120t131 -333q0 -213 -133 -336q-134 -122 -312 -122
t-310 124t-132 335q0 212 135 332t313 120zM256 436q0 -186 69 -296t203 -110t201 112q66 112 66 298t-66 292t-202 108q-135 0 -203 -109t-68 -295z" />
    <glyph glyph-name="divide" unicode="&#xf7;" horiz-adv-x="960" 
d="M385 778q0 45 34 78t79 33t79 -33q33 -33 33 -78t-34 -78q-34 -32 -79 -32q-46 0 -79 32t-33 78zM385 158q0 45 34 78q34 32 79 32t79 -32q33 -32 33 -78q0 -45 -34 -78t-79 -33q-46 0 -79 33t-33 78zM868 442h-776v74h776v-74z" />
    <glyph glyph-name="oslash" unicode="&#xf8;" horiz-adv-x="1050" 
d="M530 31q133 -1 199 111t66 272t-33 254l-471 -461q65 -176 239 -176zM256 436q0 -86 16 -164l463 451q-68 117 -206 117q-137 0 -205 -109t-68 -295zM82 444q0 207 135 327t305 120t289 -94l150 145l43 -39l-152 -147q117 -121 117 -326t-133 -328q-133 -122 -321 -122
t-316 139l-140 -137l-43 41l146 141q-80 119 -80 280z" />
    <glyph glyph-name="ugrave" unicode="&#xf9;" horiz-adv-x="1161" 
d="M393 1254q0 32 30 61q29 29 63 29t58 -24q24 -23 90 -130q67 -107 122 -166l-33 -35q-61 49 -170 115t-135 92t-25 58zM1055 51q31 0 41 -10t10 -41h-289l-14 209q-43 -113 -129 -171t-182 -58q-293 0 -293 352v487h-158v51h311v-569q0 -121 54 -177t146 -56q91 0 169 83
t78 226v442h-168v51h321v-819h103z" />
    <glyph glyph-name="uacute" unicode="&#xfa;" horiz-adv-x="1161" 
d="M793 1254q0 -32 -26 -59q-27 -25 -135 -91t-169 -115l-33 35q55 60 122 166q66 106 90 130t58 24t63 -30q30 -28 30 -60zM1055 51q31 0 41 -10t10 -41h-289l-14 209q-43 -113 -129 -171t-182 -58q-293 0 -293 352v487h-158v51h311v-569q0 -121 54 -177t146 -56
q91 0 169 83t78 226v442h-168v51h321v-819h103z" />
    <glyph glyph-name="ucircumflex" unicode="&#xfb;" horiz-adv-x="1161" 
d="M829 1022q-90 63 -245 145q-133 -68 -250 -143l-25 29q43 49 92 111t71 88q53 63 107 64t109 -64q23 -26 72 -87t94 -110zM1055 51q31 0 41 -10t10 -41h-289l-14 209q-43 -113 -129 -171t-182 -58q-293 0 -293 352v487h-158v51h311v-569q0 -121 54 -177t146 -56
q91 0 169 83t78 226v442h-168v51h321v-819h103z" />
    <glyph glyph-name="udieresis" unicode="&#xfc;" horiz-adv-x="1161" 
d="M770 1272q42 0 72 -30t30 -74t-30 -72t-72 -29q-43 0 -73 29q-29 28 -29 72t29 74q30 30 73 30zM498 1169q0 -43 -30 -73t-73 -29q-43 0 -73 29q-30 28 -29 72q0 44 30 74q31 30 73 30t72 -30t30 -73zM1055 51q31 0 41 -10t10 -41h-289l-14 209q-43 -113 -129 -171
t-182 -58q-293 0 -293 352v487h-158v51h311v-569q0 -121 54 -177t146 -56q91 0 169 83t78 226v442h-168v51h321v-819h103z" />
    <glyph glyph-name="yacute" unicode="&#xfd;" horiz-adv-x="991" 
d="M781 1254q0 -32 -26 -59q-27 -25 -135 -91t-169 -115l-33 35q55 60 122 166q66 106 90 130t58 24t63 -30q30 -28 30 -60zM211 -326q72 0 134 74t138 252l-368 817h-101v53h400v-53h-138l281 -655l262 655h-149v53h311q0 -37 -10 -45t-43 -8t-46 -12t-30 -57l-303 -748
q-90 -219 -180 -304t-195 -85q-72 0 -124 37t-52 92q0 31 20 51q20 21 56 21t56 -22q18 -22 24 -48q14 -68 57 -68z" />
    <glyph glyph-name="thorn" unicode="&#xfe;" horiz-adv-x="1140" 
d="M628 31q116 0 186 104q70 105 71 291t-61 284t-182 99q-120 0 -195 -112t-75 -299t70 -277t186 -90zM375 -336h147q31 0 40 -10t9 -43h-505v53q86 0 120 20t35 87v1507h-160v53h312v-684q41 125 133 184t205 60q170 0 259 -128t89 -308q0 -223 -128 -349t-291 -126
t-265 106v-422z" />
    <glyph glyph-name="ydieresis" unicode="&#xff;" horiz-adv-x="991" 
d="M803 1168q0 -44 -30 -72t-73 -29q-42 0 -72 29q-30 28 -30 72t30 74t72 30t73 -30q30 -30 30 -74zM428 1169q0 -43 -30 -73t-72 -29q-42 0 -73 29q-30 28 -30 72t30 74t73 30q42 0 72 -30t30 -73zM211 -326q72 0 134 74t138 252l-368 817h-101v53h400v-53h-138l281 -655
l262 655h-149v53h311q0 -37 -10 -45t-43 -8t-46 -12t-30 -57l-303 -748q-90 -219 -180 -304t-195 -85q-72 0 -124 37t-52 92q0 31 20 51q20 21 56 21t56 -22q18 -22 24 -48q14 -68 57 -68z" />
    <glyph glyph-name="Amacron" unicode="&#x100;" horiz-adv-x="1255" 
d="M770 510l-192 496l-191 -496h383zM322 1372v103h614v-103h-614zM1255 0h-442v53h133l-153 398h-428l-154 -398h100q31 0 42 -11t12 -42h-365v53h129l459 1176h76l469 -1176h69q31 0 42 -11t11 -42z" />
    <glyph glyph-name="amacron" unicode="&#x101;" horiz-adv-x="987" 
d="M190 1106v102h615v-102h-615zM396 61q75 -1 146 59t93 161v163q-207 -2 -304 -41t-97 -143t43 -152q44 -48 119 -47zM801 -20q-147 0 -168 184q-33 -80 -121 -132t-190 -52t-177 61q-74 61 -73 174q0 149 140 217t423 68v129q0 211 -199 211q-68 0 -104 -32t-41 -69
t-25 -69t-59 -31q-39 0 -60 21q-20 22 -20 55q0 70 86 123t246 53q330 0 329 -309v-432q0 -106 56 -107q68 0 80 152l53 -2q-10 -213 -176 -213z" />
    <glyph glyph-name="Abreve" unicode="&#x102;" horiz-adv-x="1255" 
d="M770 510l-192 496l-191 -496h383zM623 1442q182 0 208 133h43q0 -113 -61 -189t-188 -76t-190 76q-62 76 -62 189h41q27 -133 209 -133zM1255 0h-442v53h133l-153 398h-428l-154 -398h100q31 0 42 -11t12 -42h-365v53h129l459 1176h76l469 -1176h69q31 0 42 -11t11 -42z
" />
    <glyph glyph-name="abreve" unicode="&#x103;" horiz-adv-x="987" 
d="M492 1176q182 0 208 133h43q0 -113 -61 -189t-188 -76t-190 76q-62 76 -62 189h41q27 -133 209 -133zM396 61q75 -1 146 59t93 161v163q-207 -2 -304 -41t-97 -143t43 -152q44 -48 119 -47zM801 -20q-147 0 -168 184q-33 -80 -121 -132t-190 -52t-177 61q-74 61 -73 174
q0 149 140 217t423 68v129q0 211 -199 211q-68 0 -104 -32t-41 -69t-25 -69t-59 -31q-39 0 -60 21q-20 22 -20 55q0 70 86 123t246 53q330 0 329 -309v-432q0 -106 56 -107q68 0 80 152l53 -2q-10 -213 -176 -213z" />
    <glyph glyph-name="Aogonek" unicode="&#x104;" horiz-adv-x="1255" 
d="M770 510l-192 496l-191 -496h383zM1255 0h-22q-96 -37 -147 -101q-50 -65 -50 -128q0 -102 86 -103q57 0 113 47l25 -30q-74 -76 -174 -76t-152 44q-53 43 -53 111t66 134q67 66 202 102h-336v53h133l-153 398h-428l-154 -398h100q31 0 42 -11t12 -42h-365v53h129
l459 1176h76l469 -1176h69q31 0 42 -11t11 -42z" />
    <glyph glyph-name="aogonek" unicode="&#x105;" horiz-adv-x="987" 
d="M823 -332q57 0 113 47l25 -30q-73 -76 -173 -76t-153 44t-53 107q0 64 51 122t155 98q-135 8 -155 184q-33 -80 -121 -132t-190 -52t-177 61q-74 61 -73 174q0 149 140 217t423 68v129q0 211 -199 211q-68 0 -104 -32t-41 -69t-25 -69t-59 -31q-39 0 -60 21
q-20 22 -20 55q0 70 86 123t246 53q330 0 329 -309v-432q0 -106 56 -107q68 0 80 152l53 -2q-6 -129 -64 -179q5 2 11 2t8 2l2 -18q-96 -37 -147 -101q-50 -65 -50 -128q0 -103 86 -103zM396 61q75 -1 146 59t93 161v163q-207 -2 -304 -41t-97 -143t43 -152q44 -48 119 -47z
" />
    <glyph glyph-name="Cacute" unicode="&#x106;" horiz-adv-x="1277" 
d="M786 1753q34 0 63 -29q30 -29 30 -61t-26 -58q-27 -26 -135 -92t-169 -114l-33 35q55 59 122 165q66 106 90 130t58 24zM102 596q0 144 39 255q39 112 114 201t195 143t265 54t251 -40t146 -79q0 72 11 90t51 19l6 -377h-50q-49 160 -153 245t-252 85q-182 0 -299 -146
t-117 -430t109 -432q109 -147 301 -147q315 0 418 340h49v-387q-40 0 -52 18t-12 86q-190 -114 -392 -114t-347 94t-213 236t-68 286z" />
    <glyph glyph-name="cacute" unicode="&#x107;" horiz-adv-x="890" 
d="M713 1254q0 -32 -26 -59q-27 -25 -135 -91t-169 -115l-33 35q55 60 122 166q66 106 90 130t58 24t63 -30q30 -28 30 -60zM520 -20q-186 0 -312 120t-126 321q0 202 109 336q110 134 325 134q130 0 234 -65t104 -154q0 -37 -25 -62q-25 -26 -73 -22t-68 44t-19 86t-32 84
t-109 38q-132 0 -202 -110t-70 -290t83 -292t206 -111q199 0 282 180l54 -18q-43 -103 -139 -161t-222 -58z" />
    <glyph glyph-name="Ccaron" unicode="&#x10c;" horiz-adv-x="1277" 
d="M669 1436q-58 0 -115 67q-24 27 -78 93t-99 114l26 35q84 -59 265 -154q133 68 264 152l26 -31q-45 -51 -98 -117q-53 -67 -76 -93q-57 -66 -115 -66zM102 596q0 144 39 255q39 112 114 201t195 143t265 54t251 -40t146 -79q0 72 11 90t51 19l6 -377h-50
q-49 160 -153 245t-252 85q-182 0 -299 -146t-117 -430t109 -432q109 -147 301 -147q315 0 418 340h49v-387q-40 0 -52 18t-12 86q-190 -114 -392 -114t-347 94t-213 236t-68 286z" />
    <glyph glyph-name="ccaron" unicode="&#x10d;" horiz-adv-x="890" 
d="M503 1026q-57 0 -115 68q-24 26 -78 92t-99 114l27 35q84 -57 264 -153q133 68 264 151l27 -30q-45 -51 -99 -117t-76 -92q-58 -68 -115 -68zM520 -20q-186 0 -312 120t-126 321q0 202 109 336q110 134 325 134q130 0 234 -65t104 -154q0 -37 -25 -62q-25 -26 -73 -22
t-68 44t-19 86t-32 84t-109 38q-132 0 -202 -110t-70 -290t83 -292t206 -111q199 0 282 180l54 -18q-43 -103 -139 -161t-222 -58z" />
    <glyph glyph-name="Dcaron" unicode="&#x10e;" horiz-adv-x="1390" 
d="M682 1292q-32 0 -62 20t-54 48q-24 26 -78 92t-99 115l27 35q84 -57 264 -154q133 68 264 151l27 -30q-45 -51 -99 -117t-76 -92t-52 -48q-30 -20 -62 -20zM647 1176h-227v-1123h233q199 0 315 136q116 135 116 437t-116 426t-321 124zM82 1229h571q261 0 443 -158
t182 -452q0 -295 -185 -457t-446 -162h-565v53h164v1123h-164v53z" />
    <glyph glyph-name="dcaron" unicode="&#x10f;" horiz-adv-x="1122" 
d="M1212 1206q0 -156 -141 -301l-49 33q100 104 100 164q0 27 -45 36t-71 37q-26 27 -27 71q0 44 32 77q31 33 83 33t85 -41t33 -109zM256 450q0 -186 61 -287t181 -101t196 116q74 117 74 295t-69 272q-69 95 -183 95t-186 -102q-74 -102 -74 -288zM82 410q0 197 108 339
q110 142 292 142t280 -111v500h-195v51h348l5 -1280h102q31 0 41 -10t10 -41h-293l-16 217q-100 -238 -324 -237q-152 0 -255 116t-103 314z" />
    <glyph glyph-name="Dcroat" unicode="&#x110;" horiz-adv-x="1390" 
d="M676 594h-256v-541h233q199 0 315 136q116 135 116 437t-116 426t-321 124h-227v-500h256v-82zM82 1229h571q261 0 443 -158t182 -452q0 -295 -185 -457t-446 -162h-565v53h164v541h-144v82h144v500h-164v53z" />
    <glyph glyph-name="dcroat" unicode="&#x111;" horiz-adv-x="1122" 
d="M256 450q0 -186 61 -287t181 -101t196 116q74 117 74 295t-69 272q-69 95 -183 95t-186 -102q-74 -102 -74 -288zM375 1042v68h387v170h-195v51h348v-221h156v-68h-156l5 -991h102q31 0 41 -10t10 -41h-293l-16 217q-100 -238 -324 -237q-152 0 -255 116t-103 314
q0 197 108 339q110 142 292 142t280 -111v262h-387z" />
    <glyph glyph-name="Emacron" unicode="&#x112;" horiz-adv-x="1138" 
d="M295 1372v103h614v-103h-614zM420 1176v-512h424v-60h-424v-551h330q92 -1 140 59t77 160l28 97h41l-10 -369h-944v53h164v1123h-164v53h944l10 -369h-41l-28 96q-63 219 -217 220h-330z" />
    <glyph glyph-name="emacron" unicode="&#x113;" horiz-adv-x="950" 
d="M172 1106v102h614v-102h-614zM512 -20q-182 0 -306 120t-124 320q0 201 108 336q109 135 316 135q158 0 266 -81t107 -196q0 -115 -105 -145q-86 -25 -272 -23l-246 5q4 -209 81 -311t208 -103q88 0 160 46t110 132l51 -18q-43 -105 -136 -161t-218 -56zM508 840
q-100 0 -172 -85t-80 -247l217 -6q131 -4 187 24t56 111t-54 143t-154 60z" />
    <glyph glyph-name="Edotaccent" unicode="&#x116;" horiz-adv-x="1138" 
d="M709 1436q0 -47 -32 -80t-79 -33t-80 33t-33 80t33 80q33 32 79 32t79 -32t33 -80zM420 1176v-512h424v-60h-424v-551h330q92 -1 140 59t77 160l28 97h41l-10 -369h-944v53h164v1123h-164v53h944l10 -369h-41l-28 96q-63 219 -217 220h-330z" />
    <glyph glyph-name="edotaccent" unicode="&#x117;" horiz-adv-x="950" 
d="M586 1169q0 -47 -32 -79t-79 -33q-47 0 -80 33q-33 34 -33 80t33 79t79 33t79 -33t33 -80zM512 -20q-182 0 -306 120t-124 320q0 201 108 336q109 135 316 135q158 0 266 -81t107 -196q0 -115 -105 -145q-86 -25 -272 -23l-246 5q4 -209 81 -311t208 -103q88 0 160 46
t110 132l51 -18q-43 -105 -136 -161t-218 -56zM508 840q-100 0 -172 -85t-80 -247l217 -6q131 -4 187 24t56 111t-54 143t-154 60z" />
    <glyph glyph-name="Eogonek" unicode="&#x118;" horiz-adv-x="1138" 
d="M420 1176v-512h424v-60h-424v-551h330q92 -1 140 59t77 160l28 97h41l-10 -369h-18q-96 -37 -147 -101q-50 -65 -50 -128q0 -102 86 -103q57 0 113 47l24 -30q-74 -76 -173 -76t-152 44q-53 43 -53 111t66 134q67 66 202 102h-842v53h164v1123h-164v53h944l10 -369h-41
l-28 96q-63 219 -217 220h-330z" />
    <glyph glyph-name="eogonek" unicode="&#x119;" horiz-adv-x="950" 
d="M664 -332q57 0 112 47l25 -30q-73 -76 -173 -76t-153 44q-53 45 -53 117t88 145t262 103l2 -18q-96 -38 -146 -102t-50 -127q0 -103 86 -103zM512 -20q-182 0 -306 120t-124 320q0 201 108 336q109 135 316 135q158 0 266 -81t107 -196q0 -115 -105 -145
q-86 -25 -272 -23l-246 5q4 -209 81 -311t208 -103q88 0 160 46t110 132l51 -18q-43 -105 -136 -161t-218 -56zM508 840q-100 0 -172 -85t-80 -247l217 -6q131 -4 187 24t56 111t-54 143t-154 60z" />
    <glyph glyph-name="Ecaron" unicode="&#x11a;" horiz-adv-x="1138" 
d="M600 1292q-32 0 -62 20t-54 48q-24 26 -78 92t-99 115l27 35q84 -57 264 -154q133 68 264 151l27 -30q-45 -51 -98 -117t-76 -92t-53 -48q-30 -20 -62 -20zM420 1176v-512h424v-60h-424v-551h330q92 -1 140 59t77 160l28 97h41l-10 -369h-944v53h164v1123h-164v53h944
l10 -369h-41l-28 96q-63 219 -217 220h-330z" />
    <glyph glyph-name="ecaron" unicode="&#x11b;" horiz-adv-x="950" 
d="M477 1026q-31 0 -61 20t-55 48q-23 26 -77 92t-100 114l27 35q84 -57 264 -153q133 68 264 151l27 -30q-45 -51 -98 -117t-76 -92q-24 -26 -54 -48q-30 -20 -61 -20zM512 -20q-182 0 -306 120t-124 320q0 201 108 336q109 135 316 135q158 0 266 -81t107 -196
q0 -115 -105 -145q-86 -25 -272 -23l-246 5q4 -209 81 -311t208 -103q88 0 160 46t110 132l51 -18q-43 -105 -136 -161t-218 -56zM508 840q-100 0 -172 -85t-80 -247l217 -6q131 -4 187 24t56 111t-54 143t-154 60z" />
    <glyph glyph-name="Gbreve" unicode="&#x11e;" horiz-adv-x="1421" 
d="M715 1442q182 0 209 133h43q1 -113 -61 -189t-189 -76t-190 76q-62 76 -62 189h41q27 -133 209 -133zM850 553h510v-53h-154v-500l-174 63q-55 -37 -142 -61q-194 -52 -381 18q-240 91 -341 323q-55 127 -55 277t53 271q100 228 337 316q111 42 241 42t257 -63l179 37
l10 -398h-53q-59 205 -145 286t-270 81q-183 0 -294 -138t-111 -440q0 -573 410 -573q86 0 169 36t138 103v320h-184v53z" />
    <glyph glyph-name="gbreve" unicode="&#x11f;" horiz-adv-x="985" 
d="M496 1176q182 0 209 133h43q0 -113 -62 -189t-188 -76q-127 0 -190 76q-62 76 -62 189h41q27 -133 209 -133zM203 -179q-1 -63 69 -110t206 -47t239 41q102 41 102 107t-44 89q-44 24 -140 25l-316 4q-27 0 -67 9q-49 -55 -49 -118zM473 891q109 0 199 -47q23 76 77 117
t109 41t82 -30q27 -28 27 -60q0 -70 -60 -70q-20 0 -47 26q-28 26 -56 25q-28 0 -52 -23t-33 -57q119 -93 119 -243t-109 -242t-260 -92l-180 2q-49 0 -74 -20t-25 -50q0 -78 97 -82l372 -8q258 -6 259 -207q0 -109 -113 -185t-303 -75q-190 0 -280 59q-89 60 -89 140
t68 151q-88 53 -88 162q0 70 43 118t127 48q-80 45 -130 118t-51 158q0 147 110 237t261 89zM266 562q0 -276 205 -275q203 0 203 276t-203 277q-205 -2 -205 -278z" />
    <glyph glyph-name="uni0122" unicode="&#x122;" horiz-adv-x="1421" 
d="M834 -223q0 -156 -142 -301l-49 32q100 104 100 164q0 27 -45 36q-46 9 -72 37t-26 72t32 77q32 32 84 32t85 -40t33 -109zM850 553h510v-53h-154v-500l-174 63q-55 -37 -142 -61q-194 -52 -381 18q-240 91 -341 323q-55 127 -55 277t53 271q100 228 337 316
q111 42 241 42t257 -63l179 37l10 -398h-53q-59 205 -145 286t-270 81q-183 0 -294 -138t-111 -440q0 -573 410 -573q86 0 169 36t138 103v320h-184v53z" />
    <glyph glyph-name="uni0123" unicode="&#x123;" horiz-adv-x="985" 
d="M381 1247q0 156 141 301l49 -32q-100 -104 -100 -164q0 -27 45 -36t72 -37q26 -28 26 -72t-32 -77q-32 -32 -83 -32q-52 0 -85 40t-33 109zM203 -179q-1 -63 69 -110t206 -47t239 41q102 41 102 107t-44 89q-44 24 -140 25l-316 4q-27 0 -67 9q-49 -55 -49 -118zM473 891
q109 0 199 -47q23 76 77 117t109 41t82 -30q27 -28 27 -60q0 -70 -60 -70q-20 0 -47 26q-28 26 -56 25q-28 0 -52 -23t-33 -57q119 -93 119 -243t-109 -242t-260 -92l-180 2q-49 0 -74 -20t-25 -50q0 -78 97 -82l372 -8q258 -6 259 -207q0 -109 -113 -185t-303 -75
q-190 0 -280 59q-89 60 -89 140t68 151q-88 53 -88 162q0 70 43 118t127 48q-80 45 -130 118t-51 158q0 147 110 237t261 89zM266 562q0 -276 205 -275q203 0 203 276t-203 277q-205 -2 -205 -278z" />
    <glyph glyph-name="Imacron" unicode="&#x12a;" horiz-adv-x="665" 
d="M35 1372v103h614v-103h-614zM584 0h-502v53h164v1123h-164v53h502v-53h-164v-1123h110q30 0 42 -11t12 -42z" />
    <glyph glyph-name="imacron" unicode="&#x12b;" horiz-adv-x="587" 
d="M487 53q31 0 40 -10t10 -43h-476v53q156 0 156 107v657h-156v53h320v-817h106zM53 1106v102h492v-102h-492z" />
    <glyph glyph-name="Iogonek" unicode="&#x12e;" horiz-adv-x="665" 
d="M584 1176h-164v-1123h110q31 0 42 -11t12 -42q-96 -37 -147 -101q-50 -65 -50 -128q0 -102 86 -103q57 0 113 47l24 -30q-74 -76 -173 -76t-152 44q-53 43 -53 111t66 134q67 66 202 102h-418v53h164v1123h-164v53h502v-53z" />
    <glyph glyph-name="iogonek" unicode="&#x12f;" horiz-adv-x="587" 
d="M406 1169q0 -47 -32 -79t-79 -33q-47 0 -80 33q-33 34 -33 80t33 79t79 33t79 -33t33 -80zM487 53q31 0 40 -10t10 -43q-96 -37 -147 -101q-50 -65 -50 -128q0 -102 86 -103q57 0 113 47l24 -30q-74 -76 -173 -76t-152 44q-54 43 -54 111t67 134t202 102h-392v53
q156 0 156 107v657h-156v53h320v-817h106z" />
    <glyph glyph-name="Idotaccent" unicode="&#x130;" horiz-adv-x="665" 
d="M449 1436q0 -47 -32 -80t-79 -33t-80 33t-33 80t33 80q33 32 79 32t79 -32t33 -80zM584 0h-502v53h164v1123h-164v53h502v-53h-164v-1123h110q30 0 42 -11t12 -42z" />
    <glyph glyph-name="dotlessi" unicode="&#x131;" horiz-adv-x="587" 
d="M487 53q31 0 40 -10t10 -43h-476v53q156 0 156 107v657h-156v53h320v-817h106z" />
    <glyph glyph-name="uni0136" unicode="&#x136;" horiz-adv-x="1310" 
d="M584 0h-502v53h164v1123h-164v53h502v-53h-164v-555l602 555h-164v53h369q1 -31 -11 -42t-48 -11t-65 -18q-28 -18 -83 -68l-365 -342l535 -695h55q31 0 42 -11t11 -42h-284l-486 631l-108 -103v-475h110q30 0 42 -11t12 -42zM852 -223q0 -156 -141 -301l-49 32
q100 104 100 164q0 27 -45 36t-72 37t-27 72t32 77q32 32 84 32t85 -40t33 -109z" />
    <glyph glyph-name="uni0137" unicode="&#x137;" horiz-adv-x="1024" 
d="M709 -223q0 -156 -142 -301l-49 32q100 104 100 164q0 27 -45 36t-71 37t-27 72q0 44 32 77q32 32 84 32t85 -40t33 -109zM463 51q31 0 41 -10t10 -41h-451v51q90 0 122 22t32 101v1106h-154v51h308v-895l413 383h-153v51h348q0 -31 -10 -41t-46 -10t-63 -15t-78 -65
l-192 -180l328 -508h75q31 0 41 -10t10 -41h-272l-289 459l-112 -105v-303h92z" />
    <glyph glyph-name="Lacute" unicode="&#x139;" horiz-adv-x="1009" 
d="M614 1610q34 0 63 -29q30 -29 30 -61t-26 -59q-27 -25 -135 -91t-169 -115l-33 35q55 60 122 166q66 106 90 130t58 24zM82 0v53h164v1123h-164v53h512v-53h-174v-1123h282q92 1 140 61t71 158l35 138h41l-10 -410h-897z" />
    <glyph glyph-name="lacute" unicode="&#x13a;" horiz-adv-x="587" 
d="M485 51q31 0 41 -10t11 -41h-469v51q90 0 122 22t31 101v1106h-153v51h307v-1280h110zM72 1427q70 43 162 129t120 102q27 16 61 8q33 -9 55 -44t12 -68t-41 -50t-153 -52t-192 -66z" />
    <glyph glyph-name="uni013B" unicode="&#x13b;" horiz-adv-x="1009" 
d="M633 -223q0 -156 -141 -301l-50 32q100 104 101 164q0 27 -45 36t-72 37t-27 72t32 77q32 32 84 32t85 -40t33 -109zM82 0v53h164v1123h-164v53h512v-53h-174v-1123h282q92 1 140 61t71 158l35 138h41l-10 -410h-897z" />
    <glyph glyph-name="uni013C" unicode="&#x13c;" horiz-adv-x="591" 
d="M401 -223q0 -156 -141 -301l-49 32q100 104 100 164q0 27 -45 36q-46 9 -72 37t-26 72t32 77q32 32 84 32t84 -40q33 -40 33 -109zM485 51q31 0 41 -10t11 -41h-469v51q90 0 122 22t31 101v1106h-153v51h307v-1280h110z" />
    <glyph glyph-name="Lcaron" unicode="&#x13d;" horiz-adv-x="1009" 
d="M497 1292q-57 0 -115 68q-24 26 -78 92t-99 115l26 35q84 -57 265 -154q133 68 264 151l26 -30q-45 -51 -98 -117t-76 -92q-58 -68 -115 -68zM82 0v53h164v1123h-164v53h512v-53h-174v-1123h282q92 1 140 61t71 158l35 138h41l-10 -410h-897z" />
    <glyph glyph-name="lcaron" unicode="&#x13e;" horiz-adv-x="591" 
d="M674 1206q0 -156 -142 -301l-49 33q100 104 101 164q0 27 -46 36t-72 37q-26 27 -26 71t32 77t84 33t85 -41t33 -109zM485 51q31 0 41 -10t11 -41h-469v51q90 0 122 22t31 101v1106h-153v51h307v-1280h110z" />
    <glyph glyph-name="Lslash" unicode="&#x141;" horiz-adv-x="1021" 
d="M246 1176h-164v53h512v-53h-174v-580l389 219l31 -51l-420 -238v-473h282q92 1 140 61t71 158l35 138h41l-10 -410h-897v53h164v375l-187 -106l-30 53l217 123v678z" />
    <glyph glyph-name="lslash" unicode="&#x142;" horiz-adv-x="587" 
d="M221 1280h-153v51h307v-586l192 109l31 -51l-223 -127v-625h110q31 0 41 -10t11 -41h-469v51q90 0 122 22t31 101v416l-182 -105l-31 54l213 120v621z" />
    <glyph glyph-name="Nacute" unicode="&#x143;" horiz-adv-x="1370" 
d="M808 1610q34 0 64 -29t29 -61q0 -32 -26 -59q-27 -25 -135 -91t-169 -115l-32 35q55 60 121 166t91 130q23 24 57 24zM930 1176v53h420v-53h-164v-1166l-94 -20l-805 1011v-948h121q31 0 42 -11t11 -42h-420v53h164v1123h-164v53h285l778 -973v920h-174z" />
    <glyph glyph-name="nacute" unicode="&#x144;" horiz-adv-x="1163" 
d="M793 1254q0 -32 -26 -59q-27 -25 -135 -91t-169 -115l-33 35q55 60 122 166q66 106 90 130t58 24t63 -30q30 -28 30 -60zM461 51q31 0 41 -10t10 -41h-451v51q90 0 122 22t32 101v645h-154v51h297l9 -204q43 111 129 168t192 57t189 -89q82 -89 81 -243v-508h103
q31 0 41 -10t10 -41h-461v51q90 0 122 22t32 101v406q0 110 -53 166q-52 56 -140 56t-164 -82q-76 -83 -79 -226v-443h92z" />
    <glyph glyph-name="uni0145" unicode="&#x145;" horiz-adv-x="1370" 
d="M807 -223q0 -156 -141 -301l-50 32q100 104 101 164q0 27 -45 36t-72 37t-27 72t32 77q32 32 84 32t85 -40t33 -109zM930 1176v53h420v-53h-164v-1166l-94 -20l-805 1011v-948h121q31 0 42 -11t11 -42h-420v53h164v1123h-164v53h285l778 -973v920h-174z" />
    <glyph glyph-name="uni0146" unicode="&#x146;" horiz-adv-x="1163" 
d="M698 -223q0 -156 -141 -301l-49 32q100 104 100 164q0 27 -45 36t-71 37t-27 72q0 44 32 77q31 32 83 32t85 -40t33 -109zM461 51q31 0 41 -10t10 -41h-451v51q90 0 122 22t32 101v645h-154v51h297l9 -204q43 111 129 168t192 57t189 -89q82 -89 81 -243v-508h103
q31 0 41 -10t10 -41h-461v51q90 0 122 22t32 101v406q0 110 -53 166q-52 56 -140 56t-164 -82q-76 -83 -79 -226v-443h92z" />
    <glyph glyph-name="Ncaron" unicode="&#x147;" horiz-adv-x="1370" 
d="M692 1292q-57 0 -115 68q-24 26 -78 92t-100 115l27 35q84 -57 264 -154q133 68 264 151l27 -30q-45 -51 -98 -117t-76 -92q-58 -68 -115 -68zM930 1176v53h420v-53h-164v-1166l-94 -20l-805 1011v-948h121q31 0 42 -11t11 -42h-420v53h164v1123h-164v53h285l778 -973
v920h-174z" />
    <glyph glyph-name="ncaron" unicode="&#x148;" horiz-adv-x="1163" 
d="M583 1026q-57 0 -115 68q-24 26 -78 92t-99 114l26 35q84 -57 265 -153q133 68 264 151l26 -30q-45 -51 -98 -117t-76 -92q-58 -68 -115 -68zM461 51q31 0 41 -10t10 -41h-451v51q90 0 122 22t32 101v645h-154v51h297l9 -204q43 111 129 168t192 57t189 -89
q82 -89 81 -243v-508h103q31 0 41 -10t10 -41h-461v51q90 0 122 22t32 101v406q0 110 -53 166q-52 56 -140 56t-164 -82q-76 -83 -79 -226v-443h92z" />
    <glyph glyph-name="Omacron" unicode="&#x14c;" horiz-adv-x="1443" 
d="M420 1372v103h614v-103h-614zM725 37q182 0 292 143t109 443q0 569 -405 569q-182 0 -293 -138t-111 -440t113 -440q113 -137 295 -137zM748 1249q136 1 269 -67q134 -68 224 -216t90 -352q0 -290 -183 -462t-428 -172t-426 172t-181 471q0 147 53 268t140 198
q86 77 196 119t246 41z" />
    <glyph glyph-name="omacron" unicode="&#x14d;" horiz-adv-x="1050" 
d="M233 1106v102h615v-102h-615zM530 891q178 0 308 -120t131 -333q0 -213 -133 -336q-134 -122 -312 -122t-310 124t-132 335q0 212 135 332t313 120zM256 436q0 -186 69 -296t203 -110t201 112q66 112 66 298t-66 292t-202 108q-135 0 -203 -109t-68 -295z" />
    <glyph glyph-name="Ohungarumlaut" unicode="&#x150;" horiz-adv-x="1443" 
d="M1136 1538q22 -33 14 -66t-36 -50q-30 -17 -146 -57t-184 -75l-22 39q61 45 146 133t110 103q24 20 60 13t58 -40zM811 1544q0 -32 -25 -56t-131 -88t-163 -110l-31 33q53 57 118 161t87 126t56 22t62 -28t27 -60zM725 37q182 0 292 143t109 443q0 569 -405 569
q-182 0 -293 -138t-111 -440t113 -440q113 -137 295 -137zM748 1249q136 1 269 -67q134 -68 224 -216t90 -352q0 -290 -183 -462t-428 -172t-426 172t-181 471q0 147 53 268t140 198q86 77 196 119t246 41z" />
    <glyph glyph-name="ohungarumlaut" unicode="&#x151;" horiz-adv-x="1050" 
d="M831 1298q25 20 61 14t58 -40q22 -33 14 -66q-7 -33 -36 -50t-146 -57t-184 -75l-23 39q61 45 147 133t109 102zM535 1366q35 0 63 -28t27 -60q0 -32 -25 -56t-131 -88t-164 -110l-31 33q53 57 118 161q64 104 86 126t57 22zM530 891q178 0 308 -120t131 -333
q0 -213 -133 -336q-134 -122 -312 -122t-310 124t-132 335q0 212 135 332t313 120zM256 436q0 -186 69 -296t203 -110t201 112q66 112 66 298t-66 292t-202 108q-135 0 -203 -109t-68 -295z" />
    <glyph glyph-name="OE" unicode="&#x152;" horiz-adv-x="1843" 
d="M1124 1176v-512h424v-60h-424v-551h303q186 0 246 219l27 97h41l-10 -369h-707l-283 -10q-262 0 -445 167t-183 466q0 195 92 338t231 211t301 67l285 -10h709l10 -369h-41l-29 96q-63 219 -244 220h-303zM760 45q98 0 190 31v1075q-104 33 -207 33q-425 0 -425 -570
t442 -569z" />
    <glyph glyph-name="oe" unicode="&#x153;" horiz-adv-x="1652" 
d="M530 891q102 0 194 -47t150 -135q106 182 334 182q158 0 266 -81t108 -196t-105 -145q-86 -25 -273 -23l-246 5q4 -209 81 -311t208 -103q88 0 160 46t111 132l53 -10q-41 -109 -134 -167t-223 -58q-227 0 -342 186q-59 -90 -152 -138t-196 -48q-178 0 -310 124t-132 335
q0 212 135 332t313 120zM256 436q0 -186 69 -296t203 -110t201 112q66 112 66 298t-66 292t-202 108q-135 0 -203 -109t-68 -295zM1419 637q-1 83 -55 143t-156 60t-172 -84t-78 -248l218 -6q131 -4 187 24t56 111z" />
    <glyph glyph-name="Racute" unicode="&#x154;" horiz-adv-x="1253" 
d="M742 1610q34 0 64 -29t30 -61t-26 -59q-26 -25 -134 -91t-170 -115l-33 35q55 60 122 166t91 130q22 24 56 24zM627 1176h-207v-553h213q123 0 193 85q70 86 71 198t-69 191t-201 79zM584 0h-502v53h164v1123h-164v53h606q188 0 294 -94q106 -95 108 -215
q0 -120 -77 -212t-216 -126l329 -529h78q31 0 40 -9t9 -44h-309l-328 563h-196v-510h164v-53z" />
    <glyph glyph-name="racute" unicode="&#x155;" horiz-adv-x="804" 
d="M619 1254q0 -32 -26 -59q-27 -25 -135 -91t-169 -115l-33 35q55 60 122 166q66 106 90 130t58 24t63 -30q30 -28 30 -60zM520 51q31 0 41 -10t10 -41h-505v51q90 0 122 22t31 101v645h-153v51h296l9 -202q43 102 126 158t153 56t107 -30q38 -31 38 -76q0 -46 -23 -70
q-24 -24 -64 -24t-75 60t-70 61q-51 1 -121 -99t-69 -245v-408h147z" />
    <glyph glyph-name="uni0156" unicode="&#x156;" horiz-adv-x="1253" 
d="M797 -223q0 -156 -142 -301l-49 32q100 104 101 164q1 27 -45 36t-72 37t-27 72q0 44 32 77q32 32 84 32t85 -40t33 -109zM627 1176h-207v-553h213q123 0 193 85q70 86 71 198t-69 191t-201 79zM584 0h-502v53h164v1123h-164v53h606q188 0 294 -94q106 -95 108 -215
q0 -120 -77 -212t-216 -126l329 -529h78q31 0 40 -9t9 -44h-309l-328 563h-196v-510h164v-53z" />
    <glyph glyph-name="uni0157" unicode="&#x157;" horiz-adv-x="804" 
d="M414 -223q0 -156 -142 -301l-49 32q100 104 101 164q0 27 -46 36t-72 37t-26 72t32 77q32 32 84 32t85 -40t33 -109zM520 51q31 0 41 -10t10 -41h-505v51q90 0 122 22t31 101v645h-153v51h296l9 -202q43 102 126 158t153 56t107 -30q38 -31 38 -76q0 -46 -23 -70
q-24 -24 -64 -24t-75 60t-70 61q-51 1 -121 -99t-69 -245v-408h147z" />
    <glyph glyph-name="Rcaron" unicode="&#x158;" horiz-adv-x="1253" 
d="M626 1292q-57 0 -115 68q-24 26 -78 92t-99 115l26 35q84 -57 265 -154q133 68 264 151l26 -30q-45 -51 -98 -117t-76 -92q-58 -68 -115 -68zM627 1176h-207v-553h213q123 0 193 85q70 86 71 198t-69 191t-201 79zM584 0h-502v53h164v1123h-164v53h606q188 0 294 -94
q106 -95 108 -215q0 -120 -77 -212t-216 -126l329 -529h78q31 0 40 -9t9 -44h-309l-328 563h-196v-510h164v-53z" />
    <glyph glyph-name="rcaron" unicode="&#x159;" horiz-adv-x="804" 
d="M409 1026q-57 0 -115 68q-24 26 -78 92t-99 114l26 35q84 -57 265 -153q133 68 264 151l26 -30q-45 -51 -98 -117t-76 -92q-58 -68 -115 -68zM520 51q31 0 41 -10t10 -41h-505v51q90 0 122 22t31 101v645h-153v51h296l9 -202q43 102 126 158t153 56t107 -30
q38 -31 38 -76q0 -46 -23 -70q-24 -24 -64 -24t-75 60t-70 61q-51 1 -121 -99t-69 -245v-408h147z" />
    <glyph glyph-name="Sacute" unicode="&#x15a;" horiz-adv-x="1097" 
d="M704 1610q34 0 63 -29q30 -29 30 -61t-26 -59q-27 -25 -135 -91t-169 -115l-33 35q55 60 122 166q66 106 90 130t58 24zM995 322q0 -160 -132 -251q-131 -91 -327 -91t-352 104q0 -56 -10 -72t-51 -16v424h61q35 -383 348 -383q119 0 202 63t83 172q0 78 -51 136t-127 93
t-165 75t-165 78t-127 109t-51 163q0 147 125 235t305 88t324 -80q0 43 11 57t50 13v-358h-61q2 151 -92 231q-95 80 -219 80t-198 -57t-73 -151q0 -94 72 -156t173 -103q100 -41 202 -85t174 -124t71 -194z" />
    <glyph glyph-name="sacute" unicode="&#x15b;" horiz-adv-x="819" 
d="M621 1254q0 -32 -26 -59q-27 -25 -135 -91t-169 -115l-33 35q55 60 122 166q66 106 90 130t58 24t63 -30q30 -28 30 -60zM389 35q88 0 149 41q60 41 60 105q0 110 -175 180q-73 30 -145 64t-124 94q-52 61 -52 157t92 155t222 59q131 0 231 -56q0 41 11 55t44 14v-256
h-53q0 190 -209 191q-88 0 -144 -36t-56 -100t51 -108q51 -43 124 -71q73 -29 147 -61t124 -92q51 -60 51 -147q0 -121 -93 -182t-235 -61t-251 73q0 -39 -10 -51t-46 -12v311h58q0 -266 229 -266z" />
    <glyph glyph-name="uni015E" unicode="&#x15e;" horiz-adv-x="1097" 
d="M995 322q0 -160 -132 -251t-320 -91l-47 -107q48 21 120 21t134 -46t63 -129q0 -82 -71 -133t-167 -51q-145 0 -213 109l33 24q61 -82 144 -82q51 0 86 37t35 99t-32 91t-85 29t-101 -35l-28 19l78 156q-172 12 -308 102q0 -56 -10 -72t-51 -16v424h61q35 -383 348 -383
q119 0 202 63t83 172q0 78 -51 136t-127 93t-165 75t-165 78t-127 109t-51 163q0 147 125 235t305 88t324 -80q0 43 11 57t50 13v-358h-61q2 151 -92 231q-95 80 -219 80t-198 -57t-73 -151q0 -94 72 -156t173 -103q100 -41 202 -85t174 -124t71 -194z" />
    <glyph glyph-name="uni015F" unicode="&#x15f;" horiz-adv-x="819" 
d="M389 35q88 0 149 41q60 41 60 105q0 110 -175 180q-73 30 -145 64t-124 94q-52 61 -52 157t92 155t222 59q131 0 231 -56q0 41 11 55t44 14v-256h-53q0 190 -209 191q-88 0 -144 -36t-56 -100t51 -108q51 -43 124 -71q73 -29 147 -61t124 -92q51 -60 51 -147
q0 -121 -93 -182t-230 -61h-11l13 26h-51l-13 -22q41 -4 51 -4l-47 -107q47 21 120 21t135 -46q63 -46 63 -129q0 -82 -71 -133t-167 -51q-145 0 -213 109l33 24q61 -82 143 -82q51 0 86 37t35 99t-32 91t-84 29t-101 -35l-29 19l78 158q-109 12 -194 69q0 -39 -10 -51
t-46 -12v311h58q0 -266 229 -266z" />
    <glyph glyph-name="Scaron" unicode="&#x160;" horiz-adv-x="1097" 
d="M587 1292q-57 0 -115 68q-24 26 -78 92t-99 115l27 35q84 -57 264 -154q133 68 264 151l27 -30q-45 -51 -99 -117t-76 -92q-58 -68 -115 -68zM995 322q0 -160 -132 -251q-131 -91 -327 -91t-352 104q0 -56 -10 -72t-51 -16v424h61q35 -383 348 -383q119 0 202 63t83 172
q0 78 -51 136t-127 93t-165 75t-165 78t-127 109t-51 163q0 147 125 235t305 88t324 -80q0 43 11 57t50 13v-358h-61q2 151 -92 231q-95 80 -219 80t-198 -57t-73 -151q0 -94 72 -156t173 -103q100 -41 202 -85t174 -124t71 -194z" />
    <glyph glyph-name="scaron" unicode="&#x161;" horiz-adv-x="819" 
d="M411 1026q-57 0 -115 68q-24 26 -78 92t-99 114l26 35q84 -57 265 -153q133 68 264 151l26 -30q-45 -51 -98 -117t-76 -92q-58 -68 -115 -68zM389 35q88 0 149 41q60 41 60 105q0 110 -175 180q-73 30 -145 64t-124 94q-52 61 -52 157t92 155t222 59q131 0 231 -56
q0 41 11 55t44 14v-256h-53q0 190 -209 191q-88 0 -144 -36t-56 -100t51 -108q51 -43 124 -71q73 -29 147 -61t124 -92q51 -60 51 -147q0 -121 -93 -182t-235 -61t-251 73q0 -39 -10 -51t-46 -12v311h58q0 -266 229 -266z" />
    <glyph glyph-name="uni0162" unicode="&#x162;" horiz-adv-x="1191" 
d="M301 0v53h195v1123h-111q-172 0 -223 -213l-33 -138h-57l10 404h1012l10 -404h-57l-33 138q-51 213 -223 213h-121v-1123h141q31 0 42 -11t11 -42h-268l-57 -127q47 21 119 21t136 -46q62 -46 62 -129q0 -82 -71 -133t-167 -51q-145 0 -212 109l32 24q61 -82 144 -82
q51 0 86 37q34 37 34 99t-31 91q-32 29 -85 29t-101 -35l-28 19l88 174h-244z" />
    <glyph glyph-name="uni0163" unicode="&#x163;" horiz-adv-x="665" 
d="M41 819v51h143v195l154 43v-238h317v-51h-317v-622q0 -158 113 -158q49 0 89 45t60 139l55 -10q-45 -236 -235 -236q-20 0 -53 5l-50 -109q47 21 120 21t135 -46t62 -129q0 -82 -70 -133q-71 -51 -167 -51q-145 0 -213 109l33 24q61 -82 143 -82q51 0 86 37t35 99t-31 91
q-32 29 -85 29t-101 -35l-28 19l83 168q-135 51 -135 248v577h-143z" />
    <glyph glyph-name="Tcaron" unicode="&#x164;" horiz-adv-x="1175" 
d="M587 1292q-57 0 -115 68q-24 26 -78 92t-99 115l27 35q84 -57 264 -154q133 68 264 151l27 -30q-45 -51 -99 -117t-76 -92q-58 -68 -115 -68zM864 0h-563v53h195v1123h-111q-172 0 -223 -213l-33 -138h-57l10 404h1012l10 -404h-57l-33 138q-51 213 -223 213h-121v-1123
h141q31 0 42 -11t11 -42z" />
    <glyph glyph-name="tcaron" unicode="&#x165;" horiz-adv-x="665" 
d="M645 1225q0 -156 -141 -301l-49 32q100 104 100 164q0 27 -45 36t-72 37q-26 28 -26 72q0 45 32 77t83 32q52 0 85 -40t33 -109zM41 819v51h143v195l154 43v-238h317v-51h-317v-622q0 -158 113 -158q49 0 89 45t60 139l55 -10q-45 -236 -235 -236q-236 0 -236 265v577
h-143z" />
    <glyph glyph-name="Umacron" unicode="&#x16a;" horiz-adv-x="1294" 
d="M387 1372v103h614v-103h-614zM20 1176v53h500v-53h-162v-703q0 -231 85 -333t255 -103q350 0 351 430v709h-164v53h399v-53h-164v-697q0 -254 -110 -377t-348 -122q-477 0 -478 481v715h-164z" />
    <glyph glyph-name="umacron" unicode="&#x16b;" horiz-adv-x="1161" 
d="M279 1106v102h614v-102h-614zM1055 51q31 0 41 -10t10 -41h-289l-14 209q-43 -113 -129 -171t-182 -58q-293 0 -293 352v487h-158v51h311v-569q0 -121 54 -177t146 -56q91 0 169 83t78 226v442h-168v51h321v-819h103z" />
    <glyph glyph-name="Uring" unicode="&#x16e;" horiz-adv-x="1294" 
d="M696 1628q98 0 154 -51t57 -133q0 -82 -59 -136q-60 -54 -158 -54t-154 52q-56 54 -56 137t58 134q60 51 158 51zM693 1581q-51 0 -77 -41t-26 -99t24 -100q25 -41 77 -41t79 43t27 101t-26 97q-26 40 -78 40zM20 1176v53h500v-53h-162v-703q0 -231 85 -333t255 -103
q350 0 351 430v709h-164v53h399v-53h-164v-697q0 -254 -110 -377t-348 -122q-477 0 -478 481v715h-164z" />
    <glyph glyph-name="uring" unicode="&#x16f;" horiz-adv-x="1161" 
d="M588 1362q98 0 154 -51t56 -133t-58 -136q-60 -54 -158 -55q-98 0 -155 53q-56 52 -56 136t59 135q60 51 158 51zM481 1175q0 -57 25 -99t77 -42t79 43q26 43 26 101t-25 97q-26 40 -78 40t-78 -41t-26 -99zM1055 51q31 0 41 -10t10 -41h-289l-14 209q-43 -113 -129 -171
t-182 -58q-293 0 -293 352v487h-158v51h311v-569q0 -121 54 -177t146 -56q91 0 169 83t78 226v442h-168v51h321v-819h103z" />
    <glyph glyph-name="Uhungarumlaut" unicode="&#x170;" horiz-adv-x="1294" 
d="M985 1565q25 20 61 13t58 -40t14 -66t-37 -50t-145 -57t-184 -75l-23 39q61 45 147 133t109 103zM779 1544q0 -32 -25 -56t-131 -88t-164 -110l-31 33q53 57 118 161q64 104 86 126t56 22t63 -28q28 -28 28 -60zM20 1176v53h500v-53h-162v-703q0 -231 85 -333t255 -103
q350 0 351 430v709h-164v53h399v-53h-164v-697q0 -254 -110 -377t-348 -122q-477 0 -478 481v715h-164z" />
    <glyph glyph-name="uhungarumlaut" unicode="&#x171;" horiz-adv-x="1161" 
d="M877 1298q25 20 61 14t56 -40q22 -33 15 -66t-36 -50t-146 -57t-184 -75l-22 39q61 45 146 133t110 102zM580 1366q34 0 62 -28t28 -60t-25 -56t-131 -88t-164 -110l-31 33q53 57 118 161t87 126t56 22zM1055 51q31 0 41 -10t10 -41h-289l-14 209q-43 -113 -129 -171
t-182 -58q-293 0 -293 352v487h-158v51h311v-569q0 -121 54 -177t146 -56q91 0 169 83t78 226v442h-168v51h321v-819h103z" />
    <glyph glyph-name="Uogonek" unicode="&#x172;" horiz-adv-x="1294" 
d="M813 -332q57 0 113 47l24 -30q-74 -76 -173 -76t-152 44q-53 45 -53 117t87 145q88 73 263 103l2 -18q-96 -37 -147 -101q-50 -65 -50 -128q0 -103 86 -103zM20 1176v53h500v-53h-162v-703q0 -231 85 -333t255 -103q350 0 351 430v709h-164v53h399v-53h-164v-697
q0 -254 -110 -377t-348 -122q-477 0 -478 481v715h-164z" />
    <glyph glyph-name="uogonek" unicode="&#x173;" horiz-adv-x="1161" 
d="M1055 51q31 0 41 -10t10 -41q-96 -37 -147 -101q-50 -65 -50 -128q0 -102 86 -103q57 0 113 47l25 -30q-73 -76 -173 -76t-153 44q-53 43 -53 111t66 134q67 66 202 102h-205l-14 209q-43 -113 -129 -171t-182 -58q-293 0 -293 352v487h-158v51h311v-569q0 -121 54 -177
t146 -56q91 0 169 83t78 226v442h-168v51h321v-819h103z" />
    <glyph glyph-name="Ydieresis" unicode="&#x178;" horiz-adv-x="1134" 
d="M782 1333q-42 0 -72 29t-30 73q0 43 30 73t72 30t73 -30q30 -30 30 -73q0 -44 -30 -73t-73 -29zM510 1436q0 -43 -30 -73t-72 -30t-73 29q-30 29 -30 73q0 43 30 73t73 30q42 0 72 -30t30 -72zM825 0h-501v53h163v436l-385 687h-112v53h461v-53h-156l328 -596l311 596
h-164v53h365q1 -31 -11 -42t-49 -11t-61 -12t-43 -46l-309 -608v-457h110q31 0 42 -11t11 -42z" />
    <glyph glyph-name="Zacute" unicode="&#x179;" horiz-adv-x="1126" 
d="M728 1610q34 0 64 -29t30 -61t-26 -59q-26 -25 -134 -91t-170 -115l-33 35q55 60 122 166t91 130q22 24 56 24zM51 0v41l807 1135h-446q-106 0 -166 -134l-80 -184h-41l18 371h912v-43l-785 -1133h506q162 0 201 174l43 197h45l-4 -424h-1010z" />
    <glyph glyph-name="zacute" unicode="&#x17a;" horiz-adv-x="864" 
d="M643 1254q0 -32 -26 -59q-27 -25 -135 -91t-169 -115l-32 35q55 60 121 166t90 130t58 24t64 -30q30 -28 29 -60zM604 53q57 0 93 42t48 102l25 112h29l-6 -309h-748v45l576 782h-330q-88 0 -131 -100l-49 -113h-31l18 267h693v-43l-555 -785h368z" />
    <glyph glyph-name="Zdotaccent" unicode="&#x17b;" horiz-adv-x="1126" 
d="M721 1436q0 -47 -32 -80t-79 -33t-80 33t-32 80q0 47 32 80q33 32 79 32t79 -32t33 -80zM51 0v41l807 1135h-446q-106 0 -166 -134l-80 -184h-41l18 371h912v-43l-785 -1133h506q162 0 201 174l43 197h45l-4 -424h-1010z" />
    <glyph glyph-name="zdotaccent" unicode="&#x17c;" horiz-adv-x="864" 
d="M543 1169q0 -47 -32 -79t-79 -33q-47 0 -80 33q-33 34 -33 80t33 79t79 33t79 -33t33 -80zM604 53q57 0 93 42t48 102l25 112h29l-6 -309h-748v45l576 782h-330q-88 0 -131 -100l-49 -113h-31l18 267h693v-43l-555 -785h368z" />
    <glyph glyph-name="Zcaron" unicode="&#x17d;" horiz-adv-x="1126" 
d="M612 1292q-57 0 -115 68q-24 26 -78 92t-100 115l27 35q84 -57 264 -154q133 68 264 151l27 -30q-45 -51 -98 -117t-76 -92q-58 -68 -115 -68zM51 0v41l807 1135h-446q-106 0 -166 -134l-80 -184h-41l18 371h912v-43l-785 -1133h506q162 0 201 174l43 197h45l-4 -424
h-1010z" />
    <glyph glyph-name="zcaron" unicode="&#x17e;" horiz-adv-x="864" 
d="M434 1026q-32 0 -62 20t-54 48q-24 26 -78 92t-99 114l27 35q84 -57 264 -153q133 68 264 151l27 -30q-45 -51 -98 -117t-76 -92t-53 -48q-30 -20 -62 -20zM604 53q57 0 93 42t48 102l25 112h29l-6 -309h-748v45l576 782h-330q-88 0 -131 -100l-49 -113h-31l18 267h693
v-43l-555 -785h368z" />
    <glyph glyph-name="florin" unicode="&#x192;" horiz-adv-x="903" 
d="M913 1096q0 -108 -90 -107q-43 0 -61 33t-20 71q-1 39 -20 71q-18 32 -64 32t-74 -33q-45 -54 -64 -258q-6 -72 -12 -205h240v-53h-242l-2 -43q-28 -568 -132 -785q-104 -218 -268 -218q-96 0 -151 51q-55 50 -55 104q0 108 92 109q53 0 70 -34q18 -34 12 -76
q-15 -111 63 -109q69 0 101 107q43 145 62 433q5 76 14 222t22 239h-199v53h205q45 309 142 429t231 120q96 0 148 -50q52 -51 52 -103z" />
    <glyph glyph-name="uni0218" unicode="&#x218;" horiz-adv-x="1097" 
d="M666 -223q0 -156 -142 -301l-49 32q100 104 100 164q0 27 -45 36q-46 9 -72 37t-26 72t32 77q32 32 84 32t85 -40t33 -109zM995 322q0 -160 -132 -251q-131 -91 -327 -91t-352 104q0 -56 -10 -72t-51 -16v424h61q35 -383 348 -383q119 0 202 63t83 172q0 78 -51 136
t-127 93t-165 75t-165 78t-127 109t-51 163q0 147 125 235t305 88t324 -80q0 43 11 57t50 13v-358h-61q2 151 -92 231q-95 80 -219 80t-198 -57t-73 -151q0 -94 72 -156t173 -103q100 -41 202 -85t174 -124t71 -194z" />
    <glyph glyph-name="uni0219" unicode="&#x219;" horiz-adv-x="819" 
d="M526 -223q0 -156 -141 -301l-49 32q100 104 100 164q0 27 -45 36t-72 37t-27 72t33 77q31 32 83 32t85 -40t33 -109zM389 35q88 0 149 41q60 41 60 105q0 110 -175 180q-73 30 -145 64t-124 94q-52 61 -52 157t92 155t222 59q131 0 231 -56q0 41 11 55t44 14v-256h-53
q0 190 -209 191q-88 0 -144 -36t-56 -100t51 -108q51 -43 124 -71q73 -29 147 -61t124 -92q51 -60 51 -147q0 -121 -93 -182t-235 -61t-251 73q0 -39 -10 -51t-46 -12v311h58q0 -266 229 -266z" />
    <glyph glyph-name="uni021A" unicode="&#x21a;" horiz-adv-x="1175" 
d="M700 -223q0 -156 -141 -301l-49 32q100 104 100 164q0 27 -45 36t-71 37t-27 72q0 44 32 77q31 32 83 32t85 -40t33 -109zM864 0h-563v53h195v1123h-111q-172 0 -223 -213l-33 -138h-57l10 404h1012l10 -404h-57l-33 138q-51 213 -223 213h-121v-1123h141q31 0 42 -11
t11 -42z" />
    <glyph glyph-name="uni021B" unicode="&#x21b;" horiz-adv-x="665" 
d="M487 -223q0 -156 -141 -301l-49 32q100 104 100 164q0 27 -45 36q-46 9 -72 37t-26 72t32 77q32 32 84 32t84 -40q33 -40 33 -109zM41 819v51h143v195l154 43v-238h317v-51h-317v-622q0 -158 113 -158q49 0 89 45t60 139l55 -10q-45 -236 -235 -236q-236 0 -236 265v577
h-143z" />
    <glyph glyph-name="circumflex" unicode="&#x2c6;" horiz-adv-x="1024" 
d="M760 1022q-90 63 -246 145q-133 -68 -250 -143l-24 29q43 49 92 111t70 88q53 63 107 64t109 -64q23 -26 72 -87t94 -110z" />
    <glyph glyph-name="caron" unicode="&#x2c7;" horiz-adv-x="1024" 
d="M514 1026q-32 0 -62 20t-54 48q-24 26 -78 92t-99 114l27 35q84 -57 264 -153q133 68 264 151l27 -30q-45 -51 -98 -117t-76 -92t-53 -48q-30 -20 -62 -20z" />
    <glyph glyph-name="uni02C9" unicode="&#x2c9;" horiz-adv-x="1024" 
d="M205 1106v102h614v-102h-614z" />
    <glyph glyph-name="breve" unicode="&#x2d8;" horiz-adv-x="1024" 
d="M512 1176q182 0 209 133h43q0 -113 -62 -189t-188 -76q-127 0 -189 76t-63 189h41q27 -133 209 -133z" />
    <glyph glyph-name="dotaccent" unicode="&#x2d9;" horiz-adv-x="587" 
d="M401 1169q1 -47 -31 -79t-79 -33q-47 0 -80 33q-33 34 -33 80t33 79t79 33t78 -33t33 -80z" />
    <glyph glyph-name="ring" unicode="&#x2da;" horiz-adv-x="1024" 
d="M512 1362q98 0 154 -51t57 -133q0 -82 -59 -136q-60 -54 -158 -55q-98 0 -155 53q-56 52 -56 136t59 135q60 51 158 51zM509 1315q-51 0 -77 -41t-26 -99t24 -100q25 -41 77 -41t79 43q26 43 26 101t-25 97q-26 40 -78 40z" />
    <glyph glyph-name="ogonek" unicode="&#x2db;" horiz-adv-x="1024" 
d="M530 -332q57 0 113 47l25 -30q-74 -76 -174 -76t-152 44q-53 45 -53 117t88 145t262 103l2 -18q-96 -38 -146 -102t-51 -127q0 -103 86 -103z" />
    <glyph glyph-name="tilde" unicode="&#x2dc;" horiz-adv-x="1024" 
d="M412 1296q61 0 138 -60t118 -60q78 0 110 116l43 -10q-45 -219 -184 -219q-61 0 -138 60t-120 61q-78 0 -109 -117l-41 10q46 219 183 219z" />
    <glyph glyph-name="hungarumlaut" unicode="&#x2dd;" horiz-adv-x="1228" 
d="M1058 1272q22 -33 14 -66t-36 -50q-30 -17 -146 -57t-183 -75l-23 39q61 45 146 133t110 102q24 20 60 14t58 -40zM644 1366q34 0 62 -28t28 -60t-25 -56t-131 -88t-164 -110l-31 33q53 57 118 161t87 126t56 22z" />
    <glyph glyph-name="pi" unicode="&#x3c0;" horiz-adv-x="1175" 
d="M948 -18q-188 0 -188 276v559h-393v-764h110q31 0 40 -10t9 -43h-475v53q162 0 162 107v657h-162v53h1045v-53h-183v-641q0 -137 66 -137q35 0 65 35t41 96l50 -12q-15 -82 -67 -129t-120 -47z" />
    <glyph glyph-name="anusvara" unicode="&#xd82;" horiz-adv-x="727" 
d="M59 330q0 116 84 198t203 82t203 -83t84 -197t-84 -198q-84 -83 -203 -83t-203 83t-84 198zM133 352q1 -84 63 -144t150 -60t150 60t61 144q0 84 -61 144q-62 60 -150 59q-88 1 -150 -59t-63 -144z" />
    <glyph glyph-name="visarga" unicode="&#xd83;" horiz-adv-x="495" 
d="M61 625q-1 71 49 119t120 48t118 -48q49 -50 49 -120t-49 -118q-49 -49 -119 -49t-119 49t-49 119zM121 627q0 -45 32 -78q33 -33 77 -33t77 33t33 78t-33 77t-78 31q-45 1 -77 -31t-31 -77zM61 219q-1 70 49 119t120 49t118 -49q49 -49 49 -119t-49 -119t-119 -49
t-119 49t-49 119zM121 221q0 -45 32 -77q33 -32 77 -32t77 32t33 77t-33 78t-78 33t-77 -33t-31 -78z" />
    <glyph glyph-name="si_A" unicode="&#xd85;" horiz-adv-x="1144" 
d="M719 -430v430q-66 -8 -156 -8q-241 0 -369 88t-128 231t90 225t247 82h230q-2 70 -43 119q-42 49 -100 49t-77 -17t-36 -52q-25 -55 -82 -55q-33 0 -57 20t-25 55q0 59 59 94t168 35t182 -74t72 -212v-7h-190q-86 -1 -146 -27q-129 -57 -133 -218q0 -125 88 -204t281 -79
q66 0 125 6v576q0 115 50 172t110 71l45 -22l-15 -6q-18 -12 -18 -37t40 -57t81 -77q41 -46 41 -116q1 -70 -57 -113t-140 -43q-37 0 -80 13v-353q166 29 271 107v-64q-102 -68 -271 -94v-438h-57zM829 459q37 -1 68 29t31 92t-31 110q-7 8 -31 38t-24 69v2
q-66 -57 -66 -168v-166q16 -6 53 -6z" />
    <glyph glyph-name="si_Aa" unicode="&#xd86;" horiz-adv-x="1699" 
d="M719 -430v430q-66 -8 -156 -8q-241 0 -369 88t-128 231t90 225t247 82h230q-2 70 -43 119q-42 49 -100 49t-77 -17t-36 -52q-25 -55 -82 -55q-33 0 -57 20t-25 55q0 59 59 94t168 35t182 -74t72 -212v-7h-190q-86 -1 -146 -27q-129 -57 -133 -218q0 -125 88 -204t281 -79
q66 0 125 6v576q0 115 50 172t110 71l45 -22l-15 -6q-18 -12 -18 -37t40 -57t81 -77q41 -46 41 -116q1 -70 -57 -113t-140 -43q-37 0 -80 13v-353q166 29 271 107v-64q-102 -68 -271 -94v-438h-57zM829 459q37 -1 68 29t31 92t-31 110q-7 8 -31 38t-24 69v2
q-66 -57 -66 -168v-166q16 -6 53 -6zM1087 219q0 31 3 45h53q-2 -10 -2 -31q0 -73 37 -117t102 -44q172 2 172 330t-172 329q-57 0 -98 -45t-41 -117q0 -18 2 -28h-53q-2 14 -3 43q0 100 65 161t157 62q135 1 205 -105t69 -301q0 -195 -70 -299t-204 -104q-100 0 -161 60
t-61 161z" />
    <glyph glyph-name="si_Ae" unicode="&#xd87;" horiz-adv-x="1755" 
d="M1094 627v51h491q-4 -6 -6 -33q-186 -276 -186 -545q0 -147 63 -217t160 -69q31 0 76 10l8 -37q-72 -82 -196 -82t-186 92t-62 243q0 150 78 314q79 164 175 273h-415zM719 -430v430q-66 -8 -156 -8q-241 0 -369 88t-128 231t90 225t247 82h230q-2 70 -43 119
q-42 49 -100 49t-77 -17t-36 -52q-25 -55 -82 -55q-33 0 -57 20t-25 55q0 59 59 94t168 35t182 -74t72 -212v-7h-190q-86 -1 -146 -27q-129 -57 -133 -218q0 -125 88 -204t281 -79q66 0 125 6v576q0 115 50 172t110 71l45 -22l-15 -6q-18 -12 -18 -37t40 -57t81 -77
q41 -46 41 -116q1 -70 -57 -113t-140 -43q-37 0 -80 13v-353q166 29 271 107v-64q-102 -68 -271 -94v-438h-57zM829 459q37 -1 68 29t31 92t-31 110q-7 8 -31 38t-24 69v2q-66 -57 -66 -168v-166q16 -6 53 -6z" />
    <glyph glyph-name="si_Aae" unicode="&#xd88;" horiz-adv-x="1763" 
d="M719 -430v430q-66 -8 -156 -8q-241 0 -369 88t-128 231t90 225t247 82h230q-2 70 -43 119q-42 49 -100 49t-77 -17t-36 -52q-25 -55 -82 -55q-33 0 -57 20t-25 55q0 59 59 94t168 35t182 -74t72 -212v-7h-190q-86 -1 -146 -27q-129 -57 -133 -218q0 -125 88 -204t281 -79
q66 0 125 6v576q0 115 50 172t110 71l45 -22l-15 -6q-18 -12 -18 -37t40 -57t81 -77q41 -46 41 -116q1 -70 -57 -113t-140 -43q-37 0 -80 13v-353q166 29 271 107v-64q-102 -68 -271 -94v-438h-57zM829 459q37 -1 68 29t31 92t-31 110q-7 8 -31 38t-24 69v2
q-66 -57 -66 -168v-166q16 -6 53 -6zM1090 631v47h489v-43l-254 -189h301v-45q-86 -61 -157 -161t-70 -213q0 -240 295 -240v-49q-76 -35 -154 -35q-133 0 -206 75q-72 76 -72 198t85 232t203 189h-325v39l266 195h-401z" />
    <glyph glyph-name="si_I" unicode="&#xd89;" horiz-adv-x="1185" 
d="M473 365q0 -41 31 -71q32 -30 72 -30t71 30t31 71t-31 71t-72 29q-41 1 -71 -29t-31 -71zM145 408q0 -106 86 -176q85 -70 233 -70t202 78q-34 -29 -96 -29t-108 44q-46 45 -46 109t45 110t119 46t123 -50q48 -50 49 -130q0 -115 -85 -173t-238 -58q-153 -1 -258 89
t-105 244q0 197 144 310q144 112 368 112t367 -122q142 -122 142 -347q0 -155 -91 -269t-228 -138q111 -20 111 -138q0 -84 -85 -126q-84 -42 -194 -43t-182 39t-72 128q0 36 20 56t48 20q55 0 55 -53l-6 -59q0 -86 137 -86q63 0 107 27q43 28 43 86t-58 94t-157 36
q-16 0 -37 -2v58q25 2 49 2l100 -4q156 0 260 91q105 92 105 250t-128 254t-310 96t-306 -78q-123 -79 -123 -228z" />
    <glyph glyph-name="si_Ii" unicode="&#xd8a;" horiz-adv-x="1054" 
d="M524 827q-148 1 -270 -103t-123 -249q0 -145 95 -237t254 -92t270 102q110 104 110 257t-94 237t-242 85zM61 410q0 168 74 264t205 170q152 78 276 190q37 33 75 89t67 89q30 33 68 33t38 -35q0 -62 -129 -168t-241 -170q10 2 30 2q205 0 336 -143q104 -117 104 -291
t-134 -308q-134 -132 -327 -132t-318 121q-124 121 -124 289zM236 1075q0 53 38 91t92 38t91 -38t37 -91t-37 -90t-90 -37t-93 37q-38 37 -38 90zM291 1075q-1 -33 21 -55t55 -21q33 0 55 22q22 23 20 55q0 32 -22 54t-54 21q-32 1 -54 -21t-21 -55zM766 936q0 53 39 91
t92 38t90 -38t37 -91t-37 -90t-90 -37t-92 37t-39 90zM819 936q0 -32 23 -54q24 -22 56 -22t54 22t21 54q0 32 -22 54q-23 22 -55 22t-54 -22t-23 -54z" />
    <glyph glyph-name="si_U" unicode="&#xd8b;" horiz-adv-x="1300" 
d="M63 199q0 169 127 281t338 112h486q-4 76 -62 132t-136 56q-77 0 -122 -71q-35 -53 -76 -53q-40 0 -62 21q-22 22 -21 52q0 67 59 101t158 34q141 0 233 -86t92 -225v-10h-481q-180 0 -280 -89t-99 -235q0 -207 136 -341q135 -134 327 -134t331 116q138 116 138 277h57
q0 -197 -160 -327t-395 -132q-234 0 -411 145t-177 376z" />
    <glyph glyph-name="si_Uu" unicode="&#xd8c;" horiz-adv-x="1980" 
d="M63 199q0 169 127 281t338 112h486q-4 76 -62 132t-136 56q-77 0 -122 -71q-35 -53 -76 -53q-40 0 -62 21q-22 22 -21 52q0 67 59 101t158 34q141 0 233 -86t92 -225v-10h-481q-180 0 -280 -89t-99 -235q0 -207 136 -341q135 -134 327 -134t331 116q138 116 138 277h57
q0 -197 -160 -327t-395 -132q-234 0 -411 145t-177 376zM1165 641q0 135 74 215h72q-86 -74 -86 -213q0 -72 38 -120t96 -48t86 30t28 77t-41 92q-2 10 -2 24q0 78 47 122t131 44q214 0 265 -275q13 -71 13 -149q0 -192 -74 -318t-223 -126q-106 0 -164 70q-57 70 -57 174
q0 39 8 73h51q-6 -33 -6 -63q0 -86 42 -142t123 -56q159 -1 159 423q0 338 -150 338q-111 0 -110 -113v-14q74 -41 74 -112q-1 -70 -55 -110t-140 -40t-142 62t-57 155z" />
    <glyph glyph-name="si_vocalicR" unicode="&#xd8d;" horiz-adv-x="1787" 
d="M1573 389q-102 0 -160 -18q-119 -37 -119 -158q0 -66 40 -112t100 -46q30 -1 74 15t52 16t17 -6q-6 39 -6 151l2 142v16zM1233 498q0 125 57 207q57 81 171 81t174 -110t61 -270q0 -68 -18 -204t-17 -160q0 -24 2 -36h-59q-10 29 -31 29q-6 -1 -55 -19t-88 -18
q-86 0 -142 63q-55 63 -55 152q0 137 133 197q80 35 207 34q0 133 -37 203q-36 70 -106 70q-70 -1 -108 -63t-38 -162v-9h-51v15zM859 633q89 0 151 -21q31 33 30 80q0 47 -41 71t-100 23q-158 1 -174 -165q45 12 134 12zM61 322q1 138 105 224q104 87 252 87q70 0 108 -12
v6q0 67 -42 115t-97 49q-84 0 -112 -73t-78 -73q-29 -1 -51 19t-21 55q0 69 60 107t149 38q125 0 188 -78t64 -194v-29q-92 19 -184 19t-179 -60q-86 -60 -86 -160t72 -160t168 -60t161 44q65 45 64 117v62h53v-62q0 -80 72 -121t174 -41q102 -1 172 59t70 162t-79 161
q-126 93 -398 40v19q0 126 68 204t166 78t158 -41t60 -118t-57 -111q70 -33 113 -106t43 -156q-1 -158 -93 -245t-243 -87q-193 0 -254 164q-68 -166 -260 -166q-137 0 -222 93q-84 93 -84 231z" />
    <glyph glyph-name="si_vocalicRr" unicode="&#xd8e;" horiz-adv-x="2279" 
d="M1573 389q-102 0 -160 -18q-119 -37 -119 -158q0 -66 40 -112t100 -46q30 -1 74 15t52 16t17 -6q-6 39 -6 151l2 142v16zM1233 498q0 125 57 207q57 81 171 81t174 -110t61 -270q0 -68 -18 -204t-17 -160q0 -24 2 -36h-59q-10 29 -31 29q-6 -1 -55 -19t-88 -18
q-86 0 -142 63q-55 63 -55 152q0 137 133 197q80 35 207 34q0 133 -37 203q-36 70 -106 70q-70 -1 -108 -63t-38 -162v-9h-51v15zM2066 389q-102 0 -159 -18q-119 -37 -119 -158q0 -66 40 -112t99 -46q29 -1 74 15t52 16t18 -6q-6 39 -7 151l2 142v16zM2066 444
q0 273 -143 273q-69 -1 -107 -63t-38 -162v-9h-52v15q0 125 58 207q58 81 171 81q114 0 174 -110t60 -270q0 -68 -19 -221t-13 -179h-60q-10 29 -31 29q-6 -1 -55 -19t-88 -18q-86 0 -141 63t-56 152q0 137 134 197q80 35 206 34zM859 633q89 0 151 -21q31 33 30 80
q0 47 -41 71t-100 23q-158 1 -174 -165q45 12 134 12zM61 322q1 138 105 224q104 87 252 87q70 0 108 -12v6q0 67 -42 115t-97 49q-84 0 -112 -73t-78 -73q-29 -1 -51 19t-21 55q0 69 60 107t149 38q125 0 188 -78t64 -194v-29q-92 19 -184 19t-179 -60q-86 -60 -86 -160
t72 -160t168 -60t161 44q65 45 64 117v62h53v-62q0 -80 72 -121t174 -41q102 -1 172 59t70 162t-79 161q-126 93 -398 40v19q0 126 68 204t166 78t158 -41t60 -118t-57 -111q70 -33 113 -106t43 -156q-1 -158 -93 -245t-243 -87q-193 0 -254 164q-68 -166 -260 -166
q-137 0 -222 93q-84 93 -84 231z" />
    <glyph glyph-name="si_vocalicL" unicode="&#xd8f;" horiz-adv-x="1638" 
d="M909 672v-23q53 6 129 6t142 -24q34 35 34 75t-39 73q-40 32 -108 32q-68 -1 -113 -37t-45 -102zM578 791q-80 0 -98 -68t-91 -68q-31 -1 -53 19t-23 60q0 40 36 80q36 38 36 58q0 31 -45 31q-98 0 -158 -125q-60 -124 -59 -322q0 -198 63 -300q29 55 90 55q10 0 27 -4
q-37 68 -37 162q0 135 93 210t257 74q20 0 74 -4l2 23q0 55 -33 87t-81 32zM227 106q-1 -20 15 -35t36 -15t35 14t15 35t-14 35t-36 16q-22 0 -36 -15t-15 -35zM1163 891q0 72 97 72q130 -1 208 -137t78 -326t-56 -344t-159 -154q-43 0 -73 30t-29 74v11
q-147 -117 -427 -117t-421 115v-9q0 -44 -31 -74t-74 -30q-102 0 -158 155t-56 344t78 325q79 136 208 137q96 0 96 -72q0 -23 -8 -33q41 10 84 10q109 0 170 -51t62 -149q0 -37 -9 -72q-74 8 -106 8q-129 0 -213 -49t-84 -147t74 -157q136 -110 401 -110q182 0 325 69
q142 69 142 200q0 102 -82 150t-211 48q-59 0 -139 -14q-4 23 -4 61q0 103 61 157t172 54q51 0 95 -16q-11 25 -11 41zM1268 903q-43 0 -43 -31q0 -37 26 -73q35 -41 35 -96t-55 -97q121 -72 121 -233q0 -94 -41 -164q6 2 20 2q61 0 90 -55q31 49 48 143t18 180
q-1 174 -61 299t-158 125zM1280 104q0 -22 14 -34q14 -14 36 -14t36 14q14 16 14 36t-14 34t-37 16q-23 0 -36 -15t-13 -37z" />
    <glyph glyph-name="si_vocalicLL" unicode="&#xd90;" horiz-adv-x="2404" 
d="M909 672v-23q53 6 129 6t142 -24q34 35 34 75t-39 73q-40 32 -108 32q-68 -1 -113 -37t-45 -102zM578 791q-80 0 -98 -68t-91 -68q-31 -1 -53 19t-23 60q0 40 36 80q36 38 36 58q0 31 -45 31q-98 0 -158 -125q-60 -124 -59 -322q0 -198 63 -300q29 55 90 55q10 0 27 -4
q-37 68 -37 162q0 135 93 210t257 74q20 0 74 -4l2 23q0 55 -33 87t-81 32zM227 106q-1 -20 15 -35t36 -15t35 14t15 35t-14 35t-36 16q-22 0 -36 -15t-15 -35zM1163 891q0 72 97 72q130 -1 208 -137t78 -326t-56 -344t-159 -154q-43 0 -73 30t-29 74v11
q-147 -117 -427 -117t-421 115v-9q0 -44 -31 -74t-74 -30q-102 0 -158 155t-56 344t78 325q79 136 208 137q96 0 96 -72q0 -23 -8 -33q41 10 84 10q109 0 170 -51t62 -149q0 -37 -9 -72q-74 8 -106 8q-129 0 -213 -49t-84 -147t74 -157q136 -110 401 -110q182 0 325 69
q142 69 142 200q0 102 -82 150t-211 48q-59 0 -139 -14q-4 23 -4 61q0 103 61 157t172 54q51 0 95 -16q-11 25 -11 41zM1268 903q-43 0 -43 -31q0 -37 26 -73q35 -41 35 -96t-55 -97q121 -72 121 -233q0 -94 -41 -164q6 2 20 2q61 0 90 -55q31 49 48 143t18 180
q-1 174 -61 299t-158 125zM1280 104q0 -22 14 -34q14 -14 36 -14t36 14q14 16 14 36t-14 34t-37 16q-23 0 -36 -15t-13 -37zM1591 641q0 135 74 215h72q-86 -74 -86 -213q0 -72 38 -120t96 -48t86 30q27 30 27 77t-40 92q-2 10 -3 24q-1 78 47 122t132 44q214 0 265 -275
q13 -71 13 -149q0 -192 -74 -318t-223 -126q-106 0 -164 70q-57 70 -57 174q0 39 8 73h51q-6 -33 -6 -63q0 -86 42 -142t123 -56q159 -1 159 423q0 338 -150 338q-111 0 -110 -113v-14q74 -41 74 -112q-1 -70 -55 -110t-140 -40t-142 62t-57 155z" />
    <glyph glyph-name="si_E" unicode="&#xd91;" horiz-adv-x="1189" 
d="M627 969q0 -178 153 -178q96 0 123 90q-82 127 -235 239q-41 -61 -41 -151zM90 330q0 106 58 158t131 67h-21q-162 -2 -225 -14v63h493v12q0 72 -44 123t-99 52q-90 0 -107 -78q-16 -68 -73 -68q-29 -1 -53 19t-23 57q0 63 57 103t146 40q124 0 192 -83t68 -201v-25h-127
q-133 0 -216 -54t-83 -141q0 -118 116 -168t277 -51q225 -1 347 105t122 280t-84 297q-49 -104 -176 -104q-92 -1 -146 69t-54 190t83 216q89 -49 185 -144q254 -253 256 -561q0 -207 -138 -348t-399 -141q-199 0 -331 81t-132 249z" />
    <glyph glyph-name="si_Ee" unicode="&#xd92;" horiz-adv-x="1189" 
d="M627 932q0 -178 153 -178q96 0 123 90q-82 127 -235 239q-41 -61 -41 -151zM90 330q0 106 58 158t131 67h-21q-162 -2 -225 -14v63h481v12q0 62 -37 112t-90 50q-80 0 -107 -72t-79 -71q-29 0 -51 18t-23 54q0 69 61 107t150 38q121 0 180 -82t60 -190v-25h-115
q-133 0 -216 -54t-83 -141q0 -118 116 -168t277 -51q223 1 346 107t123 262t-84 278q-49 -106 -176 -106q-92 0 -146 70t-54 190t83 215q111 -59 232 -196v428q37 -31 124 -66t137 -81t50 -120t-45 -114q-45 -39 -105 -39t-104 14v-92q33 -45 47 -68q105 -163 105 -353
t-140 -330t-397 -140q-199 0 -331 81t-132 249zM1001 1018q109 0 109 96q0 57 -39 95t-133 87v-266q25 -12 63 -12z" />
    <glyph glyph-name="si_Ai" unicode="&#xd93;" horiz-adv-x="2355" 
d="M1796 969q0 -178 154 -178q96 0 123 90q-82 127 -236 239q-41 -61 -41 -151zM1260 330q0 106 58 158t130 67h-21q-162 -2 -225 -14v63h494v12q0 72 -44 123t-100 52q-90 0 -106 -78q-16 -68 -74 -68q-28 -1 -52 19t-24 57q0 63 58 103t145 40q125 0 193 -83t67 -201v-25
h-127q-133 0 -216 -54t-83 -141q0 -118 116 -168t277 -51q226 -1 348 105t122 280t-85 297q-49 -104 -176 -104q-92 -1 -146 69t-54 190t84 216q90 -49 185 -144q253 -253 255 -561q0 -207 -138 -348t-399 -141q-198 0 -330 81t-132 249zM66 428q0 194 158 314
q158 122 381 122q222 0 383 -127t179 -325h-57q-27 176 -170 286q-142 110 -330 111q-188 0 -323 -93q-135 -92 -135 -238t112 -241t269 -95t267 60t109 177q0 78 -54 129t-134 65q37 -39 37 -101t-52 -100q-52 -40 -123 -40t-124 44t-53 112t58 111q58 44 144 44
q162 0 268 -81q106 -80 105 -230q0 -150 -116 -241q-115 -91 -323 -91t-342 117t-134 311zM471 489q0 -39 33 -67t78 -27q46 0 78 28q32 29 32 67t-33 66t-77 28t-78 -28q-33 -28 -33 -67z" />
    <glyph glyph-name="si_Os" unicode="&#xd94;" horiz-adv-x="1271" 
d="M297 864q100 0 100 -123v-67q-1 -78 53 -123t138 -45t137 40t53 105q0 6 -2 11q-12 -29 -49 -57q-37 -27 -97 -27t-101 43q-40 43 -40 103t43 102t121 42t130 -59q53 -59 53 -151t-69 -151q-69 -58 -177 -58t-176 62q-70 62 -70 167v65q0 68 -53 68q-74 0 -121 -93
q-47 -94 -47 -232t76 -242t187 -104t156 41q44 42 44 102v51h49v-53q0 -66 51 -103t133 -37q135 0 212 129t77 301q0 229 -139 384t-373 155q-144 0 -242 -43t-170 -135h-59q156 223 479 223q266 0 421 -185t155 -462q0 -216 -89 -362t-280 -146q-154 0 -201 111
q-59 -111 -219 -111q-111 0 -189 74q-142 134 -143 375q0 171 66 293t172 122zM549 725q1 -39 27 -66t65 -27t67 28q28 26 27 65q0 39 -27 67q-28 28 -67 28t-66 -28q-26 -28 -26 -67z" />
    <glyph glyph-name="si_Oo" unicode="&#xd95;" horiz-adv-x="1271" 
d="M549 725q1 -39 27 -66t65 -27t67 28q28 26 27 65q0 39 -27 67q-28 28 -67 28t-66 -28q-26 -28 -26 -67zM297 864q100 0 100 -123v-67q-1 -78 53 -123t138 -45t137 40t53 105q0 6 -2 11q-12 -29 -49 -57q-37 -27 -97 -27t-101 43q-40 43 -40 103t43 102t121 42t130 -59
q53 -59 53 -151t-69 -151q-69 -58 -177 -58t-176 62q-70 62 -70 167v65q0 68 -53 68q-74 0 -121 -93q-47 -94 -47 -232t76 -242t187 -104t156 41q44 42 44 102v51h49v-53q0 -66 51 -103t133 -37q121 1 196 105q91 127 91 299q0 205 -150 323t-402 119q-252 0 -470 -102v61
q18 8 93 31t75 36t-28 33t-27 46q0 61 98 113t254 52q308 0 449 -173q126 -153 147 -371q33 -76 35 -205v-19q-4 -209 -94 -349t-275 -140q-154 0 -201 111q-59 -111 -219 -111q-111 0 -189 74q-142 134 -143 375q0 171 66 293t172 122zM279 1085q-1 -12 23 -28
q24 -15 24 -25t-7 -16q121 23 238 22q336 0 504 -194q-47 166 -180 251t-314 85q-109 0 -199 -30t-89 -65z" />
    <glyph glyph-name="si_Au" unicode="&#xd96;" horiz-adv-x="2066" 
d="M297 864q100 0 100 -123v-67q-1 -78 53 -123t138 -45t137 40t53 105q0 6 -2 11q-12 -29 -49 -57q-37 -27 -97 -27t-101 43q-40 43 -40 103t43 102t121 42t130 -59q53 -59 53 -151t-69 -151q-69 -58 -177 -58t-176 62q-70 62 -70 167v65q0 68 -53 68q-74 0 -121 -93
q-47 -94 -47 -232t76 -242t187 -104t156 41q44 42 44 102v51h49v-53q0 -66 51 -103t133 -37q135 0 212 129t77 301q0 229 -139 384t-373 155q-144 0 -242 -43t-170 -135h-59q156 223 479 223q266 0 421 -185t155 -462q0 -216 -89 -362t-280 -146q-154 0 -201 111
q-59 -111 -219 -111q-111 0 -189 74q-142 134 -143 375q0 171 66 293t172 122zM549 725q1 -39 27 -66t65 -27t67 28q28 26 27 65q0 39 -27 67q-28 28 -67 28t-66 -28q-26 -28 -26 -67zM1249 641q0 135 74 215h72q-86 -74 -86 -213q0 -72 38 -120t96 -48t86 30q27 30 27 77
t-40 92q-2 10 -3 24q-1 78 47 122t132 44q214 0 265 -275q13 -71 13 -149q0 -192 -74 -318t-223 -126q-106 0 -164 70q-57 70 -57 174q0 39 8 73h51q-6 -33 -6 -63q0 -86 42 -142t123 -56q159 -1 159 423q0 338 -150 338q-111 0 -110 -113v-14q73 -41 73 -112
q0 -70 -54 -110t-140 -40t-142 62t-57 155z" />
    <glyph glyph-name="si_Ka" unicode="&#xd9a;" horiz-adv-x="1490" 
d="M403.5 141q71.5 0 114.5 46t43 137v2h53v-2q0 -96 41 -139.5t127 -43.5t126 55.5t40 120.5q0 123 -97 194t-251 71t-235 -35q-47 -43 -107 -123q-84 -121 -119 -234q20 10 41 10.5t86.5 -29.5t137 -30zM385 705q0 80 -70 79q-25 0 -50 -15q-35 -21 -42 -86
q-9 -89 -86 -89q-45 0 -62.5 28.5t-17.5 57.5q0 80 63.5 133t145.5 53t128 -42t46 -111q0 -20 -2 -31q193 186 467 186q221 0 359.5 -138t138.5 -345q0 -145 -75 -266t-216 -121q-68 0 -100 25v53q35 -25 106.5 -25t125.5 73t54 181q0 193 -144 311.5t-360 118.5t-356 -119
q63 16 166 17q186 0 306 -100.5t120 -280.5q0 -100 -59.5 -177t-187 -77t-191.5 129q-55 -129 -184 -129q-58 0 -100 24t-58 50q-46 74 -76 73q-70 0 -80 -122l-51 20q12 96 64.5 220t98.5 186.5t130 152.5q49 53 49 103z" />
    <glyph glyph-name="si_Kha" unicode="&#xd9b;" horiz-adv-x="1259" 
d="M461.5 793q162.5 0 263 -77t100.5 -200q0 -158 -133 -287q6 2 25 2t61.5 -49t89.5 -49q92 0 158 150.5t66 318.5q0 248 -138.5 398.5t-365.5 150.5q-272 0 -393 -211h-68q143 262 469 262q250 0 410.5 -175t160.5 -456q0 -221 -92 -396t-244 -175q-43 0 -75 18
q-34 16 -48 36q-41 54 -67 55q-47 0 -162 -152l-71 6q15 15 74 89.5t93 115.5q158 188 158 297q0 174 -262 174q-135 0 -239.5 -84t-104.5 -244q0 -61 16 -108q12 41 49 64.5t92.5 23.5t95.5 -41t40 -101.5t-40 -105.5t-108 -45q-70 0 -122 64q-88 106 -87.5 306
t118.5 312.5t280.5 112.5zM186 143.5q0 -34.5 26 -60.5t60.5 -26t60 26t25.5 60.5t-25.5 60t-60 25.5t-60.5 -25.5t-26 -60z" />
    <glyph glyph-name="si_Ga" unicode="&#xd9c;" horiz-adv-x="1271" 
d="M467 815h-23q-129 0 -218 -101.5t-89 -243.5t74 -235.5t201 -93.5q96 0 160.5 45t64.5 129q0 55 -27.5 87t-65.5 32t-59 -14q-4 -25 -4 -35h-49q16 205 115.5 342t266.5 137t262 -125t95 -308t-120.5 -308t-313.5 -125q-16 0 -61 4v49q33 -4 49 -4q158 0 259 100.5
t101 253t-81.5 246.5t-206 94t-202 -75.5t-101.5 -194.5q20 10 47 10q74 0 119 -56t45 -165t-80 -186.5t-209 -77.5q-160 0 -254 122t-94 303t105.5 312t266.5 131l27 -2v-47z" />
    <glyph glyph-name="si_Gha" unicode="&#xd9d;" horiz-adv-x="1353" 
d="M900 633q97 0 151 -21q29 31 28.5 79t-40.5 71.5t-99 23.5q-162 1 -176 -165q39 12 136 12zM397 -2q-131 0 -213 93t-82 216q0 193 174 258q-221 -4 -266 -12v63h551v9q0 72 -40 119t-97 47q-82 0 -110 -73t-78 -73q-29 0 -50.5 19.5t-21.5 54.5q0 68 61.5 106.5
t149.5 38.5q125 0 188.5 -77.5t63.5 -194.5v-27h-195q-92 0 -173 -57t-81 -151.5t70.5 -155t175.5 -60.5q55 0 65 11q-6 31 -6 61q0 100 55.5 143t125 43t125 -43t55.5 -143q0 -31 -6 -61q10 -10 65 -11q111 0 197 58.5t86 160.5t-75 162t-197.5 60t-206.5 -19v19
q0 127 67.5 204.5t166.5 77.5t157.5 -41t58.5 -118t-57 -111q70 -33 112.5 -105.5t42.5 -156.5q0 -158 -91 -246t-234 -88q-74 0 -156 25q-8 16 -8 48t9 69.5t9 86.5t-37.5 82t-83 33t-82 -33t-36.5 -96l16 -143q0 -35 -6 -47q-82 -25 -158 -25z" />
    <glyph glyph-name="si_Nga" unicode="&#xd9e;" horiz-adv-x="1232" 
d="M178 307q0 -74 54.5 -120t137.5 -46t140 40t57 108v65h56v-65q0 -66 60 -108t140 -42q117 0 181.5 118t64.5 306q0 236 -146.5 394.5t-376 158.5t-390.5 -180h-64q178 227 469 227q242 0 411 -184t169 -459q0 -227 -82 -373.5t-228 -146.5q-88 0 -136 27.5t-99 91.5
q-94 -119 -217 -119t-200 80t-77 192.5t75 178t181 65.5l201 -14q127 0 127 119q0 98 -82 149t-176 51q-31 0 -63 -4q80 -43 79 -127q0 -57 -46 -101t-112 -44t-115.5 42t-49.5 115.5t80 119.5t223.5 46t231 -72.5t87.5 -183.5q0 -68 -46 -115.5t-138 -47.5l-197 12
q-78 0 -131 -40t-53 -114zM176 694q0 -41 32 -69.5t77 -28.5t74.5 28.5t29.5 69.5t-29.5 70t-74.5 29t-77 -29t-32 -70z" />
    <glyph glyph-name="si_Nnga" unicode="&#xd9f;" horiz-adv-x="1497" 
d="M700 815h-22q-129 0 -217 -100.5t-88 -243.5t72.5 -236.5t199.5 -93.5q96 0 160.5 45t64.5 129q0 55 -27.5 87t-64.5 32t-57 -14q-4 -25 -4 -35h-51q16 203 116.5 341t267.5 138t262 -125t95 -308t-121 -308t-313 -125q-18 0 -64 4v49q33 -4 49 -4q158 0 260.5 100.5
t102.5 253t-83 246.5t-207 94t-201.5 -75.5t-102.5 -194.5q20 10 47 10q74 0 119 -56t45 -165t-80 -186.5t-209 -77.5q-160 0 -254 122t-94 274.5t53.5 261t147.5 163.5q-389 -6 -389 -381q0 -242 157 -377v-59q-98 49 -157.5 170t-59.5 272q0 201 108.5 312.5t297 111.5
t215.5 -2l26 -2v-47z" />
    <glyph glyph-name="si_Ca" unicode="&#xda0;" 
d="M127 330q-1 104 59 158t129 67h-18q-209 -2 -268 -14v63h544v12q0 78 -42 126.5t-91 48.5t-75.5 -15.5t-32.5 -28t-17 -36.5q-25 -66 -77 -66q-29 0 -50.5 19.5t-21.5 54.5q0 68 61.5 106.5t149.5 38.5q129 0 195.5 -75.5t66.5 -208.5v-25h-139q-131 0 -214 -54t-83 -141
q0 -117 115.5 -168t277.5 -51q227 0 356 122t129 336t-137 360.5t-338 146.5q-240 0 -375 -166h-63q150 213 438 213q238 0 391.5 -174t153.5 -426t-146.5 -402.5t-414.5 -150.5q-199 0 -331 81t-132 249z" />
    <glyph glyph-name="si_Cha" unicode="&#xda1;" 
d="M870 375q80 0 119 108q-70 84 -235 92q3 -200 116 -200zM66 341q0 122 94 203t256 81q29 0 39 -2q4 29 4 39q0 51 -26.5 85.5t-79 34.5t-79.5 -57q-14 -31 -22 -44q-23 -38 -62 -38t-61.5 21.5t-22.5 56.5q0 70 56.5 106.5t145.5 36.5t148.5 -57t59.5 -156q0 -41 -8 -76
q-29 4 -49 5q-164 0 -242 -62.5t-78 -145.5q0 -84 71 -138q122 -94 376 -94q252 0 372 94q70 54 70 139q0 25 -6 45q-53 -98 -146.5 -98.5t-134.5 72.5t-43 186q-66 -4 -131 -9q-10 37 -10 70q0 193 186 225q51 145 117 228q115 143 223 143q23 0 38.5 -13.5t15.5 -35
t-18.5 -33.5t-47.5 -16t-76 -30q-120 -66 -188 -237h4q113 0 183.5 -69.5t70.5 -206.5q0 -51 -12 -100q45 -68 45 -171.5t-75 -181.5q-136 -141 -427 -141q-147 0 -262 30.5t-191.5 109.5t-76.5 201zM612 647q0 -18 2 -26q29 4 84 4q6 90 29 182q-115 -39 -115 -160z
M1008 590q0 229 -203 229h-17q-29 -92 -34 -196q162 -6 250 -78q4 29 4 45z" />
    <glyph glyph-name="si_Ja" unicode="&#xda2;" 
d="M586 662q0 158 151 196q41 164 174 285q100 92 176 92q23 0 36.5 -13.5t13.5 -33.5t-37 -40q-38 -20 -100 -52q-147 -77 -199 -230q12 2 37 2q74 0 138 -41t64 -129.5t-94 -117.5q152 -70 152 -244q0 -117 -75 -195q-136 -141 -427 -141q-147 0 -262 30.5t-191.5 109.5
t-76.5 201t94 203t256 81q37 0 53 -2q4 29 4 39q0 51 -27.5 85.5t-84.5 34.5t-81 -50t-42.5 -69.5t-52.5 -19.5t-54 21.5t-20 58.5q0 70 59 105.5t148 35.5t151.5 -57t62.5 -156q0 -41 -8 -76q-49 4 -65 5q-164 0 -242 -62.5t-78 -145.5q0 -84 71 -138q122 -94 376 -94
q252 0 372 94q70 54 70 139.5t-79 145t-238 59.5l-111 -9q-14 45 -14 93zM725 750q0 33 2 47q-82 -33 -82 -129q0 -21 6 -50q70 8 113 3q-39 51 -39 129zM879 623q45 0 72.5 24.5t27.5 68.5t-41 70.5t-89.5 26.5t-62.5 -2q-4 -41 -4 -79.5t26 -73.5t71 -35z" />
    <glyph glyph-name="si_Jha" unicode="&#xda3;" horiz-adv-x="2172" 
d="M385 705q0 80 -70 79q-25 0 -50 -15q-35 -21 -42 -86q-9 -89 -86 -89q-45 0 -62.5 28.5t-17.5 57.5q0 80 63.5 133t145.5 53t128 -42t46 -111q0 -20 -2 -31q203 186 512 186q266 0 391 -71v-52h-18q-119 0 -204 -94t-85 -219t67.5 -208t164 -83t156 41t59.5 129v80h55
v-80q0 -88 57.5 -129t141.5 -41q135 0 204.5 127t69.5 299q0 236 -148.5 390.5t-379 154.5t-387.5 -176h-64q172 223 467 223q246 0 414 -180t168 -457q0 -133 -29 -244.5t-107.5 -194.5t-197.5 -83q-150 0 -240 119q-94 -119 -225 -119q-176 0 -262 166q-20 -74 -76.5 -121
t-146.5 -47q-139 0 -203 129q-55 -129 -184 -129q-58 0 -100 24t-58 50q-46 74 -76 73q-70 0 -80 -122l-51 20q12 96 64.5 220t98.5 186.5t130 152.5q49 53 49 103zM604 633q258 0 369 -170q16 113 80.5 196.5t150.5 114.5q11 0 23 6q-111 31 -279 31q-287 0 -510 -195
q64 17 166 17zM403.5 141q71.5 0 114.5 46t43 137v2h53v-2q0 -96 41 -139.5t127 -43.5t126 55.5t40 120.5q0 123 -97 194t-251 71t-235 -35q-47 -43 -107 -123q-84 -121 -119 -234q20 10 41 10.5t86.5 -29.5t137 -30z" />
    <glyph glyph-name="si_Nya" unicode="&#xda4;" horiz-adv-x="2048" 
d="M854 633q264 0 373 -176q68 176 362 176h242q-14 68 -79.5 114t-127 46t-91.5 -60.5t-85 -60.5q-76 0 -76 71q0 51 51 86h-57q-141 0 -238 -18q-246 -45 -440 -195q64 17 166 17zM1628 588q-268 0 -268 -244q0 -125 89 -209t219 -84t245 133l45 -37q-65 -65 -91 -102
q-25 -37 -55 -81q-56 -84 -56.5 -174.5t51 -137.5t155.5 -72v-55q-39 -8 -125 -7t-140.5 55t-54.5 142q0 117 140 305q-84 -25 -170 -24q-248 0 -350 149q-57 -147 -207 -147t-213 129q-55 -129 -185 -129q-59 0 -100 24t-57 50q-46 74 -76 73q-70 0 -80 -122l-51 20
q12 96 65.5 219t102.5 191.5t113 136.5q64 66 63 108q0 86 -72 86q-25 0 -51 -15q-35 -20 -41 -86q-9 -89 -86 -89q-45 0 -62.5 28.5t-17.5 57.5q0 68 51 123l-4 -2q-115 -29 -178 -122t-63 -243q0 -242 157 -377v-59q-98 49 -157.5 170t-59.5 272q0 201 108.5 313.5
t315.5 112.5q119 0 166 -44t47 -111q0 -20 -2 -31q263 201 690 203q168 0 271 -29q209 -39 254 -268h-275zM653.5 141q71.5 0 114.5 46t43 137v2h53v-2q0 -96 41 -139.5t127 -43.5t126 55.5t40 120.5q0 123 -97 194t-251 71t-236 -35q-47 -43 -106 -123q-84 -121 -119 -234
q20 10 41 10.5t86.5 -29.5t137 -30z" />
    <glyph glyph-name="si_Jnya" unicode="&#xda5;" horiz-adv-x="1683" 
d="M739 481q70 0 115 -51q55 205 373 205h239q-16 72 -59 115t-103.5 43t-90.5 -60.5t-83 -60.5q-76 0 -75 71q0 45 35 76h-15q-156 0 -252 -93t-129 -255q20 10 45 10zM666 815h-23q-129 0 -217 -100.5t-88 -243.5t73.5 -236.5t200.5 -93.5q96 0 160 45t64 129q0 55 -28 87
t-65 32t-55 -14q-4 -25 -4 -35h-53q45 492 489 492q125 0 197 -17q176 -35 221 -272h-274q-268 0 -269 -242q0 -125 90.5 -209t220.5 -84t242 131l45 -34q-49 -49 -99 -118t-75.5 -119t-25.5 -132t50 -129t154 -72v-55q-39 -8 -123.5 -7t-140 55t-55.5 142q0 117 139 305
q-76 -23 -170 -22q-264 0 -362 170q-31 -80 -100.5 -126t-168.5 -46q-160 0 -254 122t-94 296q0 127 50.5 233.5t138.5 163.5q-182 -2 -263 -108.5t-81 -266.5q0 -242 157 -377v-59q-98 49 -157.5 170t-59.5 272q0 201 108.5 312.5t315.5 111.5q141 0 168 -2l21 -2v-47z" />
    <glyph glyph-name="si_Ndja" unicode="&#xda6;" horiz-adv-x="1396" 
d="M1290 1235q47 0 47 -43q0 -23 -36.5 -43.5t-98.5 -52.5q-151 -80 -201 -230q12 2 39 2q74 0 137.5 -41t63.5 -129.5t-94 -117.5q154 -70 153 -244q0 -117 -74 -195q-135 -141 -427 -141q-147 0 -262 30.5t-192 109.5t-77 201t94.5 203t255.5 81q37 0 54 -2q4 29 4 39
q0 49 -29 84.5t-86 35.5t-84 -57q-15 -31 -23 -44q-25 -38 -62.5 -38t-59 22.5t-21.5 61.5t25 68q-106 -31 -164.5 -123t-58.5 -236q0 -242 157 -377v-59q-98 49 -157.5 170t-59.5 272q0 201 108.5 312.5t315.5 111.5q143 0 199.5 -62.5t56.5 -152.5q0 -41 -8 -76
q-49 4 -66 5q-164 0 -240.5 -62.5t-76.5 -145.5q0 -84 70 -138q122 -93 376 -93q254 -1 374 93q70 54 69.5 139.5t-80.5 145t-240 59.5l-108 -9q-14 45 -15 93q0 158 152 196q41 164 174 285q100 92 176 92zM928 750q0 33 2 47q-82 -33 -82 -129q0 -21 6 -50q66 8 113 3
q-39 51 -39 129zM1079 623q45 0 73 24.5t28 68.5t-40 70.5t-89.5 26.5t-61.5 -2q-6 -31 -6 -74.5t25.5 -78.5t70.5 -35z" />
    <glyph glyph-name="si_Tta" unicode="&#xda7;" horiz-adv-x="1204" 
d="M63 404q0 178 118 278t284 100q92 0 176 -32v-58q-74 37 -192.5 37t-218 -78t-99.5 -218t127 -216t295 -76q221 0 357.5 118t136.5 329t-144.5 364.5t-351.5 153.5q-242 0 -371 -166h-65q145 213 432 213q252 0 409.5 -179t157.5 -423t-152.5 -398.5t-386 -154.5
t-373 114t-139.5 292z" />
    <glyph glyph-name="si_Ttha" unicode="&#xda8;" horiz-adv-x="1226" 
d="M692 983q0 -176 154 -176q98 0 125 90q-80 125 -238 240q-41 -62 -41 -154zM66 377.5q0 148.5 68 254.5q106 164 308 165v-52h-20q-119 0 -204 -94t-85 -219t68.5 -208t165 -83t155 41t58.5 129v80h57v-80q0 -88 56.5 -129t140.5 -41q135 0 205.5 102.5t70.5 250.5
q0 96 -31.5 192t-70.5 154q-49 -106 -177 -107q-92 0 -145 70.5t-53 190.5t84 216q90 -49 185 -144t151 -189q125 -213 125 -412q0 -254 -136 -388q-78 -77 -211.5 -77t-224.5 119q-94 -119 -232 -119t-223 114.5t-85 263z" />
    <glyph glyph-name="si_Dda" unicode="&#xda9;" horiz-adv-x="1292" 
d="M31 575v56h491q-4 63 -43 107t-91 44t-83 -52t-71 -52t-61 19.5t-21 50.5q0 55 54 85.5t124 30.5q123 0 190.5 -77.5t69.5 -211.5h-150q-131 0 -202.5 -67.5t-71.5 -155.5t61.5 -149.5t154.5 -61.5t154.5 39t61.5 107v69h53v-69q0 -66 58.5 -106t138.5 -40
q137 0 206.5 117t69.5 289q0 237 -148 401q-150 164 -384 164t-379 -176h-68q158 227 463 227q260 0 424 -182t164 -465q0 -217 -86 -366.5t-242 -149.5t-241 119q-97 -119 -235 -119t-219 96.5t-81 227.5q0 80 40 149.5t118 101.5h-219z" />
    <glyph glyph-name="si_Ddha" unicode="&#xdaa;" horiz-adv-x="1292" 
d="M694 963q0 -176 154 -177q88 0 145 115q-115 162 -248 232q-51 -59 -51 -170zM31 575v56h485q-4 63 -43 107t-90 44t-82 -52t-72 -52t-62.5 19.5t-21.5 50.5q0 55 54.5 85.5t124.5 30.5q123 0 190.5 -77.5t69.5 -211.5h-144q-131 0 -202.5 -67.5t-71.5 -155.5
t61.5 -149.5t154.5 -61.5t154.5 39t61.5 107v69h53v-69q0 -66 58.5 -106t138.5 -40q137 0 205.5 108.5t68.5 273.5t-92 325q-70 -123 -176 -123t-161.5 64.5t-55.5 176.5t82 240q182 -72 329.5 -277.5t147.5 -423.5t-84 -361.5t-260 -143.5q-139 0 -225 119
q-97 -119 -235 -119t-219 96.5t-81 227.5q0 80 40 149.5t118 101.5h-219z" />
    <glyph glyph-name="si_Nna" unicode="&#xdab;" horiz-adv-x="1925" 
d="M1468 211q0 -143 115 -143q70 0 95.5 70.5t25.5 195.5t-26.5 204.5t-80.5 79.5q-111 0 -120 -215q6 -37 6 -90.5t-15 -99.5v-2zM1292 135q57 0 93 51.5t36 137.5q0 188 -133 188q-82 0 -121 -104q-4 -53 -14 -95q2 -76 42 -127t97 -51zM592 508q0 -51 36 -87t87 -36
t86 36t35 87t-35 87t-86 36t-87 -36t-36 -87zM535 506q0 47 22 86l-151 -78q37 -125 194 -147q-65 59 -65 139zM700 145q168 0 283 88.5t115 239.5q0 195 -162 289q-100 -41 -188 -80q63 -10 105 -61.5t42 -110.5t-33 -105.5t-84 -66.5q-57 -27 -150 -27t-170 47.5
t-106 126.5q-45 -27 -123 -69q53 0 131 -96q32 -40 73.5 -79.5t111 -67.5t155.5 -28zM397 575v-6q203 111 465 226q-72 20 -147 20q-135 0 -226.5 -67t-91.5 -173zM1657 1055q70 0 69 -56q0 -43 -61.5 -56.5t-268 -51t-399.5 -107.5q139 -96 164 -276q57 63 140 63t137 -69
q6 80 56 137t140 57t143.5 -103.5t53.5 -257t-56.5 -245.5t-175.5 -92q-74 0 -118.5 40t-53.5 97q-51 -63 -123 -63q-132 0 -188 143q-113 -215 -387 -215q-92 0 -164.5 26.5t-112.5 67.5q-87 89 -134 178.5t-119 89.5q-51 0 -133 -55l-23 49q123 84 299 183q-2 8 -2 26
q0 143 108.5 222t270.5 79q109 0 211 -45q558 234 727 234z" />
    <glyph glyph-name="si_Nndda" unicode="&#xdac;" horiz-adv-x="1460" 
d="M205 575v56h491q-4 63 -43 107t-91 44t-83 -52t-71 -52t-61 19.5t-21 47.5t14 52q-109 -31 -168 -123t-59 -238q0 -242 157 -377v-59q-98 49 -157.5 170t-59.5 272q0 201 108.5 312.5t315.5 111.5q66 0 109 -12q84 -25 130 -97.5t48 -181.5h-150q-131 0 -202.5 -67.5
t-71.5 -155.5t61.5 -149.5t154.5 -61.5t154.5 39t61.5 107v69h53v-69q0 -66 58.5 -106t138.5 -40q137 0 206.5 117t69.5 289q0 237 -148 401t-384 164t-381 -176h-66q158 227 463 227q260 0 424 -182t164 -465q0 -217 -86 -366.5t-242 -149.5t-241 119q-97 -119 -235 -119
t-219 96.5t-81 227.5q0 80 40 149.5t118 101.5h-219z" />
    <glyph glyph-name="si_Ta" unicode="&#xdad;" horiz-adv-x="1406" 
d="M197.5 217q36.5 0 129.5 -36t208.5 -36t207 56.5t91.5 167t-80 167t-213.5 56.5t-227.5 -72q-111 -137 -172 -319q20 16 56.5 16zM358 698q0 78 -59 78t-61 -63q-4 -123 -86 -123q-37 0 -57.5 27.5t-20.5 66.5q0 76 53 129t127 53t116 -43t42 -110q0 -8 -2 -19
q160 176 436 176q211 0 346 -138t135 -361q0 -158 -75.5 -265.5t-209.5 -107.5q-76 0 -133 31v59q57 -35 113 -35q94 0 146.5 72t52.5 176q0 184 -140.5 320.5t-350.5 136.5t-329 -146q61 27 160 27q160 0 258.5 -81t98.5 -228t-96.5 -240.5t-258.5 -93.5
q-100 0 -169.5 25.5t-96.5 55t-56.5 55.5t-62.5 26q-61 0 -90 -140l-45 31q18 147 98 301t176 262q41 47 41 86z" />
    <glyph glyph-name="si_Tha" unicode="&#xdae;" horiz-adv-x="1226" 
d="M670 983q0 -176 153 -176q98 0 125 90q-82 127 -235 240q-43 -64 -43 -154zM66 469q0 162 128 276.5t295 114.5v-49q-147 0 -251.5 -94t-104.5 -234q0 -172 133 -257t336 -85t332 116t129 292t-78 291q-49 -106 -174 -107q-92 0 -146.5 70.5t-54.5 190.5t84 216
q90 -49 186 -144q252 -251 253 -562q0 -223 -155 -364.5t-382 -141.5t-378.5 130t-151.5 341z" />
    <glyph glyph-name="si_Da" unicode="&#xdaf;" horiz-adv-x="911" 
d="M61 338q0 297 385 297h240q-16 72 -59 115t-103.5 43t-90.5 -60.5t-83 -60.5q-76 0 -76 71q0 53 53.5 88t137.5 35q127 0 195.5 -66.5t97.5 -211.5h-275q-268 0 -268 -242q0 -125 90 -209t220 -84t243 131l45 -34q-49 -49 -99 -118t-76 -120t-26 -132t50.5 -128
t154.5 -72v-55q-39 -8 -123.5 -7t-140 55t-55.5 142q0 115 141 305q-76 -23 -170 -22q-193 0 -300.5 93t-107.5 247z" />
    <glyph glyph-name="si_Dha" unicode="&#xdb0;" horiz-adv-x="1275" 
d="M66 377.5q0 148.5 68 254.5q106 164 308 165v-52h-20q-119 0 -204 -94t-85 -219t68.5 -208t165 -83t155 41t58.5 129v80h57v-80q0 -88 56.5 -129t140.5 -41q135 0 205.5 127t70.5 299q0 236 -149.5 390.5t-379 154.5t-386.5 -176h-66q172 223 469 223q246 0 413 -180
t167 -457q0 -133 -29 -244.5t-107.5 -194.5t-211.5 -83t-224 119q-94 -119 -232 -119t-223 114.5t-85 263z" />
    <glyph glyph-name="si_Na" unicode="&#xdb1;" horiz-adv-x="1611" 
d="M907 381q0 82 -68.5 134t-165.5 52t-167 -28.5t-107 -74.5t-63 -94q-70 -132 -123 -165q139 -61 313 -61.5t277.5 60t103.5 177.5zM268 690q-4 -96 -80.5 -96t-76.5 104q0 54 53 109t146 55t144.5 -58.5t51.5 -137.5q0 -20 -4 -35q84 98 222 166.5t288 68.5
q215 0 361.5 -138t146.5 -361q0 -170 -87 -269.5t-206 -99.5q-90 0 -144 45v61q57 -53 137 -53t134.5 66.5t54.5 181.5q0 203 -155.5 321.5t-372.5 118.5t-349 -149q74 27 158 26q127 0 216 -79.5t89 -198.5q0 -166 -123.5 -253t-318.5 -87q-379 0 -500 250q43 -18 85 -18.5
t78 44.5t87 133.5t100.5 137.5t49.5 108q0 125 -101 125q-41 0 -61.5 -25.5t-22.5 -62.5z" />
    <glyph glyph-name="si_Nda" unicode="&#xdb3;" horiz-adv-x="1050" 
d="M229 338q0 297 385 297h240q-16 66 -73.5 109.5t-118 43.5t-91.5 -57q-29 -59 -82 -59q-76 0 -75 71q0 41 24 66q-326 -29 -325 -373q0 -242 157 -377v-59q-98 49 -157.5 170t-59.5 272q0 203 114 315.5t343 112.5q31 0 98 -6q123 -4 207 -73.5t111 -202.5h-275
q-266 0 -266 -242q0 -125 89 -209t219 -84t243 131l45 -34q-46 -46 -98 -116q-51 -70 -77 -122.5t-26 -132.5t50.5 -127t154.5 -72v-55q-39 -8 -123.5 -7t-140 55t-55.5 142q0 115 141 305q-76 -23 -170 -22q-193 0 -300.5 93t-107.5 247z" />
    <glyph glyph-name="si_Pa" unicode="&#xdb4;" horiz-adv-x="1230" 
d="M707 672q0 -14 2 -23q51 6 127.5 6t142.5 -24q31 31 31 73.5t-39 74.5t-106.5 32t-112.5 -36.5t-45 -102.5zM377 791q-80 0 -98 -68t-91 -68q-31 0 -54 19.5t-23 54.5q0 63 59 101t157.5 38t161 -51t62.5 -149q0 -37 -8 -72q-74 8 -109 8q-129 0 -213 -49t-84 -147
t74 -158q134 -110 403 -109q182 0 323.5 69t141.5 200q0 102 -80.5 150t-210.5 48q-63 0 -141 -14q-6 35 -6 61q0 102 63.5 156.5t165 54.5t156.5 -47t55 -110.5t-53 -102.5q121 -72 121 -245.5t-152.5 -267t-382.5 -93.5q-158 0 -276.5 33t-197.5 119t-79 219t94.5 207.5
t258.5 74.5q20 0 73 -4l2 23q0 55 -31.5 87t-80.5 32z" />
    <glyph glyph-name="si_Pha" unicode="&#xdb5;" horiz-adv-x="1157" 
d="M602 969q0 -178 154 -178q98 0 125 90q-80 125 -238 239q-41 -61 -41 -151zM66 321q0 297 393 297h39v13q0 66 -39 113t-94 47q-82 0 -110 -73t-79 -73q-29 0 -50.5 19.5t-21.5 54.5q0 68 60.5 106.5t148.5 38.5q123 0 185.5 -79.5t62.5 -190.5v-27h-119q-141 0 -222 -54
t-81 -162t117 -159t279 -51q225 0 345.5 105.5t120.5 280t-83 296.5q-49 -104 -177 -104q-92 0 -145 69.5t-53 189.5t84 216q90 -48 185 -144q255 -256 255 -561q0 -207 -139.5 -348t-399.5 -141q-199 0 -330.5 81t-131.5 240z" />
    <glyph glyph-name="si_Ba" unicode="&#xdb6;" horiz-adv-x="1236" 
d="M66 390q0 173 117.5 288t310.5 115q145 0 248.5 -76t103.5 -209q0 -134 -84 -180q-35 -20 -70 -33q-84 -34 -84 -92q0 -76 94 -76q156 0 257.5 158.5t101.5 360.5t-128 339t-349 137q-279 0 -396 -182h-61q53 109 171 169t286 60q264 0 415.5 -163.5t151.5 -438.5
q0 -327 -168 -486q-90 -85 -221 -85q-92 0 -153.5 52t-61.5 126.5t35.5 113t79 51.5t79 47t35.5 87q0 82 -90 124t-224 42t-234.5 -82t-100.5 -233q0 -92 27 -142q6 53 46 88t102.5 35t109.5 -44t47 -110.5t-48.5 -109.5t-111.5 -43q-115 0 -174 109.5t-59 282.5zM203 151.5
q0 -38.5 28.5 -68.5t67.5 -30t68.5 30t29.5 68.5t-29.5 68.5t-68.5 30t-67.5 -30t-28.5 -68.5z" />
    <glyph glyph-name="si_Bha" unicode="&#xdb7;" horiz-adv-x="1339" 
d="M12 606h432q0 66 -34.5 113t-90 47t-77 -56t-83 -56.5t-61.5 73.5q0 51 45 94t125 43q113 0 176.5 -89t65.5 -220q-25 4 -51 4q-111 0 -199 -55t-88 -154.5t79 -153t190.5 -53.5t181 47.5t69.5 137.5q0 45 -19.5 70.5t-49.5 25.5q-47 0 -68 -59l-45 20q14 193 124.5 336
t265.5 143t248 -128t93 -311t-121 -305t-303 -122q-39 0 -82 6v53q37 -6 74 -6q150 0 244 92.5t94 240.5t-77 244.5t-210 96.5q-223 0 -287 -266q25 14 71 14t83 -51t37 -131q0 -135 -92 -214t-240 -79t-241 86t-93 234.5t152 236.5q-193 -4 -238 -12v63z" />
    <glyph glyph-name="si_Ma" unicode="&#xdb8;" horiz-adv-x="1261" 
d="M307 811q-72 0 -122 -80t-50 -196q0 -193 134 -293.5t348 -100.5t348.5 131t134.5 341t-142.5 358.5t-351.5 148.5q-246 0 -387 -182h-63q74 113 191.5 173t256.5 60q238 0 401.5 -172t163.5 -428.5t-149.5 -413.5t-400 -157t-402 134.5t-151.5 365.5q0 143 67.5 253.5
t175.5 110.5t109 -119l-10 -141q0 -80 53 -124t142 -44t144.5 52.5t55.5 127t-29 115.5q4 -20 4 -45q0 -59 -41 -101t-111.5 -42t-114.5 50t-44 114.5t49 110.5t136 46t148.5 -68.5t61.5 -177t-74.5 -177t-181 -68.5t-183.5 54t-77 163l14 168q0 53 -53 53zM528 704.5
q0 -40.5 29 -69.5t70 -29t69.5 29t28.5 69.5t-28.5 69.5t-69.5 29t-70 -29t-29 -69.5z" />
    <glyph glyph-name="si_Mba" unicode="&#xdb9;" horiz-adv-x="1271" 
d="M549 725q0 -39 26.5 -65.5t65.5 -26.5t66.5 26.5t27.5 65.5t-27.5 66.5t-66.5 27.5t-65.5 -27.5t-26.5 -66.5zM297 864q100 0 100 -123v-67q0 -78 53.5 -123t137.5 -45t137 40t53 105q0 6 -2 11q-12 -29 -49 -56.5t-97.5 -27.5t-100.5 43t-40 103t43 102t121 42
t130.5 -59t52.5 -151.5t-69 -150.5t-176.5 -58t-177 62t-69.5 167v65q0 68 -53 68q-74 0 -121 -93t-47 -227.5t70.5 -241t189.5 -106.5q49 0 68 15q-6 25 -7 57q0 96 56.5 140t120 44t120 -44t56.5 -140q0 -33 -6 -57q18 -14 67 -15q100 0 175 133.5t75 294.5
q0 229 -139.5 385t-372.5 156q-145 0 -240.5 -44t-169.5 -136h-61q158 225 475 225q272 0 426 -185.5t154 -463.5q0 -205 -94.5 -356.5t-258.5 -151.5q-72 0 -127 35q0 20 19 77.5t18.5 105.5t-33 86t-84 38t-85 -38t-33.5 -77t19 -100.5t20 -91.5q-55 -35 -129 -35
q-166 0 -259.5 137.5t-93.5 310.5t65.5 294.5t172.5 121.5z" />
    <glyph glyph-name="si_Ya" unicode="&#xdba;" horiz-adv-x="1271" 
d="M836.5 649q95.5 0 156.5 -20q45 20 45 68t-40 73t-97 25q-193 0 -201 -156q41 10 136.5 10zM59 380q0 171 106.5 284.5t280.5 113.5q18 0 56 -4v-55q-33 6 -64 6q-133 0 -222 -86t-89 -214t72.5 -206t169 -78t159 41t62.5 111v59h53v-57q0 -70 67.5 -112t173 -42
t166 63.5t60.5 168.5q0 227 -295 227q-88 0 -172 -22q-2 14 -2 43q0 119 67.5 182t177.5 63q230 0 230 -151q0 -33 -18.5 -65t-55.5 -44q141 -84 142 -272q0 -145 -87 -240.5t-225 -95.5q-195 0 -258 143q-68 -143 -241 -143q-147 0 -230.5 105.5t-83.5 276.5z" />
    <glyph glyph-name="si_Ra" unicode="&#xdbb;" horiz-adv-x="1054" 
d="M523 821q-149 -1 -271 -101t-121 -245q0 -145 95 -237t254 -92t270 102q110 104 110 256t-94 234q-94 83 -243 83zM61 426q0 283 277 403q25 9 127 47q235 86 356 177q41 29 78 71t59 67q23 24 48 23q47 0 47 -36q0 -84 -168 -179q-154 -90 -303 -131q160 -6 271 -130
t111 -298t-134 -308q-134 -132 -327 -132t-318 121q-124 121 -124 305z" />
    <glyph glyph-name="si_La" unicode="&#xdbd;" horiz-adv-x="1339" 
d="M1151 588q0 221 -429 221q-206 0 -357.5 -140.5t-151.5 -346.5q0 -248 152.5 -395.5t396.5 -147.5q172 0 299 94t127 258q0 20 -8 37h67v-29q0 -205 -152.5 -325.5t-371.5 -120.5q-287 0 -474.5 150.5t-187.5 427t184.5 435t477 158.5t425.5 -126q75 -72 75 -175.5
t-73 -162t-178 -58.5t-171 59.5t-66 161.5h-205v53h506v-53h-243v-8q0 -53 53 -88t132 -35t126 41t47 115z" />
    <glyph glyph-name="si_Va" unicode="&#xdc0;" 
d="M66 330q0 127 90 202.5t241 75.5h123v8q0 78 -42 126.5t-91 48.5t-75.5 -15.5t-35 -28t-16.5 -36.5q-25 -66 -76 -66q-29 0 -50 19.5t-21 54.5q0 68 60 106.5t149 38.5q129 0 195.5 -75.5t66.5 -208.5v-21h-181q-115 0 -191 -52q-76 -51 -76.5 -139t66 -140t151.5 -69.5
t188 -17.5q229 0 358 123t129 336t-137 359.5t-338 146.5q-240 0 -375 -166h-63q150 213 438 213q238 0 390.5 -174t152.5 -426t-146.5 -402.5t-414.5 -150.5q-201 0 -335 82t-134 248z" />
    <glyph glyph-name="si_Sha" unicode="&#xdc1;" horiz-adv-x="1261" 
d="M797 158q0 -104 69 -105q27 0 70 26.5t67.5 26.5t34.5 -22q20 49 29 160v51q-35 20 -106.5 20t-117.5 -43.5t-46 -113.5zM502 815h-27q-150 0 -246 -96t-96 -244.5t70.5 -242t199.5 -93.5q87 0 151 46q64 47 64 117q0 134 -100 134q-27 0 -45 -14q-6 -18 -6 -37h-51
q51 479 383 479q174 0 269 -141t95 -332q0 -102 -30.5 -219t-73.5 -170h-55q10 16 10 27q0 18 -19.5 18t-58.5 -26.5t-87 -26.5t-82 47t-34 109q0 96 65.5 157.5t170.5 61.5q53 0 98 -17q0 154 -84 270.5t-207 116.5t-200.5 -73.5t-96.5 -190.5q18 8 45 8q74 0 118 -52
t44 -163t-79 -190.5t-222.5 -79.5t-230 118t-86.5 305.5t107.5 315t293.5 127.5l33 -2v-47z" />
    <glyph glyph-name="si_Ssa" unicode="&#xdc2;" 
d="M805 393.5q0 71.5 -201 71.5t-201 -72t201 -71.5t201 72zM707 672q0 -14 2 -23q51 6 127.5 6t142.5 -24q31 31 31 73.5t-39 74.5t-106.5 32t-112.5 -36.5t-45 -102.5zM377 791q-80 0 -98 -68t-91 -68q-31 0 -54 19.5t-23 54.5q0 63 59 101t157.5 38t161 -51t62.5 -149
q0 -37 -8 -72q-74 8 -109 8q-129 0 -213 -49t-84 -147t74 -158q134 -110 403 -109q182 0 323.5 69t141.5 200q0 106 -90 155q-78 -63 -190 -86q66 -31 65 -86q0 -123 -272 -123q-102 0 -175 29t-73 96q0 113 231 113q131 0 216 16t143 64q-61 20 -135 20t-152 -14
q-6 35 -6 61q0 102 63.5 156.5t165 54.5t156.5 -47t55 -110.5t-53 -102.5q121 -72 121 -245.5t-152.5 -267t-382.5 -93.5q-158 0 -276.5 33t-197.5 119t-79 219t94.5 207.5t258.5 74.5q20 0 73 -4l2 23q0 55 -31.5 87t-80.5 32z" />
    <glyph glyph-name="si_Sa" unicode="&#xdc3;" horiz-adv-x="1353" 
d="M899 633q90 0 152 -21q29 31 28.5 79t-40.5 71.5t-99 23.5q-162 1 -176 -165q45 12 135 12zM102 307q0 193 174 258q-221 -4 -266 -12v63h555v7q0 70 -41 119t-96 49q-86 0 -114 -73t-78 -73q-29 0 -50.5 19.5t-21.5 54.5q0 68 61.5 106.5t149.5 38.5q125 0 188.5 -77.5
t63.5 -194.5v-27h-195q-92 0 -173 -57t-81 -151.5t70.5 -155t167 -60.5t161 45t64.5 117v62h55v-62q0 -80 72 -121t175 -41t171 61.5t68 162.5q0 217 -283 217q-94 0 -192 -19v19q0 127 67.5 204.5t166.5 77.5t157.5 -41t58.5 -118t-57 -111q70 -33 112.5 -105.5
t42.5 -156.5q0 -158 -92 -245t-243 -87q-193 0 -254 164q-68 -166 -260 -166q-137 0 -220.5 93t-83.5 216z" />
    <glyph glyph-name="si_Ha" unicode="&#xdc4;" horiz-adv-x="1304" 
d="M589.5 190.5q69.5 47.5 69.5 140.5t-77 93q-39 0 -60 -59l-45 20q14 193 125 336t265.5 143t248.5 -129t94 -311t-120.5 -304t-303.5 -122q-39 0 -81 6v53q37 -6 71 -6q150 0 244 92.5t94 240.5t-76.5 244.5t-210.5 96.5q-221 0 -284 -266q25 14 57 14q57 0 94 -51
t37 -131q0 -135 -92 -214t-240 -79t-240.5 86t-92.5 223t89 218t232 81h25q0 66 -34 113t-89.5 47t-77 -56t-84 -56.5t-61.5 73.5q0 51 45 94t125 43q113 0 176 -89t65 -220q-49 4 -67 4q-123 0 -197 -53t-74 -154.5t79 -155t190.5 -53.5t181 47.5z" />
    <glyph glyph-name="si_Lla" unicode="&#xdc5;" horiz-adv-x="1271" 
d="M61 227q0 102 50.5 202.5t140.5 141.5q8 135 84 214t184 79q57 0 106.5 -28.5t71.5 -81.5q27 53 81.5 81.5t111.5 28.5q125 0 192.5 -89t67.5 -232h-766q-33 0 -72 -17q10 -147 112.5 -232t242.5 -85q244 0 325 131h60q-37 -121 -135.5 -187.5t-254 -66.5t-271.5 109.5
t-136 285.5q-63 -70 -63 -196q0 -223 160.5 -361.5t391.5 -138.5q172 0 302.5 104.5t134.5 257.5h55q0 -201 -171 -326.5t-380 -125.5q-272 0 -448.5 141t-176.5 391zM507.5 809q-71.5 0 -127.5 -56.5t-65 -162.5q29 4 43 4h725q0 90 -50 151.5t-131 61.5t-128 -46t-47 -102
h-61q0 57 -43.5 103.5t-115 46.5z" />
    <glyph glyph-name="si_Fa" unicode="&#xdc6;" horiz-adv-x="1212" 
d="M66 424q0 176 78.5 307t233.5 131t214 -143q59 143 214 143t233.5 -131t78.5 -307q0 -236 -133 -360q-70 -66 -166 -66q-39 0 -76 14v51q35 -12 68 -12q104 0 171 96.5t67 241.5t-56.5 238.5t-177.5 93.5q-84 0 -137 -47t-53 -148v-82h-66v82q0 100 -53 147.5t-137 47.5
q-121 0 -177.5 -93t-56.5 -238.5t67.5 -242t172.5 -96.5q31 0 65 12v-51q-37 -14 -75 -14q-96 0 -166 66q-133 124 -133 360z" />
    <glyph glyph-name="si_Halant" unicode="&#xdca;" horiz-adv-x="2" 
d="M-80 1021q27 30 27 65t-18 65t-50 55q-32 24 -64 44q-33 19 -40 26v-270q27 -14 73 -14t72 29zM20 1091q0 -75 -45 -115t-101 -40t-99 20v-294l-56 34v666q31 -25 119 -64t135 -86t47 -121z" />
    <glyph glyph-name="si_MatraAa" unicode="&#xdcf;" horiz-adv-x="598" 
d="M20 219q0 31 3 45h53q-2 -10 -2 -31q0 -73 37 -117t102 -44q172 2 172 330t-172 329q-57 0 -98 -45t-41 -117q0 -18 2 -28h-53q-2 14 -3 43q0 100 65 161t157 62q134 1 204 -105t70 -301t-70 -299t-204 -104q-100 0 -161 60t-61 161z" />
    <glyph glyph-name="si_MatraAe" unicode="&#xdd0;" horiz-adv-x="667" 
d="M6 627v51h492q-4 -6 -6 -33q-186 -276 -187 -545q-1 -147 63 -217t160 -69q31 0 76 10l8 -37q-72 -82 -196 -82t-186 92t-62 243q0 150 79 314t175 273h-416z" />
    <glyph glyph-name="si_MatraAae" unicode="&#xdd1;" horiz-adv-x="671" 
d="M8 631v47h490v-43l-254 -189h301v-45q-86 -61 -157 -161t-71 -213q0 -240 295 -240v-49q-76 -35 -153 -35q-133 0 -206 75q-73 76 -73 198t85 232t204 189h-326v39l267 195h-402z" />
    <glyph glyph-name="si_MatraI" unicode="&#xdd2;" horiz-adv-x="2" 
d="M-1090 1036q0 152 134 229t330 77q194 0 329 -78q135 -76 135 -228q0 -106 -81 -164t-206 -61v41q90 6 155 47t65 119q0 101 -133 142q-116 36 -227 36q-433 0 -433 -178q0 -78 64 -119t153 -47v-41q-125 3 -205 61t-80 164z" />
    <glyph glyph-name="si_MatraIi" unicode="&#xdd3;" horiz-adv-x="2" 
d="M-1174 1034q0 150 146 229t356 78q282 0 426 -126q80 -69 80 -159t-58 -144t-144 -54t-141 51q-54 51 -54 121q0 104 100 152q-69 18 -177 18q-318 0 -420 -105q-40 -42 -40 -98q0 -117 119 -145l-12 -41q-81 7 -131 69t-50 154zM-500 1028q0 -47 39 -80t92 -33t94 34
q40 34 39 79q0 45 -39 79t-93 34t-93 -33t-39 -80z" />
    <glyph glyph-name="si_MatraU" unicode="&#xdd4;" horiz-adv-x="2" 
d="M-965 -469q-103 0 -163 45t-60 129t58 138t141 55q137 0 190 -117l-59 -25q-33 82 -123 82q-57 0 -97 -34t-40 -91q0 -111 160 -110h780v653l65 182v-907h-852z" />
    <glyph glyph-name="si_MatraUu" unicode="&#xdd6;" horiz-adv-x="2" 
d="M-1163 -302q0 91 60 146t142 56q131 0 195 -103l-59 -20q-43 67 -113 67t-113 -34q-41 -36 -41 -90t41 -88t115 -34t246 74t254 74t148 -28t106 -74v641l65 118v-884h-45q-29 66 -94 120q-66 54 -157 54t-260 -93q-169 -94 -264 -94t-161 50t-65 142z" />
    <glyph glyph-name="si_MatraR" unicode="&#xdd8;" horiz-adv-x="624" 
d="M406 389q-102 0 -160 -18q-119 -37 -119 -158q0 -66 40 -112t99 -46q29 -1 74 15t53 16t17 -6q-6 38 -6 140t2 153v16zM66 498q0 125 57 207q57 81 171 81t174 -110t60 -270q0 -68 -17 -204t-17 -160t2 -36h-60q-10 29 -30 29q-6 -1 -56 -19t-88 -18q-86 0 -141 63
t-55 152q0 137 133 197q80 35 207 34q0 133 -37 203t-107 70q-70 -1 -108 -63t-37 -162v-9h-51v15z" />
    <glyph glyph-name="si_MatraE" unicode="&#xdd9;" horiz-adv-x="1265" 
d="M66 428q0 194 158 314q158 122 381 122q222 0 383 -127t179 -325h-57q-27 176 -170 286q-142 110 -330 111q-188 0 -323 -93q-135 -92 -135 -238t112 -241t269 -95t267 60t109 177q0 78 -54 129t-134 65q37 -39 37 -101t-52 -100q-52 -40 -123 -40t-124 44t-53 112
t58 111q58 44 144 44q162 0 268 -81q106 -80 105 -230q0 -150 -116 -241q-115 -91 -323 -91t-342 117t-134 311zM471 489q0 -39 33 -67t78 -27q46 0 78 28q32 29 32 67t-33 66t-77 28t-78 -28q-33 -28 -33 -67z" />
    <glyph glyph-name="si_MatraEe" unicode="&#xdda;" horiz-adv-x="2164" 
d="M66 428q0 194 158 314q158 122 381 122q222 0 383 -127t179 -325h-57q-27 176 -170 286q-142 110 -330 111q-188 0 -323 -93q-135 -92 -135 -238t112 -241t269 -95t267 60t109 177q0 78 -54 129t-134 65q37 -39 37 -101t-52 -100q-52 -40 -123 -40t-124 44t-53 112
t58 111q58 44 144 44q162 0 268 -81q106 -80 105 -230q0 -150 -116 -241q-115 -91 -323 -91t-342 117t-134 311zM471 489q0 -39 33 -67t78 -27q46 0 78 28q32 29 32 67t-33 66t-77 28t-78 -28q-33 -28 -33 -67zM2007 1078q0 83 -86 141l-27 18q-8 6 -30 19t-29 20v-270
q27 -14 73 -14t72 29q26 31 27 57zM2081 1091q0 -75 -45 -115q-46 -40 -102 -40t-99 20v-294l-55 34v666q30 -25 118 -64t136 -86t47 -121z" />
    <glyph glyph-name="si_MatraAi" unicode="&#xddb;" horiz-adv-x="2424" 
d="M66 428q0 194 158 314q158 122 381 122q222 0 383 -127t179 -325h-57q-27 176 -170 286q-142 110 -330 111q-188 0 -323 -93q-135 -92 -135 -238t112 -241t269 -95t267 60t109 177q0 78 -54 129t-134 65q37 -39 37 -101t-52 -100q-52 -40 -123 -40t-124 44t-53 112
t58 111q58 44 144 44q162 0 268 -81q106 -80 105 -230q0 -150 -116 -241q-115 -91 -323 -91t-342 117t-134 311zM471 489q0 -39 33 -67t78 -27q46 0 78 28q32 29 32 67t-33 66t-77 28t-78 -28q-33 -28 -33 -67zM1245 428q0 194 159 314q159 122 381 122t383 -127t179 -325
h-57q-27 176 -170 286q-142 110 -330 111q-188 0 -324 -93q-136 -92 -135 -238q0 -146 113 -241q112 -95 268 -95t266 60t111 177q0 78 -54 129t-134 65q37 -39 37 -101t-53 -100q-52 -40 -123 -40t-124 44t-53 112q1 68 59 111q58 44 144 44q162 0 267 -81
q105 -80 105 -230t-115 -241q-116 -91 -324 -91t-342 117t-134 311zM1651 489q1 -39 33 -67t77 -27q45 0 78 28q33 29 33 67t-33 66t-78 28t-77 -28t-33 -67z" />
    <glyph glyph-name="si_MatraO" unicode="&#xddc;" horiz-adv-x="2242" 
d="M66 428q0 194 158 314q158 122 381 122q222 0 383 -127t179 -325h-57q-27 176 -170 286q-142 110 -330 111q-188 0 -323 -93q-135 -92 -135 -238t112 -241t269 -95t267 60t109 177q0 78 -54 129t-134 65q37 -39 37 -101t-52 -100q-52 -40 -123 -40t-124 44t-53 112
t58 111q58 44 144 44q162 0 268 -81q106 -80 105 -230q0 -150 -116 -241q-115 -91 -323 -91t-342 117t-134 311zM471 489q0 -39 33 -67t78 -27q46 0 78 28q32 29 32 67t-33 66t-77 28t-78 -28q-33 -28 -33 -67zM1665 219q0 31 2 45h53q-2 -10 -2 -31q0 -73 37 -117t103 -44
q172 2 172 330t-172 329q-56 0 -98 -45t-42 -117q0 -18 2 -28h-53q-2 14 -2 43q0 100 65 161t156 62q135 1 205 -105t70 -301t-70 -299t-205 -104q-100 0 -161 59q-60 60 -60 162z" />
    <glyph glyph-name="si_MatraOo" unicode="&#xddd;" horiz-adv-x="2152" 
d="M66 428q0 194 158 314q158 122 381 122q222 0 383 -127t179 -325h-57q-27 176 -170 286q-142 110 -330 111q-188 0 -323 -93q-135 -92 -135 -238t112 -241t269 -95t267 60t109 177q0 78 -54 129t-134 65q37 -39 37 -101t-52 -100q-52 -40 -123 -40t-124 44t-53 112
t58 111q58 44 144 44q162 0 268 -81q106 -80 105 -230q0 -150 -116 -241q-115 -91 -323 -91t-342 117t-134 311zM471 489q0 -39 33 -67t78 -27q46 0 78 28q32 29 32 67t-33 66t-77 28t-78 -28q-33 -28 -33 -67zM1894 1047q27 -15 73 -15t73 30t26 65t-15 62q-15 26 -33 42
q-20 17 -38 29t-26 18t-30 19t-30 20v-270zM1559 219q0 31 2 45h53q-2 -10 -2 -31q0 -73 37 -117t102 -44q172 2 172 330t-172 329q-57 0 -98 -45t-41 -117q0 -18 2 -28h-53q-2 14 -2 43q0 100 64 161q65 61 157 62q31 0 59 -6v602q31 -25 119 -64t135 -86t47 -121t-45 -114
t-101 -41q-56 0 -100 20v-215q160 -80 160 -381q0 -195 -70 -299t-204 -104q-100 0 -161 59q-60 60 -60 162z" />
    <glyph glyph-name="si_MatraAu" unicode="&#xdde;" horiz-adv-x="3020" 
d="M66 428q0 194 158 314q158 122 381 122q222 0 383 -127t179 -325h-57q-27 176 -170 286q-142 110 -330 111q-188 0 -323 -93q-135 -92 -135 -238t112 -241t269 -95t267 60t109 177q0 78 -54 129t-134 65q37 -39 37 -101t-52 -100q-52 -40 -123 -40t-124 44t-53 112
t58 111q58 44 144 44q162 0 268 -81q106 -80 105 -230q0 -150 -116 -241q-115 -91 -323 -91t-342 117t-134 311zM471 489q0 -39 33 -67t78 -27q46 0 78 28q32 29 32 67t-33 66t-77 28t-78 -28q-33 -28 -33 -67zM2226 641q0 135 74 215h72q-86 -74 -86 -213q0 -72 38 -120
t96 -48t86 30t28 77t-42 92q-2 10 -2 24q0 78 47 122t131 44q214 0 266 -275q13 -71 13 -149q0 -192 -74 -318t-223 -126q-106 0 -164 70q-57 70 -57 174q0 39 8 73h51q-6 -35 -6 -63q0 -86 42 -142t123 -56q159 -1 159 423q0 338 -150 338q-111 0 -110 -113v-14
q74 -41 74 -112q0 -70 -55 -110q-54 -40 -140 -40t-143 62q-56 63 -56 155z" />
    <glyph glyph-name="si_MatraLs" unicode="&#xddf;" horiz-adv-x="880" 
d="M66 641q0 135 73 215h72q-86 -74 -86 -213q0 -72 38 -120t96 -48t86 30t28 77t-41 92q-2 10 -2 24q0 78 47 122t131 44q214 0 265 -275q13 -71 13 -149q0 -192 -74 -318t-223 -126q-106 0 -163 70t-58 174q0 39 8 73h52q-6 -35 -6 -63q0 -86 42 -142t122 -56
q158 -1 159 423q0 338 -149 338q-111 0 -111 -113v-14q74 -41 74 -112q-1 -70 -55 -110t-140 -40t-142 62t-56 155z" />
    <glyph glyph-name="si_MatraRr" unicode="&#xdf2;" horiz-adv-x="1140" 
d="M406 389q-102 0 -160 -18q-119 -37 -119 -158q0 -66 40 -112t99 -46q29 -1 74 15t53 16t17 -6q-6 38 -6 140t2 153v16zM66 498q0 125 57 207q57 81 171 81t174 -110t60 -270q0 -68 -17 -204t-17 -160t2 -36h-60q-10 29 -30 29q-6 -1 -56 -19t-88 -18q-86 0 -141 63
t-55 152q0 137 133 197q80 35 207 34q0 133 -37 203t-107 70q-70 -1 -108 -63t-37 -162v-9h-51v15zM924 389q-102 0 -160 -18q-119 -37 -119 -158q0 -66 40 -112t99 -46q29 -1 74 15t52 16t18 -6q-6 39 -6 151l2 142v16zM584 498q0 125 57 207q57 81 171 81t174 -110
t61 -270q1 -68 -17 -204t-18 -160t2 -36h-60q-10 29 -30 29q-6 -1 -56 -19t-88 -18q-86 0 -141 63t-55 152q0 137 133 197q80 35 207 34q0 133 -37 203t-107 70q-70 -1 -108 -63t-37 -162v-9h-51v15z" />
    <glyph glyph-name="si_MatraLl" unicode="&#xdf3;" horiz-adv-x="880" 
d="M66 641q0 135 73 215h72q-86 -74 -86 -213q0 -72 38 -120t96 -48t86 30t28 77t-41 92q-2 10 -2 24q0 78 47 122t131 44q214 0 265 -275q13 -71 13 -149q0 -192 -74 -318t-223 -126q-106 0 -163 70t-58 174q0 39 8 73h52q-6 -35 -6 -63q0 -86 42 -142t122 -56
q158 -1 159 423q0 338 -149 338q-111 0 -111 -113v-14q74 -41 74 -112q-1 -70 -55 -110t-140 -40t-142 62t-56 155z" />
    <glyph glyph-name="si_kundaliya" unicode="&#xdf4;" horiz-adv-x="3483" 
d="M258 -4q-67 0 -112 37q-44 37 -44 91t30 85t72 31t68 -30t27 -77q0 -47 -39 -78q10 -12 37 -12q51 0 181 104q130 105 184 105t75 -39l158 274l68 -194l249 334l60 -242l272 313l60 -299l294 336l27 -379l344 318l-47 -377l336 215l-68 -285l289 185l-59 -176
q28 16 74 16t178 -104t182 -105q29 0 37 12q-39 31 -39 78t26 77q27 30 69 30t72 -31q29 -31 29 -85t-44 -91t-112 -37t-140 46t-137 92t-119 46t-114 -30t-89 -58l51 180l-297 -184l59 272l-313 -206l37 331l-315 -297l-29 353l-270 -297l-60 291l-264 -299l-55 223
l-228 -299l-59 172l-125 -219q-41 67 -84 67t-106 -46t-137 -92t-140 -46z" />
    <glyph glyph-name="zwnj" unicode="&#x200c;" horiz-adv-x="0" 
d="M-41 18v1504h82v-1504h-82z" />
    <glyph glyph-name="zwj" unicode="&#x200d;" horiz-adv-x="0" 
d="M41 20h-82v1201l-207 -211l-53 55l248 246l-248 243l53 52l248 -248l248 248l53 -52l-248 -243l248 -246l-53 -55l-207 211v-1201z" />
    <glyph glyph-name="endash" unicode="&#x2013;" horiz-adv-x="1392" 
d="M205 410v82h983v-82h-983z" />
    <glyph glyph-name="emdash" unicode="&#x2014;" horiz-adv-x="1802" 
d="M205 410v82h1392v-82h-1392z" />
    <glyph glyph-name="quoteleft" unicode="&#x2018;" horiz-adv-x="395" 
d="M164 1163q0 -25 40 -33t64 -34t25 -65q0 -39 -29 -69q-30 -30 -76 -30t-76 38t-30 97q0 141 129 274l43 -30q-90 -94 -90 -148z" />
    <glyph glyph-name="quoteright" unicode="&#x2019;" horiz-adv-x="395" 
d="M313 1196q0 -141 -129 -274l-43 30q90 94 90 148q0 25 -40 33q-41 7 -65 33t-24 66t29 70t76 30t77 -39q30 -38 29 -97z" />
    <glyph glyph-name="quotesinglbase" unicode="&#x201a;" horiz-adv-x="335" 
d="M274 80q0 -127 -102 -246l-43 29q66 76 66 123q0 23 -45 34q-82 20 -82 93q0 41 28 69t74 27q48 0 76 -36t28 -93z" />
    <glyph glyph-name="quotedblleft" unicode="&#x201c;" horiz-adv-x="608" 
d="M336 1067q0 141 129 274l43 -30q-90 -94 -90 -148q0 -25 40 -33t64 -34t25 -65q0 -39 -29 -69q-30 -30 -76 -30t-76 38t-30 97zM72 1067q0 141 129 274l43 -30q-90 -94 -90 -148q0 -25 40 -33t64 -34t25 -65q0 -39 -29 -69t-76 -30t-77 38q-29 38 -29 97z" />
    <glyph glyph-name="quotedblright" unicode="&#x201d;" horiz-adv-x="624" 
d="M283 1124q0 -141 -129 -274l-43 31q90 94 90 147q0 25 -40 33t-65 34q-24 25 -24 65t28 70q29 30 76 30t77 -38t30 -98zM547 1124q0 -141 -129 -274l-43 31q90 94 90 147q0 25 -40 33t-65 34q-24 25 -24 65t29 70t75 30t77 -38q30 -38 30 -98z" />
    <glyph glyph-name="quotedblbase" unicode="&#x201e;" horiz-adv-x="618" 
d="M283 76q0 -141 -129 -275l-43 31q90 94 90 148q0 24 -40 32t-65 34q-24 26 -24 66t28 70t76 29q47 0 77 -38t30 -97zM547 76q0 -141 -129 -275l-43 31q90 94 90 148q0 24 -40 32t-65 34q-24 26 -24 66t29 70t75 29q46 0 77 -38q30 -38 30 -97z" />
    <glyph glyph-name="dagger" unicode="&#x2020;" horiz-adv-x="948" 
d="M475 688q80 0 80 -82q0 -31 -21 -193t-34 -575h-51q-14 468 -46 668q-10 70 -10 104q-1 34 21 56t61 22zM397 1049q0 67 77 67t77 -65q0 -27 -24 -120t-29 -149q57 6 152 29t122 23t45 -20q19 -20 19 -55q0 -34 -18 -52q-18 -19 -46 -19q-27 0 -133 25t-168 28
q-66 -5 -167 -29t-128 -24t-45 20t-18 55q0 34 18 52q18 19 45 19t122 -23t153 -29q-6 58 -30 150t-24 117z" />
    <glyph glyph-name="daggerdbl" unicode="&#x2021;" horiz-adv-x="948" 
d="M473 600q43 0 74 -30t31 -75q0 -44 -31 -75t-74 -31t-74 31t-31 75q0 45 32 75q30 30 73 30zM551 -63q0 -68 -77 -68t-77 65q0 27 24 120t30 149q-57 -6 -153 -29q-96 -22 -122 -22q-27 0 -45 20t-18 54t18 52t45 19q27 0 133 -25t168 -28q66 4 167 28t128 25
q27 -1 45 -21q19 -20 19 -54t-18 -52t-46 -18q-27 0 -122 22t-152 29q6 -57 30 -149t23 -117zM397 1049q0 67 77 67t77 -65q0 -27 -24 -120t-29 -149q57 6 152 29t122 23t45 -20q19 -20 19 -55q0 -34 -18 -52q-18 -19 -46 -19q-27 0 -133 25t-168 28q-66 -5 -167 -29
t-128 -24t-45 20t-18 55q0 34 18 52q18 19 45 19t122 -23t153 -29q-6 58 -30 150t-24 117z" />
    <glyph glyph-name="bullet" unicode="&#x2022;" horiz-adv-x="753" 
d="M549 470q0 -73 -50 -123t-122 -50t-122 50t-50 123t50 123t122 50t122 -50t50 -123z" />
    <glyph glyph-name="ellipsis" unicode="&#x2026;" horiz-adv-x="1220" 
d="M207 201q43 0 73 -31t31 -75q-1 -44 -31 -75q-30 -30 -73 -30t-74 30t-31 75q0 44 31 75t74 31zM1014 201q44 0 74 -31t30 -75t-31 -75q-31 -30 -73 -30t-74 30q-31 30 -31 75q0 44 31 75t74 31zM715 95q0 -44 -31 -75q-31 -30 -74 -30q-44 0 -74 30t-30 75q0 44 31 75
t73 31t74 -31q31 -31 31 -75z" />
    <glyph glyph-name="perthousand" unicode="&#x2030;" horiz-adv-x="2342" 
d="M1905 20q145 0 145 310q0 164 -36 230t-114 67q-78 0 -111 -70q-34 -69 -34 -233t35 -234t115 -70zM1907 668q137 0 220 -90t83 -251t-85 -254t-222 -93t-222 93q-84 93 -84 253t86 251q87 91 224 91zM1192 20q145 0 145 310q1 164 -35 230t-114 67q-78 0 -112 -70
q-34 -69 -34 -233t35 -234t115 -70zM1194 668q137 0 220 -90t83 -251t-85 -254t-222 -93t-221 93t-84 253t86 251t223 91zM377 -59l-62 39l897 1310l60 -41zM430 608q145 0 145 310q1 164 -35 230t-114 66t-112 -70t-34 -234q0 -166 36 -234q34 -68 114 -68zM432 1255
q137 0 220 -90t83 -251t-85 -254t-222 -93t-221 93q-84 94 -84 254t86 250t223 91z" />
    <glyph glyph-name="guilsinglleft" unicode="&#x2039;" horiz-adv-x="536" 
d="M51 417q1 34 23 59q22 26 164 148t200 185l41 -35l-258 -354q43 -54 145 -194t119 -160l-36 -33q-59 63 -205 180t-169 143q-24 26 -24 61z" />
    <glyph glyph-name="guilsinglright" unicode="&#x203a;" horiz-adv-x="536" 
d="M315 420l-258 354l41 35q58 -63 200 -185t165 -148t23 -60t-24 -60q-22 -28 -168 -144t-206 -179l-37 33z" />
    <glyph glyph-name="fraction" unicode="&#x2044;" horiz-adv-x="301" 
d="M-246 -59l-61 39l897 1310l59 -41z" />
    <glyph glyph-name="Euro" unicode="&#x20ac;" horiz-adv-x="1236" 
d="M1130 219q0 -90 -108 -165q-108 -74 -324 -74q-218 0 -354 150q-135 151 -158 382h-166l19 59h143v29q0 49 2 74h-164l19 59h151q34 229 178 373t396 143q147 1 259 -65t112 -168t-97 -103q-90 0 -107 99q-7 41 -21 82q-14 42 -57 70q-44 28 -126 28q-156 0 -239 -106
t-97 -353h514l-18 -59h-500v-103h477l-18 -59h-457q31 -475 313 -475q84 0 133 29q48 30 63 70t25 82q22 101 111 99q43 0 70 -27q26 -28 26 -71z" />
    <glyph glyph-name="uni20BA" unicode="&#x20ba;" horiz-adv-x="1163" 
d="M498 0h-377v53h170v516l-219 -80v62l219 80v106l-219 -82v62l219 82v377h-170v53h514v-53h-170v-314l424 158v-62l-424 -157v-105l424 156v-61l-424 -156v-582h53q127 0 206 41q78 42 102 102t35 132t10 132t22 101t71 41t72 -40t25 -108q0 -146 -127 -290
q-63 -72 -177 -118t-259 -46z" />
    <glyph glyph-name="uni20BD" unicode="&#x20bd;" horiz-adv-x="1187" 
d="M641 1176h-225v-574h190q147 0 217 79t70 209q1 130 -63 208t-189 78zM664 0h-592v53h170v328h-170v59h170v103h-170v59h170v574h-170v53h612q199 0 300 -92t101 -247t-127 -251t-360 -96h-182v-103h301v-59h-301v-328h196q32 0 42 -10t10 -43z" />
    <glyph glyph-name="uni2113" unicode="&#x2113;" horiz-adv-x="768" 
d="M324 795v-295q137 72 176 146t39 224q0 205 -97 205q-58 0 -88 -64t-30 -216zM170 815q0 150 76 231q76 80 187 80t185 -72t74 -198q0 -125 -87 -226t-281 -194v-104q0 -295 151 -295q63 0 108 44q44 44 76 134l48 -18q-66 -220 -267 -220q-270 0 -270 396
q-39 -13 -94 -35l-15 55q94 35 109 41v381z" />
    <glyph glyph-name="trademark" unicode="&#x2122;" horiz-adv-x="1165" 
d="M608 774h37q27 0 27 -29h-156v29h53v426h-53v29h133l170 -342l131 342h164v-29h-51v-426h27q25 0 24 -29h-215v29h55v369l-155 -406h-19l-172 328v-291zM395 745h-264v29h76v426h-14q-29 0 -47 -11t-24 -23q-5 -12 -16 -38l-24 -71h-31l4 172h416l4 -172h-31l-24 71
q-10 27 -16 38q-17 34 -70 34h-15v-426h50q26 0 26 -29z" />
    <glyph glyph-name="uni2126" unicode="&#x2126;" horiz-adv-x="1445" 
d="M1274 670q0 -174 -85 -318t-245 -219h180q70 -1 102 17t46 73l33 121h38l-4 -344h-503v121q109 59 171 220t62 365t-82 348t-262 144q-263 0 -332 -312q-18 -87 -18 -190q0 -184 63 -349t172 -226v-121h-504l-4 344h39l33 -121q16 -57 48 -73t100 -17h192
q-168 76 -256 222t-88 321q0 242 146 408t412 165t406 -167t140 -412z" />
    <glyph glyph-name="estimated" unicode="&#x212e;" horiz-adv-x="1546" 
d="M788 1270q-270 0 -444 -180v-336h881v360q-167 156 -437 156zM797 41q145 0 284 56t240 157l47 -45q-244 -229 -584 -229q-286 0 -484 179t-198 492q0 274 186 477t515 203q263 0 454 -160q95 -79 151 -203t56 -280h-1120v-465q180 -182 453 -182z" />
    <glyph glyph-name="partialdiff" unicode="&#x2202;" horiz-adv-x="1050" 
d="M256 289q0 -129 48 -195t132 -65q115 -1 202 117t87 319q0 129 -53 199t-142 69q-114 -1 -194 -117t-80 -327zM948 748q0 -322 -139 -545t-385 -223q-145 0 -244 94q-98 94 -98 248q0 206 128 334t299 128t263 -141q23 100 23 182q0 169 -72 269t-187 100t-235 -84
l-33 51q137 88 275 88q173 1 289 -131t116 -370z" />
    <glyph glyph-name="uni2206" unicode="&#x2206;" horiz-adv-x="1085" 
d="M840 115l-353 889l-350 -889h703zM1075 0h-1065l490 1229h75z" />
    <glyph glyph-name="product" unicode="&#x220f;" horiz-adv-x="1212" 
d="M535 -266h-504v53h170v1389h-170v53h1151v-53h-181v-1389h129q31 0 41 -10t11 -43h-504v53h149v1389h-452v-1389h108q31 0 41 -10t11 -43z" />
    <glyph glyph-name="summation" unicode="&#x2211;" horiz-adv-x="950" 
d="M936 -266h-926v102l525 641l-525 705v47h930l-25 -340h-38l-29 96q-33 113 -82 152t-154 39h-387l463 -623l-555 -676h512q104 0 154 25q49 25 63 86l29 116h45v-370z" />
    <glyph glyph-name="minus" unicode="&#x2212;" horiz-adv-x="960" 
d="M868 442h-776v74h776v-74z" />
    <glyph glyph-name="uni2215" unicode="&#x2215;" horiz-adv-x="301" 
d="M-246 -59l-61 39l897 1310l59 -41z" />
    <glyph glyph-name="uni2219" unicode="&#x2219;" horiz-adv-x="753" 
d="M549 470q0 -73 -50 -123t-122 -50t-122 50t-50 123t50 123t122 50t122 -50t50 -123z" />
    <glyph glyph-name="radical" unicode="&#x221a;" horiz-adv-x="919" 
d="M520 -10q-61 0 -94 28t-57 115l-179 639l-190 -82l-20 55l344 148l215 -766l352 1364l70 -16l-383 -1485h-58z" />
    <glyph glyph-name="infinity" unicode="&#x221e;" horiz-adv-x="1421" 
d="M1065 418q96 0 150 63q55 63 55 149t-54 146q-54 61 -151 62q-57 0 -115 -36t-95 -73q-36 -37 -99 -111q153 -200 309 -200zM356 424q56 0 114 35t95 73t99 109q-156 203 -308 203q-96 0 -150 -64t-54 -148t54 -146t150 -62zM1065 350q-172 0 -348 223
q-92 -106 -172 -164q-79 -59 -197 -59t-192 83t-74 197t74 198t200 83q172 0 346 -225q90 106 172 166t200 59q118 0 192 -83q74 -82 74 -196t-74 -198t-201 -84z" />
    <glyph glyph-name="integral" unicode="&#x222b;" horiz-adv-x="729" 
d="M770 1281q0 -109 -94 -107q-46 0 -69 32q-24 32 -24 71q-3 105 -61 103q-49 0 -68 -51q-20 -51 -20 -185t20 -430q20 -298 19 -504q1 -206 -23 -373t-68 -256t-97 -127t-137 -38t-136 52t-53 104q0 109 92 109q59 0 81 -34t16 -76q-14 -110 55 -110q109 0 108 359
q0 154 -17 464q-18 310 -18 489q-2 661 293 661q97 0 149 -50t52 -103z" />
    <glyph glyph-name="approxequal" unicode="&#x2248;" horiz-adv-x="1013" 
d="M326 453q78 0 209 -70t184 -70q109 0 164 140l49 -17q-26 -119 -92 -177t-143 -58q-77 1 -215 69t-195 68q-100 0 -156 -139l-49 16q34 121 100 179t144 59zM326 776q78 0 209 -70t184 -69q106 0 164 143l49 -16q-26 -119 -92 -179q-66 -61 -143 -61t-215 69t-195 69
q-102 0 -156 -136l-49 17q33 119 99 176q67 57 145 57z" />
    <glyph glyph-name="notequal" unicode="&#x2260;" horiz-adv-x="960" 
d="M868 330h-413l-95 -238h-69l94 238h-293v73h322l59 152h-381v74h410l100 252h70l-101 -252h297v-74h-325l-60 -152h385v-73z" />
    <glyph glyph-name="lessequal" unicode="&#x2264;" horiz-adv-x="960" 
d="M848 94h-756v68h756v-68zM854 315l-27 -63l-735 252v57l737 258l25 -63l-641 -221z" />
    <glyph glyph-name="greaterequal" unicode="&#x2265;" horiz-adv-x="960" 
d="M868 94h-755v68h755v-68zM854 510l-737 -258l-25 63l641 222l-641 219l27 63l735 -252v-57z" />
    <glyph glyph-name="lozenge" unicode="&#x25ca;" horiz-adv-x="1179" 
d="M1004 516l-412 623l-416 -623l414 -622zM557 1227h70l471 -711l-473 -711h-70l-473 711z" />
    <glyph glyph-name="dottedcircle" unicode="&#x25cc;" horiz-adv-x="1114" 
d="M842 811q25 0 36 -10t9 -33q-2 -43 -47 -43t-43 43t45 43zM930 678q45 0 43 -45t-47 -45t-43 45t47 45zM711 811q-47 0 -45 44t46 44t42 -44t-43 -44zM954 436q-47 0 -47 44t46 44t44 -44t-43 -44zM557 930q43 0 41 -45t-45 -45t-41 45t45 45zM924 373q45 0 43 -45
t-47 -45t-43 45t47 45zM402 899q44 0 42 -44t-46 -44t-42 44t46 44zM833 236q43 0 41 -44t-45 -45q-43 1 -41 45t45 44zM270 811q45 0 41 -43t-47 -43t-41 43t47 43zM695 61q-44 0 -42 44t45 45q45 0 43 -44t-46 -45zM180 588q-51 0 -47 45q2 45 45 45t41 -45t-39 -45z
M143 436q-43 0 -43 44t45 44t43 -44t-45 -44zM541 119q43 0 41 -44t-45 -44t-41 44t45 44zM386 61q-44 0 -42 44t43 45q25 0 36 -10t9 -34q-2 -45 -46 -45zM172 373q43 0 41 -45t-45 -45t-41 45t45 45zM259 236q44 0 42 -44t-43 -45q-47 1 -45 45t46 44z" />
    <glyph glyph-name="commaaccent" unicode="&#xf6c3;" horiz-adv-x="1024" 
d="M629 -223q0 -156 -142 -301l-49 32q100 104 101 164q1 27 -45 36t-72 37t-27 72q0 44 32 77q32 32 84 32t85 -40t33 -109z" />
    <glyph glyph-name="si_Ya.post" horiz-adv-x="1087" 
d="M168 811q-55 0 -98 -20v53q39 20 102 20q112 0 186 -92t74 -225q0 -184 -98 -332q117 -74 257 -74t230 66t90 166q0 186 -223 186q-43 0 -80 8q-38 8 -74 43t-36 102q0 68 60 110t154 42t151 -48q58 -48 59 -134q0 -12 -4 -41h-62q4 25 4 37q0 63 -42 98t-105 35
t-109 -27t-47 -77q0 -95 132 -95t218 -70t86 -213q0 -141 -106 -235q-107 -94 -235 -94t-207 37t-150 129q-106 -121 -238 -164l-32 41q153 63 251 189t99 305q1 111 -57 193t-150 81z" />
    <glyph glyph-name="si_Y.post.halant" horiz-adv-x="1087" 
d="M168 811q-55 0 -98 -20v53q39 20 102 20q112 0 186 -92t74 -225q0 -184 -98 -332q117 -74 257 -74t230 66t90 166q0 186 -223 186q-43 0 -80 8q-38 8 -74 43t-36 100q0 64 53 106t139 48v496q31 -25 119 -64t134 -86t46 -121q0 -75 -45 -115t-101 -40t-100 20v-92
q80 -8 129 -55t50 -125q0 -12 -4 -41h-62q4 25 4 37q0 63 -42 98t-105 35t-109 -27t-47 -77q0 -95 132 -95t218 -70t86 -213q0 -141 -106 -235q-107 -94 -235 -94t-207 37t-150 129q-106 -121 -238 -164l-32 41q153 63 251 189t99 305q1 111 -57 193t-150 81zM743 1004
q27 -14 74 -14t73 28q26 29 25 65t-15 63q-15 26 -33 42q-19 16 -37 28t-27 19q-8 6 -30 19t-30 20v-270z" />
    <glyph glyph-name="si_Ya.post.reph" horiz-adv-x="1087" 
d="M168 811q-55 0 -98 -20v53q39 20 102 20q112 0 186 -92t74 -225q0 -184 -98 -332q117 -74 257 -74t230 66t90 166q0 186 -223 186q-43 0 -80 8q-38 8 -74 43t-36 102q0 68 60 110t154 42t151 -48q58 -48 59 -134q0 -12 -4 -41h-62q4 25 4 37q0 63 -42 98t-105 35
t-109 -27t-47 -77q0 -95 132 -95t218 -70t86 -213q0 -141 -106 -235q-107 -94 -235 -94t-207 37t-150 129q-106 -121 -238 -164l-32 41q153 63 251 189t99 305q1 111 -57 193t-150 81zM221 1068q0 87 78 140q78 54 200 54q121 0 203 -62t82 -166q0 -74 -51 -131h-67
q59 55 59 133t-65 125q-66 47 -158 47t-154 -37t-63 -100q0 -63 42 -95t85 -36q-39 29 -39 82t39 88t97 35t96 -36t38 -92t-49 -91t-140 -35t-162 45t-71 132zM426 1022q0 -30 25 -52t57 -22t58 22q24 22 24 52t-25 52t-57 22t-58 -22q-24 -22 -24 -52z" />
    <glyph glyph-name="si_Yu.post.reph" horiz-adv-x="1087" 
d="M37 -282q0 75 59 128q59 54 133 54t125 -33t74 -86l-59 -25q-12 33 -47 59q-35 25 -86 25q-52 0 -92 -36t-40 -86t43 -83t136 -32h620v506q-104 -109 -260 -109q-119 0 -198 37t-150 129q-106 -121 -238 -164l-32 41q153 63 251 189t99 305q1 111 -57 193t-150 81
q-55 0 -98 -20v53q39 20 102 20q112 0 186 -92t74 -225q0 -184 -98 -332q117 -74 257 -74t230 66t90 166q0 186 -223 186q-43 0 -80 8q-38 8 -74 43t-36 102q0 68 60 110t154 42t151 -48q58 -48 59 -134q0 -12 -4 -41h-62q4 25 4 37q0 63 -42 98t-105 35t-109 -27t-47 -77
q0 -95 132 -95t218 -70t86 -214q0 -61 -22 -117v-680h-723q-96 0 -154 56q-57 56 -57 131zM221 1068q0 87 78 140q78 54 200 54q121 0 203 -62t82 -166q0 -74 -51 -131h-67q59 55 59 133t-65 125q-66 47 -158 47t-154 -37t-63 -100q0 -63 42 -95t85 -36q-39 29 -39 82t39 88
t97 35t96 -36t38 -92t-49 -91t-140 -35t-162 45t-71 132zM426 1022q0 -30 25 -52t57 -22t58 22q24 22 24 52t-25 52t-57 22t-58 -22q-24 -22 -24 -52z" />
    <glyph glyph-name="si_YUu.post.reph" horiz-adv-x="1087" 
d="M37 -281q0 91 60 146t143 55q131 0 194 -102l-59 -23q-43 70 -113 70t-112 -35q-41 -35 -41 -89t41 -89q40 -35 114 -35t202 75t226 75q137 0 211 -91v433q-104 -109 -260 -109q-119 0 -198 37t-150 129q-106 -121 -238 -164l-32 41q153 63 251 189t99 305q1 111 -57 193
t-150 81q-55 0 -98 -20v53q39 20 102 20q112 0 186 -92t74 -225q0 -184 -98 -332q117 -74 257 -74t230 66t90 166q0 186 -223 186q-43 0 -80 8q-38 8 -74 43t-36 102q0 68 60 110t154 42t151 -48q58 -48 59 -134q0 -12 -4 -41h-62q4 25 4 37q0 63 -42 98t-105 35t-109 -27
t-47 -77q0 -95 132 -95t218 -70t86 -214q0 -61 -22 -117v-674h-47q-74 174 -226 174q-110 0 -215 -92q-103 -92 -237 -92q-78 0 -144 50q-65 51 -65 142zM221 1068q0 87 78 140q78 54 200 54q121 0 203 -62t82 -166q0 -74 -51 -131h-67q59 55 59 133t-65 125q-66 47 -158 47
t-154 -37t-63 -100q0 -63 42 -95t85 -36q-39 29 -39 82t39 88t97 35t96 -36t38 -92t-49 -91t-140 -35t-162 45t-71 132zM426 1022q0 -30 25 -52t57 -22t58 22q24 22 24 52t-25 52t-57 22t-58 -22q-24 -22 -24 -52z" />
    <glyph glyph-name="si_Rakar" horiz-adv-x="2" 
d="M-723 -313q231 0 388 106t157 307q0 74 -25 105l23 61q53 -78 53 -190q0 -234 -167 -374t-396 -140q-389 0 -508 350h53q104 -225 422 -225z" />
    <glyph glyph-name="si_Reph" horiz-adv-x="0" 
d="M-283 1076q0 88 78 142t200 54t204 -62t82 -166q0 -74 -52 -131h-67q57 53 57 133t-63 126q-64 46 -156 46t-156 -37t-63 -101q0 -64 42 -95t85 -35q-39 29 -39 82t39 87t97 34t96 -35t38 -91t-49 -92t-140 -36t-162 45t-71 132zM-78 1032q0 -30 25 -52t57 -22t58 22
q24 22 24 52t-25 52t-57 22t-58 -22q-24 -22 -24 -52z" />
    <glyph glyph-name="si_KSsa" horiz-adv-x="2136" 
d="M1298 393q0 -71 200 -71t200 72t-200 71q-200 0 -200 -72zM1270 791q-80 0 -98 -68t-91 -68q-31 -1 -53 19t-22 61t34 76q-354 -2 -602 -195q64 17 166 17q258 0 369 -170q29 92 117 141t219 49q20 0 73 -4l2 23q0 55 -32 87q-33 32 -82 32zM1728 655q74 0 146 -28
q33 37 33 79t-41 73q-41 32 -109 32q-69 0 -113 -37t-45 -102q0 -14 3 -23q52 6 126 6zM385 705q0 80 -70 79q-25 0 -51 -15q-35 -20 -41 -86q-9 -89 -86 -89q-45 0 -62 29t-18 57q-1 80 63 133t146 53t128 -42t46 -111q0 -20 -2 -31q256 190 672 190q63 0 113 -4
q104 -4 162 -55t59 -145q0 -37 -8 -72q-74 8 -109 8q-127 0 -211 -49t-84 -147t74 -157q136 -110 401 -110q182 0 325 69q142 69 142 200q0 104 -90 153q-88 -63 -192 -84q66 -31 65 -86q0 -123 -270 -123q-102 0 -176 29t-74 96q0 113 233 113q129 0 211 16t150 64
q-63 20 -136 20t-153 -14q-6 35 -6 61q0 103 62 157t165 54t158 -47t55 -107t-49 -110q115 -72 115 -229q0 -185 -153 -279t-382 -94q-362 0 -487 170q-51 -172 -225 -172q-139 0 -203 129q-55 -129 -184 -129q-58 0 -100 24t-58 50q-45 74 -76 73q-70 0 -80 -122l-51 20
q12 96 65 220q52 125 98 187t130 152q49 53 49 103zM404 141q72 0 114 46q43 46 43 137v2h53v-2q0 -96 41 -140t127 -43q86 -1 126 55t40 121q0 123 -97 194t-251 71t-235 -35q-47 -43 -107 -123q-84 -121 -119 -234q20 10 41 10q20 0 86 -29q66 -30 138 -30z" />
    <glyph glyph-name="si_KVa" horiz-adv-x="2121" 
d="M404 141q72 0 114 46q43 46 43 137v2h53v-2q0 -96 41 -140t127 -43q86 -1 126 55t40 121q0 123 -97 194t-251 71t-235 -35q-47 -43 -107 -123q-84 -121 -119 -234q20 10 41 10q20 0 86 -29q66 -30 138 -30zM624 633q122 -1 230 -61q106 -60 150 -171q25 96 109 152
q85 55 214 55h123v8q0 78 -42 126t-91 48t-76 -14q-27 -16 -35 -28t-16 -37q-25 -66 -74 -66q-28 -1 -52 19t-24 67t54 86q-127 0 -215 -18q-244 -43 -441 -183q64 17 186 17zM385 705q0 80 -70 79q-25 0 -51 -15q-35 -20 -41 -86q-9 -89 -86 -89q-45 0 -62 29t-18 57
q-1 80 63 133t146 53t128 -42t46 -111q0 -20 -2 -31q115 82 273 129q184 61 417 61q57 0 125 -8q127 0 194 -76t66 -208v-21h-180q-115 0 -191 -52t-75 -147q0 -61 37 -106q90 -109 366 -113q229 0 359 123q129 123 129 336t-137 359t-338 147q-240 0 -375 -166h-64
q150 213 439 213q239 0 391 -174t152 -426q0 -253 -147 -403q-146 -150 -415 -150q-152 0 -272 49t-166 148q-14 -87 -72 -143t-159 -56q-139 0 -203 129q-55 -129 -184 -129q-58 0 -100 24t-58 50q-45 74 -76 73q-70 0 -80 -122l-51 20q12 96 65 220q52 125 98 187t130 152
q49 53 49 103z" />
    <glyph glyph-name="si_TVa" horiz-adv-x="2000" 
d="M574 639q112 0 201 -50t124 -147q72 166 309 166h123v8q0 78 -42 126t-91 48t-76 -14q-27 -16 -35 -28t-16 -37q-25 -66 -76 -66q-29 -1 -51 19t-20 65q0 45 47 86q-147 -4 -298 -46t-272 -157q61 27 173 27zM198 217q36 0 129 -36t209 -36q116 1 206 57q92 56 92 166
t-80 168q-80 56 -214 56t-227 -72q-111 -137 -172 -319q21 16 57 16zM358 698q0 78 -59 78t-61 -63q-4 -123 -86 -123q-37 0 -58 27q-20 28 -20 67q0 76 53 129t127 53t116 -43t42 -110q0 -8 -2 -19q244 180 558 178q148 0 235 -14t139 -88t53 -190v-21h-181
q-116 0 -192 -52q-76 -51 -76 -139t67 -140t151 -69t188 -18q229 0 358 123t129 336t-137 359t-338 147q-240 0 -375 -166h-63q150 213 438 213q238 0 390 -174t153 -426q-1 -253 -147 -403t-414 -150q-158 0 -280 52t-167 159q-33 -99 -121 -157t-202 -58t-183 26
q-71 26 -97 56t-56 54q-30 26 -62 26q-61 0 -90 -140l-45 31q18 147 98 301t176 262q41 47 41 86z" />
    <glyph glyph-name="si_TTha" horiz-adv-x="2031" 
d="M1473 983q0 -176 153 -176q98 0 125 90q-82 127 -235 240q-43 -64 -43 -154zM198 217q36 0 129 -36t209 -36q116 1 206 57q92 56 92 166t-80 168q-80 56 -214 56t-227 -72q-111 -137 -172 -319q21 16 57 16zM358 698q0 78 -59 78t-61 -63q-4 -123 -86 -123q-37 0 -58 27
q-20 28 -20 67q0 76 53 129t127 53t116 -43t42 -110q0 -8 -2 -19q134 96 286 135t338 39t252 -8h6v-49q-148 0 -252 -94t-104 -234q0 -172 133 -257t336 -85t332 116t129 292t-78 291q-49 -106 -174 -107q-92 0 -147 71q-54 70 -54 190t84 216q90 -49 185 -144
q253 -253 253 -562q0 -223 -154 -365q-155 -141 -388 -141q-160 0 -289 72t-191 196q-18 -122 -112 -196t-216 -74t-192 26q-71 26 -97 56t-56 54q-30 26 -62 26q-61 0 -90 -140l-45 31q18 147 98 301t176 262q41 47 41 86zM561 639q219 0 309 -139q8 102 70 185t160 130
q-250 -4 -414 -48t-285 -155q62 27 160 27z" />
    <glyph glyph-name="si_NDa" horiz-adv-x="1787" 
d="M907 381q0 82 -68 134q-69 52 -166 52q-97 -1 -167 -29t-107 -74t-63 -94q-70 -132 -123 -165q139 -61 313 -61t278 60t103 177zM270 686q-6 -92 -82 -92t-77 104q0 54 53 109t146 55q92 0 144 -58t52 -138q0 -20 -4 -35q112 106 268 174t412 67q119 0 184 -6
q117 -6 180 -72t90 -206h-274q-268 0 -268 -242q0 -125 90 -209t220 -84t243 131l45 -34q-46 -46 -98 -117q-52 -70 -78 -123t-25 -132q0 -79 50 -126t155 -72v-55q-39 -8 -124 -7t-140 55q-56 53 -56 155t142 292q-76 -22 -196 -22t-217 53t-138 150q-47 -99 -157 -151
t-257 -52q-379 0 -500 250q43 -18 85 -18t78 44q36 46 87 134t101 137t49 108q0 125 -101 125q-76 0 -82 -92zM692 616q86 0 160 -41t111 -110q74 170 362 170h240q-15 72 -59 115t-104 43q-60 -1 -90 -61t-83 -60q-76 0 -76 71q0 43 35 74h-19q-219 0 -367 -58t-270 -169
q74 26 160 26z" />
    <glyph glyph-name="si_NVa" horiz-adv-x="2062" 
d="M694 616q88 0 163 -44t112 -117q76 154 303 153h125v8q0 78 -43 126q-44 48 -94 48t-76 -14q-26 -16 -32 -27q-5 -11 -15 -38q-25 -66 -76 -66q-29 -1 -53 19t-23 64q0 44 45 83q-147 -6 -281 -71t-217 -150q74 26 162 26zM907 381q0 82 -68 134q-69 52 -166 52
q-97 -1 -167 -29t-107 -74t-63 -94q-70 -132 -123 -165q139 -61 313 -61t278 60t103 177zM270 686q-6 -92 -82 -92t-77 104q0 54 53 109t146 55q92 0 144 -58t52 -138q0 -20 -4 -35q219 238 614 237q16 0 86 -4q127 -2 193 -78t65 -206v-21h-180q-116 0 -192 -52t-76 -147
q0 -61 37 -106q90 -109 366 -113q229 0 360 123q130 123 130 336q-1 213 -139 359t-339 147q-240 0 -374 -166h-66q150 213 440 213q238 0 392 -174q153 -174 153 -425q0 -250 -147 -402t-416 -152q-155 0 -275 49t-167 152q-47 -99 -157 -151t-257 -52q-379 0 -500 250
q43 -18 85 -18t78 44q36 46 87 134t101 137t49 108q0 125 -101 125q-76 0 -82 -92z" />
    <glyph glyph-name="si_NDha" horiz-adv-x="2154" 
d="M907 381q0 82 -68 134q-69 52 -166 52q-97 -1 -167 -29t-107 -74t-63 -94q-70 -132 -123 -165q139 -61 313 -61t278 60t103 177zM270 686q-6 -92 -82 -92t-77 104q0 54 53 109t146 55q92 0 144 -58t52 -138q0 -20 -4 -35q84 98 222 167q138 68 297 68t277 -59l25 -10h2
v-52h-20q-119 0 -204 -94t-85 -219t68 -208t166 -83q96 0 154 41t58 129v80h58v-80q0 -88 56 -129t140 -41q135 0 206 127t71 299q0 237 -150 391q-149 154 -379 154t-387 -176h-65q172 223 469 223q247 0 413 -180t166 -457q0 -132 -28 -244t-108 -195q-79 -83 -212 -83
t-223 119q-94 -119 -225 -119q-104 0 -179 61q-74 61 -108 162q-41 -111 -155 -168t-269 -57q-379 0 -500 250q43 -18 85 -18t78 44q36 46 87 134t101 137t49 108q0 125 -101 125q-76 0 -82 -92zM690 616q84 0 155 -38t111 -101q20 109 91 199t174 108q-85 31 -221 31
t-263 -69t-205 -156q74 26 158 26z" />
    <glyph glyph-name="si_NTha" horiz-adv-x="2091" 
d="M1538 983q0 -176 154 -176q98 0 125 90q-82 127 -236 240q-43 -64 -43 -154zM907 381q0 82 -68 134q-69 52 -166 52q-97 -1 -167 -29t-107 -74t-63 -94q-70 -132 -123 -165q139 -61 313 -61t278 60t103 177zM270 686q-6 -92 -82 -92t-77 104q0 54 53 109t146 55
q92 0 144 -58t52 -138q0 -20 -4 -35q112 106 268 174t412 67q86 0 176 -12v-49q-148 0 -252 -94t-105 -234q-1 -172 133 -257t337 -85t331 116t129 292q0 176 -78 291q-49 -106 -174 -107q-92 0 -146 71q-54 70 -54 190t84 216q90 -49 185 -144q251 -251 253 -562
q0 -222 -155 -364t-388 -142q-156 0 -282 69t-191 187q-31 -125 -149 -191t-283 -65q-379 0 -500 250q43 -18 85 -18t78 44q36 46 87 134t101 137t49 108q0 125 -101 125q-76 0 -82 -92zM690 616q156 0 246 -110q10 100 74 183t159 128q-219 0 -367 -58t-270 -169
q74 26 158 26z" />
    <glyph glyph-name="si_DVa" horiz-adv-x="1374" 
d="M250 330q0 126 90 202t242 76h123v8q0 78 -43 126q-42 48 -92 48t-76 -14q-26 -16 -33 -28q-6 -12 -17 -37q-25 -66 -73 -66q-29 -1 -52 19t-23 56t26 71q-209 -74 -209 -355q0 -242 157 -377v-59q-98 49 -157 170t-60 272q0 201 109 313t315 111q167 0 235 -91
q56 -75 56 -195v-21h-180q-115 0 -192 -52q-77 -51 -77 -139t67 -140t152 -69t187 -18q229 0 358 123t129 336t-138 359t-339 147q-238 0 -373 -166h-63q150 213 436 213q237 0 391 -174t154 -426q0 -253 -146 -403t-415 -150q-201 0 -335 82t-134 248z" />
    <glyph glyph-name="si_DDha" horiz-adv-x="1456" 
d="M53 424q-1 198 105 320t282 122q129 0 187 -69v-52h-21q-119 0 -204 -94t-85 -219t69 -208t165 -83t155 41q58 41 58 129v80h57v-80q1 -88 57 -129t140 -41q135 0 206 127t70 299q0 237 -150 391t-378 154q-230 0 -387 -176h-66q172 223 469 223q246 0 413 -180t167 -457
q0 -132 -29 -244t-107 -195t-212 -83q-133 0 -223 119q-95 -119 -233 -119t-223 115t-85 263t68 255q69 106 169 141q41 12 62 17q-27 23 -109 23t-153 -38q-70 -37 -106 -98q-68 -115 -68 -262q0 -221 157 -357v-59q-100 50 -158 162t-59 262z" />
    <glyph glyph-name="si_TtTtha" horiz-adv-x="1456" 
d="M877 983q0 -176 153 -176q96 0 123 90q-82 127 -235 240q-41 -62 -41 -154zM558 0q-140 0 -224 114t-84 264q0 148 68 255q69 106 169 141q41 12 62 17q-27 23 -109 23t-153 -38q-70 -37 -106 -98q-68 -115 -68 -262q0 -221 157 -357v-59q-100 49 -158 162t-59 262
q-1 198 105 320t282 122q129 0 187 -69v-52h-21q-119 0 -204 -94t-85 -219t68 -208t164 -83t156 41q59 41 59 129v80h55v-80q-1 -88 57 -129t142 -41q135 1 206 103t70 250q0 96 -32 192t-70 154q-49 -106 -176 -107q-92 0 -147 71q-54 70 -54 190t84 216q92 -49 188 -144
t150 -189q125 -213 125 -412q0 -254 -136 -388q-79 -77 -212 -77t-223 119q-93 -119 -233 -119z" />
    <glyph glyph-name="si_K.halant" horiz-adv-x="1490" 
d="M404 141q72 0 114 46q43 46 43 137v2h53v-2q0 -96 41 -140t127 -43q86 -1 126 55t40 121q0 123 -97 194t-251 71t-235 -35q-47 -43 -107 -123q-84 -121 -119 -234q20 10 41 10q20 0 86 -29q66 -30 138 -30zM385 705q0 80 -70 79q-25 0 -51 -15q-35 -20 -41 -86
q-9 -89 -86 -89q-45 0 -62 29t-18 57q-1 80 63 133t146 53t128 -42t46 -111q0 -20 -2 -31q193 186 467 186q104 0 197 -34v526q31 -25 119 -64t135 -86t47 -121q0 -75 -46 -115q-47 -40 -103 -40t-99 20v-143q117 -61 183 -174t65 -255q0 -142 -75 -263t-216 -121
q-68 0 -100 25v53q34 -25 106 -25t126 73t54 181q0 193 -144 311t-360 119q-216 0 -356 -119q63 16 166 17q186 -1 306 -101t120 -280q0 -100 -59 -177t-187 -77t-192 129q-55 -129 -184 -129q-58 0 -100 24t-58 50q-45 74 -76 73q-70 0 -80 -122l-51 20q12 96 65 220
q52 125 98 187t130 152q49 53 49 103zM1155 1004q27 -14 74 -14t73 28q26 29 25 65q-1 64 -41 99q-41 35 -82 60t-49 32v-270z" />
    <glyph glyph-name="si_Kh.halant" horiz-adv-x="1259" 
d="M186 143q0 -35 26 -61t60 -25q34 0 61 26q25 27 25 61t-25 60q-26 26 -61 26q-34 0 -60 -26t-26 -61zM831 0q-43 0 -75 17t-47 37q-39 54 -68 55q-47 0 -162 -152l-71 6q15 15 74 90q59 74 93 115q158 188 158 297q0 174 -262 174q-135 0 -239 -84t-105 -244
q0 -61 16 -108q11 41 49 65t93 23q55 0 95 -41q40 -42 40 -102t-40 -105t-108 -45t-121 63q-86 104 -87 305q-1 202 117 314q119 112 281 113q162 0 262 -77t101 -200q0 -158 -133 -287q6 2 25 2t59 -45t86 -45q78 1 150 137t73 275q-2 199 -138 317t-390 117
q-254 0 -473 -102v61q18 8 93 31t75 36t-28 33t-27 46q0 61 98 113t254 52q307 0 446 -173q124 -152 144 -371q20 -59 24 -168v-10q-4 -209 -96 -372t-236 -163zM279 1085q-1 -12 23 -28q24 -15 24 -25t-7 -16q121 23 238 22q330 0 498 -194q-47 166 -177 251t-311 85
q-109 0 -199 -30t-89 -65z" />
    <glyph glyph-name="si_G.halant" horiz-adv-x="1271" 
d="M467 815h-23q-129 0 -218 -101q-89 -102 -89 -244t74 -236t201 -93q96 0 160 45t65 129q0 55 -28 87q-27 32 -65 32t-59 -14q-4 -25 -4 -35h-49q16 205 116 342t271 137q20 0 53 -4v502q31 -25 119 -64t134 -86t46 -121q0 -75 -45 -115t-101 -40t-99 20v-108
q114 -39 180 -153t65 -261q-1 -186 -121 -311t-313 -125q-16 0 -61 4v49q33 -4 49 -4q158 0 259 100t101 253t-81 247q-82 94 -206 94q-124 1 -202 -75t-102 -195q20 10 47 10q75 0 119 -56t44 -165q0 -108 -79 -186q-80 -78 -209 -78q-160 0 -254 122t-94 303t105 312
t267 131l27 -2v-47zM1071 1021q27 30 27 65t-18 65t-50 55q-32 24 -64 44q-33 19 -40 26v-270q26 -14 72 -14t73 29z" />
    <glyph glyph-name="si_Gh.halant" horiz-adv-x="1353" 
d="M900 633q97 0 151 -21q29 31 29 79t-41 72q-40 24 -99 23q-162 1 -176 -165q39 12 136 12zM397 -2q-131 0 -213 93t-82 216q0 193 174 258q-221 -4 -266 -12v63h551v9q0 73 -40 119t-97 47q-82 0 -110 -73t-78 -73q-29 -1 -51 19t-21 55q0 69 61 107t150 38
q125 0 188 -78t64 -194v-27h-195q-92 0 -173 -57q-81 -58 -81 -152t71 -154t175 -61q55 0 65 11q-6 31 -6 61q-1 100 55 143t126 43t124 -43t56 -143q0 -31 -6 -61q10 -10 65 -11q111 1 197 59t86 160t-75 162t-197 60t-207 -19v19q-1 126 67 204t178 78h4v496
q31 -25 119 -64t134 -86t46 -121q0 -75 -45 -115t-101 -40t-99 20v-94q147 -25 147 -160q0 -72 -57 -106q70 -33 112 -106t43 -156q0 -158 -91 -246t-234 -88q-74 0 -156 25q-8 16 -8 48q0 31 9 69t9 87t-38 82t-82 33t-82 -33q-37 -33 -37 -96l16 -143q0 -35 -6 -47
q-82 -25 -158 -25zM1155 1019q27 30 27 65t-18 65t-50 55q-32 24 -64 44q-33 19 -40 26v-270q26 -14 72 -14t73 29z" />
    <glyph glyph-name="si_Ng.halant" horiz-adv-x="1232" 
d="M176 694q0 -42 32 -70t77 -28t75 29t29 69q0 40 -30 70q-31 29 -75 29t-76 -29t-32 -70zM178 307q0 -74 54 -120t138 -46t140 40q57 40 57 108v65h56v-65q0 -66 60 -108t140 -42q117 0 181 118q63 118 63 308v10q0 178 -138 295t-375 117t-448 -102v61q14 6 62 24l72 27
q23 10 22 19q0 10 -26 30t-27 46q0 61 97 113q98 52 246 52q296 0 428 -173q118 -154 138 -371q18 -76 23 -193v-8q-2 -224 -83 -368t-227 -144q-88 0 -136 28t-99 91q-94 -119 -217 -119t-200 80t-77 192t75 179q75 66 181 65l201 -14q127 0 127 119q0 98 -82 149t-176 51
q-31 0 -63 -4q80 -43 79 -127q0 -57 -46 -101t-112 -44t-116 42q-49 41 -49 115t80 120q79 46 223 46t232 -72t87 -184q0 -68 -46 -116t-138 -47l-197 12q-78 0 -131 -40t-53 -114zM293 1085q1 -12 23 -28q22 -15 22 -25t-6 -16q117 23 227 22q315 0 477 -194
q-47 166 -171 251t-296 85q-102 0 -189 -30t-87 -65z" />
    <glyph glyph-name="si_Nng.halant" horiz-adv-x="1497" 
d="M700 815h-22q-129 0 -217 -100q-88 -99 -88 -243t72 -238q73 -93 200 -93q96 0 161 45t64 129q0 55 -27 87q-28 32 -65 32t-57 -14q-4 -25 -4 -35h-51q16 203 116 341t273 138q18 0 51 -4v502q31 -25 119 -64t135 -86t47 -121q0 -75 -46 -115q-47 -40 -103 -40t-99 20
v-108q115 -37 181 -152t67 -262q0 -186 -121 -311t-313 -125q-18 0 -64 4v49q33 -4 49 -4q158 0 261 100q102 100 102 253t-83 247t-207 94q-124 1 -202 -75t-102 -195q20 10 47 10q74 0 119 -56t45 -165q0 -108 -80 -186t-209 -78q-160 0 -254 122t-94 274t53 262
q53 108 148 163q-389 -6 -389 -381q0 -242 157 -377v-59q-98 49 -157 170t-60 272q0 201 109 313q109 111 297 111t215 -2l26 -2v-47zM1159 1006q27 -14 74 -14t73 28q26 29 25 65t-15 63q-15 26 -33 42q-19 16 -37 28t-27 19q-8 6 -30 19t-30 20v-270z" />
    <glyph glyph-name="si_C.halant" horiz-adv-x="1241" 
d="M590 0q-199 0 -331 81t-132 249q-1 104 59 158t129 67h-18q-209 -2 -268 -14v63h544v12q0 80 -41 127t-93 47t-78 -14q-25 -16 -31 -28t-15 -37q-20 -66 -75 -66q-29 1 -52 21t-22 55q0 67 62 105t149 38q129 0 195 -76t67 -208v-25h-139q-131 0 -214 -54t-83 -141
q-1 -118 115 -168t278 -51q225 0 352 120t129 339q-4 176 -142 282t-385 105q-247 0 -466 -102v61q18 8 93 31t75 36t-28 33t-27 46q0 61 98 113t254 52q307 0 446 -173q124 -152 144 -371q10 -43 14 -164v-14q-3 -243 -151 -389t-412 -146zM279 1085q-1 -12 23 -28
q24 -15 24 -25t-7 -16q307 58 533 -28q131 -50 203 -144q-47 166 -177 251t-311 85q-109 0 -199 -30t-89 -65z" />
    <glyph glyph-name="si_Ch.halant" 
d="M870 375q80 0 119 108q-70 84 -235 92q3 -200 116 -200zM66 341q0 122 94 203t256 81q29 0 39 -2q4 29 4 39q0 51 -27 86q-27 34 -79 34t-79 -57q-14 -31 -22 -44q-23 -38 -62 -38q-40 0 -62 22t-22 56q0 71 56 107t146 36q88 0 148 -57t60 -156q0 -41 -8 -76
q-29 4 -49 5q-164 0 -242 -62t-78 -146t71 -138t165 -73t210 -19q253 -1 373 92q70 54 70 139q0 25 -6 45q-52 -98 -146 -98t-135 72q-41 73 -43 186q-66 -4 -131 -9q-10 37 -10 81t21 95v766q40 -31 122 -69t127 -80q45 -41 45 -110q0 -68 -44 -110t-102 -42t-95 12v-297
q41 35 112 49q51 145 117 228q115 143 223 143q23 0 38 -13t15 -35t-18 -34t-47 -16t-76 -30q-120 -66 -188 -237h4q113 0 183 -70t71 -206q0 -51 -12 -100q45 -68 45 -172t-75 -181q-136 -141 -439 -141q-304 0 -442 140q-76 79 -76 201zM612 647q0 -18 2 -26q29 4 84 4
q6 90 29 182q-115 -39 -115 -160zM1008 590q0 229 -203 229h-17q-29 -92 -34 -196q162 -6 250 -78q4 29 4 45zM704 1151q46 0 70 28q24 27 25 63q0 36 -19 66q-18 30 -39 47t-110 68v-262q27 -10 73 -10z" />
    <glyph glyph-name="si_J.halant" 
d="M66 341q0 122 94 203t256 81q37 0 53 -2q4 29 4 39q0 51 -28 86q-29 34 -85 34t-80 -50t-42 -69t-52 -19t-55 21q-20 22 -20 58q0 69 59 105t148 36q90 0 152 -57t62 -156q0 -41 -8 -76q-49 4 -65 5q-164 0 -242 -62t-78 -146t71 -138t165 -73t210 -19q253 -1 373 92
q70 54 70 140t-79 144q-79 59 -238 60q-48 0 -76 -4q-27 -4 -35 -5q-14 45 -14 95t14 81v766q39 -31 122 -69t128 -80q45 -41 45 -110q0 -68 -45 -110q-46 -42 -104 -42t-95 12v-295q39 29 86 41q41 164 174 285q100 92 176 92q23 0 36 -13t13 -33t-36 -40q-38 -20 -100 -53
q-148 -78 -199 -230q12 2 37 2q74 0 138 -41t64 -120q0 -98 -94 -127q152 -70 152 -244q0 -117 -75 -195q-136 -141 -439 -141q-304 0 -442 140q-76 79 -76 201zM725 750q0 33 2 47q-82 -33 -82 -129q0 -21 6 -50q70 8 113 3q-39 51 -39 129zM782 732q0 -38 26 -74
q26 -35 71 -35q45 1 73 25t27 68q0 44 -41 70q-42 26 -90 27q-48 0 -62 -2q-4 -41 -4 -79zM724 1151q46 0 71 28q25 27 25 63t-19 66q-18 30 -46 52t-104 63v-262q27 -10 73 -10z" />
    <glyph glyph-name="si_Jh.halant" horiz-adv-x="2172" 
d="M1178 1085q0 -12 24 -28q24 -15 25 -25q0 -10 -6 -16q121 23 237 22q334 0 502 -194q-47 166 -179 251t-313 85q-110 0 -200 -30t-90 -65zM385 705q0 80 -70 79q-25 0 -51 -15q-35 -20 -41 -86q-9 -89 -86 -89q-45 0 -62 29t-18 57q-1 80 63 133t146 53t128 -42t46 -111
q0 -20 -2 -31q203 186 512 186q266 0 391 -71v-52h-18q-119 0 -204 -94t-85 -219t68 -208t164 -83t155 41t60 129v80h55v-80q0 -88 57 -129t142 -41q135 0 203 124t69 267q0 217 -147 336t-396 119q-188 0 -446 -76v60q133 20 133 45q0 10 -28 30t-27 46q0 61 99 113t255 52
q306 0 447 -173q127 -153 147 -371q37 -97 37 -221q0 -273 -138 -413q-79 -79 -198 -79q-150 0 -240 119q-94 -119 -225 -119q-176 0 -262 166q-20 -74 -76 -121t-147 -47q-139 0 -203 129q-55 -129 -184 -129q-58 0 -100 24t-58 50q-45 74 -76 73q-70 0 -80 -122l-51 20
q12 96 65 220q52 125 98 187t130 152q49 53 49 103zM604 633q258 0 369 -170q16 113 81 197t150 114q8 0 23 6q-111 31 -279 31q-287 0 -510 -195q64 17 166 17zM404 141q72 0 114 46q43 46 43 137v2h53v-2q0 -96 41 -140t127 -43q86 -1 126 55t40 121q0 123 -97 194
t-251 71t-235 -35q-47 -43 -107 -123q-84 -121 -119 -234q20 10 41 10q20 0 86 -29q66 -30 138 -30z" />
    <glyph glyph-name="si_Ny.halant" horiz-adv-x="2086" 
d="M854 633q264 0 373 -176q68 176 362 176h242q-14 67 -80 113t-127 46t-91 -60t-85 -60q-76 0 -76 71q0 51 51 86h-57q-141 0 -238 -18q-246 -45 -440 -195q64 17 166 17zM1993 1089q0 -75 -46 -115q-47 -40 -101 -40t-97 20v-135q121 -68 154 -231h-275q-268 0 -268 -244
q0 -125 89 -209t219 -84t245 133l45 -37q-66 -66 -91 -102q-25 -37 -55 -81q-56 -82 -57 -173q0 -92 51 -139t156 -72v-55q-39 -8 -125 -7t-140 55q-55 55 -55 157t140 290q-84 -25 -170 -24q-248 0 -350 149q-57 -147 -207 -147t-213 129q-55 -129 -185 -129q-59 0 -100 24
t-57 50q-45 74 -76 73q-70 0 -80 -122l-51 20q12 96 65 219q52 124 102 192t114 136t63 108q0 88 -72 86q-25 0 -51 -15q-35 -20 -41 -86q-9 -89 -86 -89q-45 0 -62 29t-18 57q0 68 51 123l-4 -2q-115 -29 -178 -122t-63 -243q0 -242 157 -377v-59q-98 49 -157 170t-60 272
q0 201 109 314t315 112q119 0 166 -44t47 -111q0 -20 -2 -31q263 201 690 203q173 0 314 -39v514q30 -25 118 -64t136 -86t47 -121zM654 141q72 0 114 46q43 46 43 137v2h53v-2q0 -96 41 -140t127 -43q86 -1 126 55t40 121q0 123 -97 194t-251 71t-236 -35
q-47 -43 -106 -123q-84 -121 -119 -234q20 10 41 10q20 0 86 -29q66 -30 138 -30zM1921 1075q0 83 -86 142l-27 18q-8 6 -30 19t-29 20v-270q27 -14 71 -14t73 29q28 30 28 56z" />
    <glyph glyph-name="si_Jny.halant" horiz-adv-x="1683" 
d="M739 481q70 0 115 -51q55 205 373 205h239q-16 72 -59 115t-103 43q-60 -1 -91 -61q-30 -60 -83 -60q-76 0 -75 71q0 45 35 76h-15q-156 0 -252 -93t-129 -255q20 10 45 10zM666 815h-23q-129 0 -217 -100q-88 -99 -88 -243t74 -238t185 -93q111 0 175 45q64 44 64 114
t-28 102t-65 32t-55 -14q-4 -25 -4 -35h-53q45 492 489 492q117 0 189 -15v498q31 -25 119 -64t134 -86t46 -121q0 -75 -45 -115t-101 -40t-98 20v-106q135 -53 174 -260h-274q-268 0 -269 -242q0 -125 90 -209q91 -84 221 -84t242 131l45 -34q-46 -46 -98 -117
q-52 -70 -77 -124t-25 -132t50 -125t154 -72v-55q-39 -8 -123 -7t-141 55q-55 54 -55 142q0 117 139 305q-76 -23 -170 -22q-264 0 -362 170q-31 -80 -101 -126t-168 -46q-160 0 -254 122t-94 296q0 127 50 233t139 164q-182 -3 -263 -109t-81 -266q0 -242 157 -377v-59
q-98 49 -157 170t-60 272q0 201 109 313t315 111q141 0 168 -2l21 -2v-47zM1536 1075q0 83 -86 142l-27 18q-7 6 -29 19t-30 20v-270q28 -14 72 -14t72 29q28 30 28 56z" />
    <glyph glyph-name="si_Ndj.halant" horiz-adv-x="1396" 
d="M268 341q0 122 94 203t256 81q37 0 54 -2q4 29 4 39q0 48 -29 84t-86 36t-84 -57q-14 -31 -22 -44q-23 -38 -62 -38t-61 23q-22 24 -21 62q0 38 25 67q-106 -31 -164 -123t-59 -236q0 -242 157 -377v-59q-98 49 -157 170t-60 272q0 201 109 313t315 111q143 0 200 -62
q56 -62 56 -153q0 -41 -8 -76q-49 4 -66 5q-165 0 -241 -62t-76 -146t71 -138t165 -73t210 -19t209 18q94 20 164 74t70 140t-80 144q-80 59 -240 60q-49 0 -74 -4q-26 -4 -34 -5q-32 104 2 183v759q39 -31 122 -69t127 -80q44 -41 44 -110q0 -68 -44 -110t-102 -42t-96 12
v-295q39 29 84 41q41 164 174 285q100 92 176 92q47 0 47 -43q0 -23 -37 -43t-98 -53q-151 -82 -201 -230q12 2 39 2q74 0 138 -41t63 -129q0 -88 -94 -118q154 -70 153 -244q0 -117 -74 -195q-135 -141 -439 -141t-442 140q-77 78 -77 201zM928 750q0 33 2 47
q-82 -33 -82 -129q0 -21 6 -50q66 8 113 3q-39 51 -39 129zM983 736q-1 -44 25 -78q26 -35 71 -35q45 1 73 25t28 68t-40 70t-90 27q-50 0 -61 -2q-6 -31 -6 -75zM929 1151q47 0 71 28q24 27 24 63t-18 66t-38 45t-112 70v-262q27 -10 73 -10z" />
    <glyph glyph-name="si_Tt.halant" horiz-adv-x="1204" 
d="M1114 543v-8q-4 -233 -156 -385t-384 -152t-371 114t-139 292t117 278q118 100 284 100q92 0 176 -32v-58q-75 37 -193 37t-218 -78t-99 -218q0 -140 127 -216t295 -76q219 0 355 116t139 327q-5 178 -141 290t-370 113q-234 0 -452 -102v61q18 8 93 31t75 36t-28 33
t-27 46q0 61 98 113q99 52 249 52q290 0 412 -163t142 -381q16 -78 16 -170zM279 1085q-1 -12 23 -28q24 -15 24 -25t-7 -16q105 22 241 22t260 -50t194 -144q-47 168 -165 252t-282 84q-109 0 -199 -30t-89 -65z" />
    <glyph glyph-name="si_Tth.halant" horiz-adv-x="1261" 
d="M1012 1092q106 0 106 98q0 86 -113 146q-52 28 -59 34v-266q25 -12 66 -12zM651 983q0 -176 156 -176q96 0 123 90q-82 127 -236 240q-43 -64 -43 -154zM374 0q-138 0 -223 114t-85 264q0 148 68 255q107 164 308 164v-52h-20q-119 0 -204 -94t-85 -219t69 -208t165 -83
t154 41t59 129v80h57v-80q0 -88 56 -129t141 -41q136 1 206 103t70 250q0 190 -141 352q-49 -113 -176 -113q-92 0 -147 71q-54 70 -54 190t84 216q94 -47 215 -172v422q44 -39 199 -102q42 -18 76 -62t34 -106q0 -64 -42 -106t-102 -42t-110 17v-84q14 -17 83 -107
t109 -185t40 -213t-29 -217t-108 -176t-197 -77q-147 0 -238 119q-94 -119 -232 -119z" />
    <glyph glyph-name="si_Dd.halant" horiz-adv-x="1292" 
d="M569 985q-254 0 -469 -100v61q18 8 94 32t74 38q0 10 -28 30t-27 46q0 61 98 113t254 52q307 0 448 -173q126 -152 146 -371q35 -78 37 -197v-8q-2 -216 -88 -362t-240 -146t-241 119q-97 -119 -235 -119t-219 96t-81 228q0 80 40 150t118 101h-219v56h491q-4 63 -43 107
t-91 44t-83 -52t-71 -52t-62 19t-20 51q0 55 54 86t124 30q122 0 190 -78t70 -211h-150q-130 1 -202 -67t-72 -156t61 -149t155 -61t155 38q61 39 61 107v69h53v-69q1 -66 59 -106t138 -40q126 -1 196 101t78 258l2 43v2q-2 205 -152 323t-403 117zM295 1085q-1 -12 23 -28
q24 -15 24 -25t-6 -16q121 23 237 22q334 0 502 -194q-47 166 -179 251t-312 85q-109 0 -199 -30t-90 -65z" />
    <glyph glyph-name="si_Ddh.halant" horiz-adv-x="1292" 
d="M954 958q240 -278 240 -515q0 -238 -142 -369q-81 -74 -210 -74t-215 119q-97 -119 -235 -119t-219 96t-81 228q0 80 40 150t118 101h-219v56h485q-4 63 -43 107t-90 44t-82 -52t-72 -52t-63 19t-21 51q1 55 55 86t124 30q122 0 190 -78t70 -211h-144q-130 1 -202 -67
t-72 -156t61 -149t155 -61t155 38q61 39 61 107v69h53v-69q1 -66 59 -106t138 -40q131 -1 201 103t69 221q0 78 -26 157q-27 78 -45 108t-56 85q-66 -104 -190 -104q-92 0 -147 69q-54 70 -54 184t84 222q102 -55 213 -168v377q48 -42 200 -103q44 -18 78 -61
q33 -43 33 -107t-42 -105q-42 -42 -105 -42t-107 14v-33zM659 961q0 -178 156 -179q100 0 139 90q-41 55 -113 125q-73 70 -136 115q-46 -67 -46 -151zM1020 1026q106 0 106 98q0 51 -30 85q-31 34 -83 62t-59 34v-267q25 -12 66 -12z" />
    <glyph glyph-name="si_Nn.halant" horiz-adv-x="1925" 
d="M1796 1019q27 30 27 65t-18 65t-50 55q-32 24 -64 44q-33 19 -40 26v-270q27 -14 73 -14t72 29zM1468 211q0 -143 115 -143q69 0 95 70t26 196q0 125 -27 205t-80 79q-111 0 -120 -215q6 -37 6 -91t-15 -99v-2zM1292 135q57 0 93 51t36 138q0 188 -133 188
q-82 0 -121 -104q-4 -53 -14 -95q2 -76 42 -127t97 -51zM592 508q0 -51 36 -87t87 -36t86 36t35 87t-35 87t-86 36t-87 -36t-36 -87zM535 496q0 70 38 120q-70 -35 -170 -94q17 -68 71 -106t126 -49q-65 59 -65 129zM700 145q168 0 283 88t115 240q0 98 -47 178t-136 123
q-67 -27 -200 -88q74 0 127 -53t53 -117t-33 -112q-33 -46 -84 -66q-58 -27 -152 -27t-172 49t-104 132q-16 -10 -121 -76q53 0 131 -95q33 -40 74 -80q40 -40 110 -68t156 -28zM715 815q-133 0 -226 -65q-92 -66 -92 -168q201 115 432 221q-51 12 -114 12zM340 565
q0 143 109 222t270 79q96 0 180 -32q84 37 199 81q250 98 350 99q70 0 70 -53q0 -45 -70 -62q-52 0 -143 -15q-142 -23 -328 -87q158 -94 184 -289q57 63 140 63t137 -69q6 72 46 126t111 66v666q31 -25 119 -64t135 -86t47 -121q0 -75 -45 -115t-101 -40t-99 20v-260
q86 -12 133 -112t47 -250t-56 -242t-176 -92q-75 0 -119 40t-53 97q-51 -63 -123 -63q-132 0 -188 143q-113 -215 -387 -215q-92 0 -165 27q-72 27 -112 67q-88 90 -121 153q-61 117 -132 115q-51 0 -133 -55l-23 49q141 98 297 193v16z" />
    <glyph glyph-name="si_Nndd.halant" horiz-adv-x="1460" 
d="M743 985q-254 0 -469 -100v61q18 8 94 32t74 38q0 10 -28 30t-29 46q0 61 99 113t255 52q307 0 448 -173q126 -152 146 -371q35 -78 37 -197v-8q-2 -216 -88 -362t-240 -146t-241 119q-97 -119 -235 -119t-219 96t-81 228q0 80 40 150t118 101h-219v56h491q-4 63 -43 107
t-91 44t-83 -52t-71 -52t-62 19t-20 47q0 28 14 53q-109 -31 -168 -123t-59 -238q0 -242 157 -377v-59q-98 49 -157 170t-60 272q0 201 109 313t315 111q66 0 109 -12q84 -26 130 -98t48 -181h-150q-130 1 -202 -67t-72 -156t61 -149t155 -61t155 38q61 39 61 107v69h53v-69
q1 -66 59 -106t138 -40q127 -1 197 101t77 258l2 43v2q-2 205 -152 323t-403 117zM469 1085q0 -12 29 -32t12 -37q121 23 238 22q334 0 501 -194q-47 166 -179 251t-312 85q-109 0 -199 -30t-90 -65z" />
    <glyph glyph-name="si_T.halant" horiz-adv-x="1406" 
d="M198 217q36 0 129 -36t209 -36q116 1 206 57q92 56 92 166t-80 168q-80 56 -214 56t-227 -72q-111 -137 -172 -319q21 16 57 16zM358 698q0 78 -59 78t-61 -63q-4 -123 -86 -123q-37 0 -58 27q-20 28 -20 67q0 76 53 129t127 53t116 -43t42 -110q0 -8 -2 -19
q160 176 436 176q96 0 178 -30v520q31 -25 119 -64t134 -86t46 -121q0 -75 -45 -115q-46 -40 -102 -40t-99 20v-137q117 -61 184 -178t67 -271t-77 -263q-76 -108 -209 -107q-76 0 -133 31v59q57 -35 113 -35q94 0 146 72t53 176q-1 185 -141 321t-350 136t-329 -146
q61 27 160 27q160 0 258 -81q99 -81 99 -228q0 -146 -96 -240t-259 -94q-100 0 -170 26q-71 26 -97 56t-56 54q-30 26 -62 26q-61 0 -90 -140l-45 31q18 147 98 301t176 262q41 47 41 86zM1077 1004q27 -14 74 -14t73 28q26 29 25 65t-15 63q-15 26 -33 42q-19 16 -37 28
t-27 19q-8 6 -30 19t-30 20v-270z" />
    <glyph glyph-name="si_Th.halant" horiz-adv-x="1226" 
d="M608 971q0 -178 154 -178q39 1 76 27t51 73q-88 119 -240 229q-41 -67 -41 -151zM66 469q0 163 118 277t277 114v-49q-123 0 -225 -95t-103 -233q0 -172 133 -257q134 -85 334 -85t325 112q124 112 124 275q0 88 -37 173t-84 139q-55 -119 -180 -119q-92 0 -146 70
q-53 69 -53 185t84 220q115 -61 250 -211v401q42 -37 198 -102q43 -18 77 -61t34 -107t-42 -105q-42 -42 -106 -42t-106 14v-61q14 -18 39 -52q156 -206 156 -402t-157 -333t-382 -137t-377 130q-151 130 -151 341zM1004 1018q106 0 106 98q0 51 -31 85t-83 62t-58 33v-266
q25 -12 66 -12z" />
    <glyph glyph-name="si_D.halant" horiz-adv-x="911" 
d="M61 338q0 297 385 297h240q-16 72 -59 115t-103 43q-60 -1 -91 -61q-30 -60 -83 -60q-76 0 -76 71q0 53 54 88t137 35q23 0 63 -4v498q31 -25 119 -64t134 -86t46 -121q0 -75 -45 -115t-100 -40t-98 20v-106q133 -49 174 -260h-275q-268 0 -268 -242q0 -125 90 -209
t220 -84t243 131l45 -34q-46 -46 -98 -117q-52 -70 -77 -121t-25 -132q-1 -81 49 -128t155 -72v-55q-39 -8 -123 -7t-141 55q-55 54 -55 142q0 115 141 305q-76 -23 -170 -22q-193 0 -301 93t-107 247zM728 1019q28 30 28 65t-18 65t-50 55q-32 24 -64 44q-33 19 -40 26
v-270q28 -14 72 -14t72 29z" />
    <glyph glyph-name="si_Dh.halant" horiz-adv-x="1275" 
d="M374 0q-138 0 -223 114t-85 264q0 148 68 255q107 164 308 164v-52h-20q-119 0 -204 -94t-85 -219t69 -208t165 -83t154 41t59 129v80h57v-80q0 -88 56 -129q55 -41 145 -41t154 68q116 122 116 331t-148 328t-403 119q-254 0 -473 -102v61q18 8 93 31t75 36t-28 33
t-27 46q0 61 98 113t254 52q308 0 449 -173q126 -153 147 -371q35 -93 35 -219t-30 -231t-109 -184t-197 -79q-147 0 -238 119q-94 -119 -232 -119zM279 1085q-1 -12 23 -28q24 -15 24 -25t-7 -16q121 23 238 22q336 0 504 -194q-47 166 -180 251t-314 85q-109 0 -199 -30
t-89 -65z" />
    <glyph glyph-name="si_N.halant" horiz-adv-x="1611" 
d="M907 381q0 82 -68 134q-69 52 -166 52q-97 -1 -167 -29t-107 -74t-63 -94q-70 -132 -123 -165q139 -61 313 -61t278 60t103 177zM270 686q-6 -92 -82 -92t-77 104q0 54 53 109t146 55q92 0 144 -58t52 -138q0 -20 -4 -35q84 98 222 167q138 68 268 68t222 -37v531
q31 -25 119 -64t134 -86t46 -121q0 -75 -45 -115t-101 -40t-99 20v-149q116 -63 184 -177t68 -272t-87 -258t-206 -100q-90 0 -144 45v61q57 -53 137 -53t135 67q54 67 54 181q0 203 -156 322t-356 118q-233 0 -365 -149q74 27 158 26q127 0 216 -80t89 -198
q0 -166 -124 -253t-318 -87q-379 0 -500 250q43 -18 85 -18t78 44q36 46 87 134t101 137t49 108q0 125 -101 125q-76 0 -82 -92zM1413 1019q27 30 27 65t-18 65t-50 55q-32 24 -64 44q-33 19 -40 26v-270q26 -14 72 -14t73 29z" />
    <glyph glyph-name="si_Nd.halant" horiz-adv-x="1075" 
d="M995 1089q0 -75 -45 -115t-100 -40t-98 20v-123q139 -70 174 -243h-275q-266 0 -266 -242q0 -125 89 -209t219 -84t243 131l45 -34q-46 -46 -98 -117q-52 -70 -77 -121t-25 -132q-1 -81 49 -128t155 -72v-55q-39 -8 -123 -7t-141 55q-55 54 -55 142q0 115 141 305
q-76 -23 -170 -22q-193 0 -301 93t-107 247q0 297 385 297h240q-16 65 -74 109t-118 44t-91 -57q-29 -59 -82 -59q-76 0 -75 71q0 41 24 66q-326 -29 -325 -373q0 -242 157 -377v-59q-98 49 -157 170t-60 272q0 203 114 316t343 112q98 0 186 -18v508q31 -25 119 -64
t134 -86t46 -121zM896 1019q28 30 28 65t-18 65t-50 55q-32 24 -64 44q-33 19 -40 26v-270q28 -14 72 -14t72 29z" />
    <glyph glyph-name="si_P.halant" horiz-adv-x="1230" 
d="M707 672q0 -14 2 -23q51 6 127 6t143 -24q31 31 31 73t-39 75q-39 32 -107 32q-68 -1 -112 -37t-45 -102zM377 791q-80 0 -98 -68t-91 -68q-30 -1 -54 19t-23 55q0 63 59 101q60 38 158 38t160 -51t63 -149q0 -37 -8 -72q-74 8 -109 8q-129 0 -213 -49t-84 -147t74 -157
q136 -110 403 -110q182 0 324 69q141 69 141 200q0 102 -81 150t-210 48q-63 0 -141 -14q-6 35 -6 61q0 93 54 147t149 62v498q31 -25 119 -64t135 -86t47 -121q0 -75 -46 -115q-47 -40 -103 -40t-99 20v-90q84 -6 134 -52t50 -107t-53 -101q121 -72 121 -246t-153 -266
q-153 -94 -382 -94q-158 0 -276 33t-198 119q-79 86 -79 219q1 133 95 208t258 74q20 0 73 -4l2 23q0 55 -31 87q-32 32 -81 32zM1044 1020q26 29 25 65q0 64 -41 99t-82 60t-49 32v-270q27 -14 74 -14t73 28z" />
    </font>
</defs>
</svg>
