<?xml version="1.0" standalone="no"?>
<!DOCTYPE svg PUBLIC "-//W3C//DTD SVG 1.1//EN" "http://www.w3.org/Graphics/SVG/1.1/DTD/svg11.dtd" >
<svg xmlns="http://www.w3.org/2000/svg" xmlns:xlink="http://www.w3.org/1999/xlink" version="1.1" viewBox="0 -227 8888 1081">
  <g transform="matrix(1 0 0 -1 0 800)">
   <path fill="currentColor"
d="M6243 211c0 250.807 182.338 483 497 483c307.755 0 426 -199.436 426 -437c0 -250 -147.151 -475 -467 -475c-305.394 0 -456 197 -456 429zM6523 285c0 -152.251 65.0914 -328 195 -328c81.2163 0 159 72 159 240c0 164.637 -80.8052 330 -204 330
c-91 0 -150 -108.483 -150 -242zM2480 204c0 250.807 182.338 483 497 483c307.755 0 426 -199.436 426 -437c0 -250 -147.151 -475 -467 -475c-305.394 0 -456 197 -456 429zM2760 278c0 -152.251 65.0914 -328 195 -328c81.2163 0 159 72 159 240
c0 164.637 -80.8052 330 -204 330c-91 0 -150 -108.483 -150 -242zM7287 -75c46 10 107 40 107 120l268 -55c0 -51.9648 105.206 -59.6172 196 -64l-20 -117h-571zM8507 696c-285 0 -436 -218 -436 -475c0 -224 114 -443 446 -443c154 0 277 47 371 126l-50 116
c-58 -25 -136 -49 -227 -48c-225 0 -270 191 -270 334c0 110 27 238 149 238c115 0 161 -113 161 -213l-403 3c-9 -127 -15 -156 -15 -156h634c36 189 -10 518 -360 518zM7543 442c0 0 154.419 234 397 234c92.54 0.742188 136 -30 136 -30l-74 -331l-104 -24
c-26 53 -56 98 -85 144l-238 -9zM7388 -192c1 230.982 -6 391.161 0 650l-183 51l30 127l410 40l-30 -160l40 -88v-620h-267zM5248 -175v1051l-166 50l30 116l450 32l-26 -212l-4 -174l-31 -132l31 -22v-669zM5746 696c205 0 411 -149 411 -453c0 -229 -117 -470 -526 -470
c-118 0 -280 20 -383 56l142 336c72.9473 -118.622 136.632 -231.081 286 -228c125.636 0 181 139.174 181 269c0 102 -27.9658 267.966 -212 274c-122 4 -248 -74 -248 -74v107c92 123 222 183 349 183zM1913 -82c50 10 133 33 133 120l284 -75
c0 -35.6396 76 -40.832 138 -44l-20 -117h-555zM3482 -82c57 10 150 40 151 120l273 -75c0 -27.6064 59.1514 -41.6719 110 -44l-20 -117h-534zM4092 -82c51 10 120 40 120 120l264 -75c0 -35.0107 59 -41.0469 110 -44l-20 -117h-494zM4652 -82c46 10 107 40 107 120
l268 -75c0 -35.7266 73 -40.9873 136 -44l-20 -117h-511zM4405 536c91 85 185 160 338 160c241 0 284 -188 284 -270v-624h-268v446c0 203 -142 222 -329 161zM3898 696l-16 -158c83 83 175 158 319 158c235 0 276 -199 276 -288v-606h-268v398c0 267 -130 289 -302 209
v-607h-274v660l-181 36l20 140zM2046 -198v1044l-183 67l20 107l477 61l-30 -273v-1006h-284zM968 203c0 250.807 182.338 483 497 483c307.755 0 426 -199.436 426 -437c0 -250 -147.151 -475 -467 -475c-305.394 0 -456 197 -456 429zM1248 277
c0 -152.251 65.0914 -328 195 -328c81.2163 0 159 72 159 240c0 164.637 -80.8052 330 -204 330c-91 0 -150 -108.483 -150 -242zM571 696c-300 0 -489 -211 -489 -484c0 -226 111.791 -438 504 -438c189.857 0 292 66 292 66v232h-134
c-40.2967 -56.9281 -84.4701 -74 -132 -74c-167.143 0 -240 131.903 -240 269c0 119.936 75.497 243 197 243c79.326 0 105 -48 105 -48l35 -112h162l2 257s-89.8633 89 -302 89z" />
  </g>

</svg>
