<?xml version="1.0" encoding="UTF-8" standalone="no"?>
<svg
   xmlns:dc="http://purl.org/dc/elements/1.1/"
   xmlns:cc="http://creativecommons.org/ns#"
   xmlns:rdf="http://www.w3.org/1999/02/22-rdf-syntax-ns#"
   xmlns:svg="http://www.w3.org/2000/svg"
   xmlns="http://www.w3.org/2000/svg"
   xmlns:sodipodi="http://sodipodi.sourceforge.net/DTD/sodipodi-0.dtd"
   xmlns:inkscape="http://www.inkscape.org/namespaces/inkscape"
   version="1.1"
   viewBox="0 -200 8907 1308"
   id="svg8213"
   inkscape:version="0.91+devel+osxmenu r12898"
   sodipodi:docname="logo_text.svg">
  <metadata
     id="metadata8223">
    <rdf:RDF>
      <cc:Work
         rdf:about="">
        <dc:format>image/svg+xml</dc:format>
        <dc:type
           rdf:resource="http://purl.org/dc/dcmitype/StillImage" />
      </cc:Work>
    </rdf:RDF>
  </metadata>
  <defs
     id="defs8221" />
  <sodipodi:namedview
     pagecolor="#ffffff"
     bordercolor="#666666"
     borderopacity="1"
     objecttolerance="10"
     gridtolerance="10"
     guidetolerance="10"
     inkscape:pageopacity="0"
     inkscape:pageshadow="2"
     inkscape:window-width="1306"
     inkscape:window-height="732"
     id="namedview8219"
     showgrid="false"
     inkscape:zoom="0.11216641"
     inkscape:cx="4453.5"
     inkscape:cy="654"
     inkscape:window-x="0"
     inkscape:window-y="23"
     inkscape:window-maximized="0"
     inkscape:current-layer="svg8213" />
  <g
     transform="matrix(1,0,0,-1,-27.6,1110.5)"
     id="g8215">
    <path
       d="m 6229,427 c 0,260.807 183.071,483 499,483 307.755,0 426,-199.436 426,-437 0,-260 -147.151,-475 -467,-475 -306.734,0 -458,197 -458,429 z m 292,74 c 0,-152.251 61.7533,-328 185,-328 76.1084,0 149,72 149,240 0,164.637 -76.8442,330 -194,330 -84.9333,0 -140,-108.483 -140,-242 z M 2476,433 c 0,260.807 183.071,483 499,483 307.755,0 426,-199.436 426,-437 C 3401,219 3253.849,4 2934,4 2627.266,4 2476,201 2476,433 Z m 292,74 c 0,-152.251 61.7533,-328 185,-328 76.1084,0 149,72 149,240 0,164.637 -76.8442,330 -194,330 -84.9333,0 -140,-108.483 -140,-242 z M 7276,152 c 46,10 107,40 107,120 l 268,-55 c 0,-51.9648 105.206,-59.6172 196,-64 l -20,-117 -571,0 z m 1229,771 c -285,0 -436,-218 -436,-475 0,-224 114,-443 446,-443 154,0 277,47 371,126 l -50,116 c -58,-25 -136,-49 -227,-48 -225,0 -270,191 -270,334 0,110 27,238 149,238 107.857,0 151,-113 151,-213 l -393,3 c -9,-127 -15,-156 -15,-156 l 664,0 c 39,189 -10.8333,518 -390,518 z M 7532,669 c 0,0 154.419,234 397,234 92.54,0.74219 136,-30 136,-30 l -74,-331 -104,-24 c -26,53 -56,98 -85,144 l -238,-9 z M 7377,35 c 1,223.875 -6,379.125 0,630 l -183,51 30,147 410,40 -30,-160 40,-88 0,-620 -267,0 z m -2129,17 0,1021 -166,50 30,146 450,32 -26,-212 -4,-174 -31,-132 31,-22 0,-669 z m 498,871 c 205,0 411,-149 411,-453 C 6157,241 6040,0 5631,0 5513,0 5351,20 5248,56 l 142,336 c 72.9473,-118.622 136.632,-231.081 286,-228 125.636,0 181,139.174 181,269 0,102 -27.9658,267.966 -212,274 -122,4 -248,-74 -248,-74 l 0,107 c 92,123 222,183 349,183 z M 1914,145 c 50,10 133,33 133,120 l 284,-75 c 0,-35.6396 76,-40.832 138,-44 l -20,-117 -555,0 z m 1568,0 c 57,10 150,40 151,120 l 273,-75 c 0,-27.6064 59.1514,-41.6719 110,-44 l -20,-117 -534,0 z m 610,0 c 51,10 120,40 120,120 l 264,-75 c 0,-35.0107 59,-41.0469 110,-44 l -20,-117 -494,0 z m 560,0 c 46,10 107,40 107,120 l 268,-75 c 0,-35.7266 73,-40.9873 136,-44 l -20,-117 -511,0 z m -247,618 c 91,85 185,160 338,160 241,0 284,-188 284,-270 l 0,-624 -268,0 0,446 c 0,203 -142,222 -329,161 z m -507,160 -16,-158 c 83,83 175,158 319,158 235,0 276,-199 276,-288 l 0,-606 -268,0 0,398 c 0,267 -130,289 -302,209 l 0,-607 -274,0 0,660 -181,36 20,140 z M 2047,29 l 0,1014 -173,57 20,147 467,61 -30,-273 0,-1006 -284,0 z M 967,430 c 0,260.807 183.071,483 499,483 307.755,0 426,-199.436 426,-437 C 1892,216 1744.849,1 1425,1 1118.266,1 967,198 967,430 Z m 292,74 c 0,-152.251 61.7533,-328 185,-328 76.1084,0 149,72 149,240 0,164.637 -76.8442,330 -194,330 -84.9333,0 -140,-108.483 -140,-242 z M 589,923 C 289,923 100,712 100,439 100,213 211.791,1 604,1 793.857,1 896,77 896,77 L 866,229 C 827.2782,216.1351 720.149,195 660,195 478.929,195 400,357.427 400,484 c 0,124.871 71.6647,253 187,253 79.326,0 105,-48 105,-48 l 35,-112 162,0 2,257 c 0,0 -89.8633,89 -302,89 z"
       id="path8217"
       inkscape:connector-curvature="0"
       style="fill:currentColor" />
  </g>
</svg>
