<?xml version="1.0" standalone="no"?>
<!DOCTYPE svg PUBLIC "-//W3C//DTD SVG 1.1//EN" "http://www.w3.org/Graphics/SVG/1.1/DTD/svg11.dtd" >
<svg xmlns="http://www.w3.org/2000/svg" xmlns:xlink="http://www.w3.org/1999/xlink" version="1.1" viewBox="0 -200 8907 1308">
  <g transform="matrix(1 0 0 -1 0 800)">
   <path fill="currentColor"
d="M6229 427c0 260.807 183.071 483 499 483c307.755 0 426 -199.436 426 -437c0 -260 -147.151 -475 -467 -475c-306.734 0 -458 197 -458 429zM6521 501c0 -152.251 61.7533 -328 185 -328c76.1084 0 149 72 149 240c0 164.637 -76.8442 330 -194 330
c-84.9333 0 -140 -108.483 -140 -242zM2476 433c0 260.807 183.071 483 499 483c307.755 0 426 -199.436 426 -437c0 -260 -147.151 -475 -467 -475c-306.734 0 -458 197 -458 429zM2768 507c0 -152.251 61.7533 -328 185 -328c76.1084 0 149 72 149 240
c0 164.637 -76.8442 330 -194 330c-84.9333 0 -140 -108.483 -140 -242zM7276 152c46 10 107 40 107 120l268 -55c0 -51.9648 105.206 -59.6172 196 -64l-20 -117h-571zM8505 923c-285 0 -436 -218 -436 -475c0 -224 114 -443 446 -443c154 0 277 47 371 126l-50 116
c-58 -25 -136 -49 -227 -48c-225 0 -270 191 -270 334c0 110 27 238 149 238c107.857 0 151 -113 151 -213l-393 3c-9 -127 -15 -156 -15 -156h664c39 189 -10.8333 518 -390 518zM7532 669c0 0 154.419 234 397 234c92.54 0.742188 136 -30 136 -30l-74 -331l-104 -24
c-26 53 -56 98 -85 144l-238 -9zM7377 35c1 223.875 -6 379.125 0 630l-183 51l30 147l410 40l-30 -160l40 -88v-620h-267zM5248 52v1021l-166 50l30 146l450 32l-26 -212l-4 -174l-31 -132l31 -22v-669zM5746 923c205 0 411 -149 411 -453c0 -229 -117 -470 -526 -470
c-118 0 -280 20 -383 56l142 336c72.9473 -118.622 136.632 -231.081 286 -228c125.636 0 181 139.174 181 269c0 102 -27.9658 267.966 -212 274c-122 4 -248 -74 -248 -74v107c92 123 222 183 349 183zM1914 145c50 10 133 33 133 120l284 -75
c0 -35.6396 76 -40.832 138 -44l-20 -117h-555zM3482 145c57 10 150 40 151 120l273 -75c0 -27.6064 59.1514 -41.6719 110 -44l-20 -117h-534zM4092 145c51 10 120 40 120 120l264 -75c0 -35.0107 59 -41.0469 110 -44l-20 -117h-494zM4652 145c46 10 107 40 107 120
l268 -75c0 -35.7266 73 -40.9873 136 -44l-20 -117h-511zM4405 763c91 85 185 160 338 160c241 0 284 -188 284 -270v-624h-268v446c0 203 -142 222 -329 161zM3898 923l-16 -158c83 83 175 158 319 158c235 0 276 -199 276 -288v-606h-268v398c0 267 -130 289 -302 209
v-607h-274v660l-181 36l20 140zM2047 29v1014l-173 57l20 147l467 61l-30 -273v-1006h-284zM967 430c0 260.807 183.071 483 499 483c307.755 0 426 -199.436 426 -437c0 -260 -147.151 -475 -467 -475c-306.734 0 -458 197 -458 429zM1259 504
c0 -152.251 61.7533 -328 185 -328c76.1084 0 149 72 149 240c0 164.637 -76.8442 330 -194 330c-84.9333 0 -140 -108.483 -140 -242zM589 923c-300 0 -489 -211 -489 -484c0 -226 111.791 -438 504 -438c189.857 0 292 76 292 76l-30 152
c-38.7218 -12.8649 -145.851 -34 -206 -34c-181.071 0 -260 162.427 -260 289c0 124.871 71.6647 253 187 253c79.326 0 105 -48 105 -48l35 -112h162l2 257s-89.8633 89 -302 89z" />
  </g>

</svg>
