<?xml version="1.0" encoding="UTF-8" standalone="no"?>
<!-- Created with Inkscape (http://www.inkscape.org/) -->

<svg
   xmlns:dc="http://purl.org/dc/elements/1.1/"
   xmlns:cc="http://creativecommons.org/ns#"
   xmlns:rdf="http://www.w3.org/1999/02/22-rdf-syntax-ns#"
   xmlns:svg="http://www.w3.org/2000/svg"
   xmlns="http://www.w3.org/2000/svg"
   xmlns:sodipodi="http://sodipodi.sourceforge.net/DTD/sodipodi-0.dtd"
   xmlns:inkscape="http://www.inkscape.org/namespaces/inkscape"
   id="svg4530"
   version="1.1"
   inkscape:version="0.91+devel+osxmenu r12898"
   xml:space="preserve"
   width="11645.333"
   height="1749.3333"
   viewBox="0 0 11645.333 1749.3333"
   sodipodi:docname="logo_text.svg"><metadata
     id="metadata4536"><rdf:RDF><cc:Work
         rdf:about=""><dc:format>image/svg+xml</dc:format><dc:type
           rdf:resource="http://purl.org/dc/dcmitype/StillImage" /><dc:title></dc:title></cc:Work></rdf:RDF></metadata><defs
     id="defs4534" /><sodipodi:namedview
     pagecolor="#ffffff"
     bordercolor="#666666"
     borderopacity="1"
     objecttolerance="10"
     gridtolerance="10"
     guidetolerance="10"
     inkscape:pageopacity="0"
     inkscape:pageshadow="2"
     inkscape:window-width="1435"
     inkscape:window-height="794"
     id="namedview4532"
     showgrid="false"
     inkscape:zoom="0.082416331"
     inkscape:cx="5822.6665"
     inkscape:cy="874.66663"
     inkscape:window-x="0"
     inkscape:window-y="23"
     inkscape:window-maximized="0"
     inkscape:current-layer="g4538" /><g
     id="g4538"
     inkscape:groupmode="layer"
     inkscape:label="ink_ext_XXXXXX"
     transform="matrix(1.3333333,0,0,-1.3333333,0,1749.3333)"><g
       id="g4540"
       transform="scale(0.595365)"><path
         d="m 4007.63,728.965 c 0,429.985 293.94,828.065 801.19,828.065 471.98,0 698.73,-342.65 698.73,-750.8 0,-419.914 -241.87,-797.83156 -767.6,-797.83156 -490.45,0 -732.32,330.89056 -732.32,720.56656 z m 495.49,77.265 c 0,-238.511 113.61,-433.351 260.35,-433.351 127.83,0 250.26,115.898 250.26,386.32 0,255.301 -102.45,436.711 -258.66,436.711 -152.85,0 -251.95,-174.69 -251.95,-389.68 z m 5781.38,-85.664 c 0,429.984 293.9,828.064 801.1,828.064 472,0 698.8,-342.65 698.8,-750.798 C 11784.4,377.918 11542.5,0 11016.8,0 c -490.5,0 -732.3,330.891 -732.3,720.566 z m 495.4,77.266 c 0,-238.512 113.7,-433.348 260.4,-433.348 127.8,0 250.3,115.895 250.3,386.317 0,255.309 -102.5,436.709 -258.7,436.709 -152.9,0 -252,-174.69 -252,-389.678 z m 1201,-535.809 c 77.3,16.797 179.7,67.188 179.7,201.559 l 450.2,-92.383 c 0,-87.281 176.7,-100.133 329.2,-107.496 l -33.6,-196.5155 -959.1,0 33.6,194.8355 z m 2049.2,1295.007 c -478.7,0 -732.4,-366.16 -732.4,-797.831 0,-376.242 191.5,-744.0818 749.2,-744.0818 258.6,0 465.2,78.9414 623.1,211.6328 l -84,194.84 c -97.4,-41.992 -228.4,-82.301 -381.3,-80.621 -377.9,0 -453.5,320.812 -453.5,561 0,184.761 45.4,399.751 250.3,399.751 193.2,0 270.4,-189.8 270.4,-357.759 L 13595,949 c -15.1,-213.316 -25.2,-262.027 -25.2,-262.027 l 1064.9,0 c 60.5,317.457 -16.8,870.057 -604.6,870.057 z M 12410.9,1130.4 c 0,0 259.4,393.04 666.8,393.04 155.4,1.24 228.4,-50.39 228.4,-50.39 l -124.3,-555.964 -174.6,-40.313 c -43.7,89.02 -94.1,164.607 -142.8,241.867 l -399.8,-15.11 -53.7,26.87 z M 12150.5,65.5078 c 1.7,387.9652 -10,657.0082 0,1091.7622 l -307.3,85.67 50.4,213.31 688.6,67.19 -50.4,-268.75 67.2,-147.81 0,-1041.3722 -448.5,0 z m -3544.01,28.5508 0,1765.3014 -278.82,83.99 50.39,194.83 755.84,53.75 -43.67,-356.08 -6.72,-292.26 -52.07,-221.71 52.07,-36.95 0,-1123.684 -477.02,-67.1874 z M 9442.95,1557.03 c 344.33,0 690.35,-250.27 690.35,-760.878 0,-384.64 -196.53,-789.43325 -883.51,-789.43325 -198.19,0 -470.3,33.59375 -643.3,94.05825 L 8845,665.137 c 122.53,-199.242 229.49,-388.133 480.38,-382.957 211.03,0 304.01,233.761 304.01,451.824 0,171.324 -46.98,450.086 -356.08,460.226 -204.92,6.72 -416.55,-124.3 -416.55,-124.3 l 0,179.73 c 154.53,206.59 372.88,307.37 586.19,307.37 z M 3058.63,250.266 c 83.98,16.797 223.39,55.429 223.39,201.558 l 477.02,-125.972 c 0,-59.864 127.66,-68.586 231.79,-73.907 l -33.59,-196.5153 -932.2,0 33.59,194.8363 z m 2581.61,0 c 95.74,16.797 251.95,67.187 253.63,201.558 l 458.54,-125.972 c 0,-46.372 99.35,-69.997 184.76,-73.907 l -33.59,-196.5153 -896.93,0 33.59,194.8363 z m 1024.58,0 c 85.66,16.797 201.56,67.187 201.56,201.558 L 7309.8,325.852 c 0,-58.805 99.11,-68.946 184.77,-73.907 l -33.6,-196.5153 -829.74,0 33.59,194.8363 z m 940.6,0 c 77.27,16.797 179.72,67.187 179.72,201.558 l 450.15,-125.972 c 0,-60.008 122.61,-68.844 228.43,-73.907 l -33.59,-196.5153 -858.3,0 33.59,194.8363 z M 7190.55,1288.29 c 152.85,142.76 310.74,268.74 567.72,268.74 404.79,0 477.02,-315.77 477.02,-453.5 l 0,-1048.1003 -450.15,0 0,749.1213 c 0,340.969 -238.5,372.879 -552.6,270.419 l -41.99,213.32 z m -851.58,268.74 -26.87,-265.39 c 139.41,139.41 293.94,265.39 535.8,265.39 394.72,0 463.58,-334.25 463.58,-483.74 l 0,-1017.8603 -450.14,0 0,668.4963 c 0,448.464 -218.35,485.414 -507.25,351.044 l 0,-1019.5403 -460.22,0 0,1108.5603 -304.02,60.47 33.6,235.15 715.52,97.42 z M 3282.02,55.4297 l 0,1753.5503 -307.37,112.53 33.59,179.72 801.19,102.46 -50.39,-458.54 0,-1689.7203 -477.02,0 z M 1504.96,728.965 c 0,429.985 293.94,828.065 801.19,828.065 471.98,0 698.73,-342.65 698.73,-750.8 0,-419.914 -241.87,-797.83156 -767.59,-797.83156 -490.46,0 -732.33,330.89056 -732.33,720.56656 z m 495.49,77.265 c 0,-238.511 113.62,-433.351 260.35,-433.351 127.84,0 250.27,115.898 250.27,386.32 0,255.301 -102.46,436.711 -258.67,436.711 -152.85,0 -251.95,-174.69 -251.95,-389.68 z M 821.344,1557.03 C 317.453,1557.03 0,1202.63 0,744.082 0,364.484 191.496,8.39844 863.336,8.39844 1171.31,8.39844 1337,119.254 1337,119.254 l 0,389.68 -225.08,0 C 1044.24,413.313 970.043,384.637 890.211,384.637 c -280.742,0 -403.113,221.551 -403.113,451.824 0,201.449 126.808,408.159 330.886,408.159 133.243,0 176.364,-80.63 176.364,-80.63 l 58.792,-188.119 272.1,0 3.36,431.669 c 0,0 -150.94,149.49 -507.256,149.49"
         style="fill:#000000;fill-opacity:1;fill-rule:nonzero;stroke:none"
         id="path4542"
         inkscape:connector-curvature="0" /></g></g></svg>