<?xml version="1.0" encoding="UTF-8" standalone="no"?>
<svg
   xmlns:dc="http://purl.org/dc/elements/1.1/"
   xmlns:cc="http://creativecommons.org/ns#"
   xmlns:rdf="http://www.w3.org/1999/02/22-rdf-syntax-ns#"
   xmlns:svg="http://www.w3.org/2000/svg"
   xmlns="http://www.w3.org/2000/svg"
   xmlns:sodipodi="http://sodipodi.sourceforge.net/DTD/sodipodi-0.dtd"
   xmlns:inkscape="http://www.inkscape.org/namespaces/inkscape"
   version="1.1"
   viewBox="0 -227 6000 1081"
   id="svg5219"
   inkscape:version="0.91+devel+osxmenu r12898"
   sodipodi:docname="logo_text.svg"
   width="6000"
   height="1081">
  <metadata
     id="metadata5229">
    <rdf:RDF>
      <cc:Work
         rdf:about="">
        <dc:format>image/svg+xml</dc:format>
        <dc:type
           rdf:resource="http://purl.org/dc/dcmitype/StillImage" />
        <dc:title></dc:title>
      </cc:Work>
    </rdf:RDF>
  </metadata>
  <defs
     id="defs5227" />
  <sodipodi:namedview
     pagecolor="#ffffff"
     bordercolor="#666666"
     borderopacity="1"
     objecttolerance="10"
     gridtolerance="10"
     guidetolerance="10"
     inkscape:pageopacity="0"
     inkscape:pageshadow="2"
     inkscape:window-width="1768"
     inkscape:window-height="929"
     id="namedview5225"
     showgrid="false"
     inkscape:zoom="0.11626675"
     inkscape:cx="4444"
     inkscape:cy="540.5"
     inkscape:window-x="0"
     inkscape:window-y="23"
     inkscape:window-maximized="0"
     inkscape:current-layer="svg5219" />
  <g
     transform="matrix(0.66464338,0,0,-0.66464338,24.494687,609.49771)"
     id="g5221">
    <path
       d="m 6243,211 c 0,250.807 182.338,483 497,483 307.755,0 426,-199.436 426,-437 0,-250 -147.151,-475 -467,-475 -305.394,0 -456,197 -456,429 z m 280,74 c 0,-152.251 65.0914,-328 195,-328 81.2163,0 159,72 159,240 0,164.637 -80.8052,330 -204,330 -91,0 -150,-108.483 -150,-242 z M 2480,204 c 0,250.807 182.338,483 497,483 307.755,0 426,-199.436 426,-437 0,-250 -147.151,-475 -467,-475 -305.394,0 -456,197 -456,429 z m 280,74 c 0,-152.251 65.0914,-328 195,-328 81.2163,0 159,72 159,240 0,164.637 -80.8052,330 -204,330 -91,0 -150,-108.483 -150,-242 z M 7287,-75 c 46,10 107,40 107,120 l 268,-55 c 0,-51.9648 105.206,-59.6172 196,-64 l -20,-117 -571,0 z m 1220,771 c -285,0 -436,-218 -436,-475 0,-224 114,-443 446,-443 154,0 277,47 371,126 l -50,116 c -58,-25 -136,-49 -227,-48 -225,0 -270,191 -270,334 0,110 27,238 149,238 115,0 161,-113 161,-213 l -403,3 c -9,-127 -15,-156 -15,-156 l 634,0 c 36,189 -10,518 -360,518 z M 7543,442 c 0,0 154.419,234 397,234 92.54,0.74219 136,-30 136,-30 l -74,-331 -104,-24 c -26,53 -56,98 -85,144 l -238,-9 z m -155,-634 c 1,230.982 -6,391.161 0,650 l -183,51 30,127 410,40 -30,-160 40,-88 0,-620 -267,0 z m -2140,17 0,1051 -166,50 30,116 450,32 -26,-212 -4,-174 -31,-132 31,-22 0,-669 z m 498,871 c 205,0 411,-149 411,-453 0,-229 -117,-470 -526,-470 -118,0 -280,20 -383,56 l 142,336 c 72.9473,-118.622 136.632,-231.081 286,-228 125.636,0 181,139.174 181,269 0,102 -27.9658,267.966 -212,274 -122,4 -248,-74 -248,-74 l 0,107 c 92,123 222,183 349,183 z M 1913,-82 c 50,10 133,33 133,120 l 284,-75 c 0,-35.6396 76,-40.832 138,-44 l -20,-117 -555,0 z m 1569,0 c 57,10 150,40 151,120 l 273,-75 c 0,-27.6064 59.1514,-41.6719 110,-44 l -20,-117 -534,0 z m 610,0 c 51,10 120,40 120,120 l 264,-75 c 0,-35.0107 59,-41.0469 110,-44 l -20,-117 -494,0 z m 560,0 c 46,10 107,40 107,120 l 268,-75 c 0,-35.7266 73,-40.9873 136,-44 l -20,-117 -511,0 z m -247,618 c 91,85 185,160 338,160 241,0 284,-188 284,-270 l 0,-624 -268,0 0,446 c 0,203 -142,222 -329,161 z m -507,160 -16,-158 c 83,83 175,158 319,158 235,0 276,-199 276,-288 l 0,-606 -268,0 0,398 c 0,267 -130,289 -302,209 l 0,-607 -274,0 0,660 -181,36 20,140 z m -1852,-894 0,1044 -183,67 20,107 477,61 -30,-273 0,-1006 -284,0 z M 968,203 c 0,250.807 182.338,483 497,483 307.755,0 426,-199.436 426,-437 0,-250 -147.151,-475 -467,-475 -305.394,0 -456,197 -456,429 z m 280,74 c 0,-152.251 65.0914,-328 195,-328 81.2163,0 159,72 159,240 0,164.637 -80.8052,330 -204,330 -91,0 -150,-108.483 -150,-242 z M 571,696 C 271,696 82,485 82,212 c 0,-226 111.791,-438 504,-438 189.857,0 292,66 292,66 l 0,232 -134,0 C 703.7033,15.0719 659.5299,-2 612,-2 444.857,-2 372,129.903 372,267 c 0,119.936 75.497,243 197,243 79.326,0 105,-48 105,-48 l 35,-112 162,0 2,257 c 0,0 -89.8633,89 -302,89 z"
       id="path5223"
       inkscape:connector-curvature="0"
       style="fill:currentColor" />
  </g>
</svg>
